<?xml version='1.0' encoding='UTF-8' standalone='no'?>
<!-- Created with Fritzing (http://www.fritzing.org/) -->
<svg xmlns="http://www.w3.org/2000/svg"  width="0.4in" x="0in" version="1.2" y="0in" height="1.47461in" viewBox="0 0 28.8 106.172" baseProfile="tiny">
 <desc >Fritzing footprint generated by brd2svg</desc>
 <g  id="silkscreen">
  <path  fill="none" stroke="white" stroke-width="0.576" d="M0.288,0.288l28.224,0,0,105.596,-28.224,0,0,-105.596z"/>
  <g >
   <title >element:CH1</title>
   <g >
    <title >package:SCREWTERMINAL-3.5MM-2_LOCK</title>
    <line  stroke="white" stroke-linecap="round" y1="73.854" x1="4.39937" y2="73.854" stroke-width="0.576" x2="24.2419"/>
    <line  stroke="white" stroke-linecap="round" y1="73.854" x1="24.2419" y2="91.4285" stroke-width="0.576" x2="24.2419"/>
    <line  stroke="white" stroke-linecap="round" y1="91.4285" x1="24.2419" y2="93.6965" stroke-width="0.576" x2="24.2419"/>
    <line  stroke="white" stroke-linecap="round" y1="93.6965" x1="24.2419" y2="93.6965" stroke-width="0.576" x2="4.39937"/>
    <line  stroke="white" stroke-linecap="round" y1="93.6965" x1="4.39937" y2="91.4285" stroke-width="0.576" x2="4.39937"/>
    <line  stroke="white" stroke-linecap="round" y1="91.4285" x1="4.39937" y2="73.854" stroke-width="0.576" x2="4.39937"/>
    <line  stroke="white" stroke-linecap="round" y1="91.4285" x1="24.2419" y2="91.4285" stroke-width="0.576" x2="4.39937"/>
   </g>
  </g>
  <g >
   <title >element:JP1</title>
   <g >
    <title >package:1X04</title>
    <line  stroke="white" stroke-linecap="round" y1="16.1716" x1="23.4" y2="16.1716" stroke-width="0.576" x2="27"/>
    <line  stroke="white" stroke-linecap="round" y1="16.1716" x1="27" y2="17.9716" stroke-width="0.576" x2="28.8"/>
    <line  stroke="white" stroke-linecap="round" y1="21.5716" x1="28.8" y2="23.3716" stroke-width="0.576" x2="27"/>
    <line  stroke="white" stroke-linecap="round" y1="17.9716" x1="14.4" y2="16.1716" stroke-width="0.576" x2="16.2"/>
    <line  stroke="white" stroke-linecap="round" y1="16.1716" x1="16.2" y2="16.1716" stroke-width="0.576" x2="19.8"/>
    <line  stroke="white" stroke-linecap="round" y1="16.1716" x1="19.8" y2="17.9716" stroke-width="0.576" x2="21.6"/>
    <line  stroke="white" stroke-linecap="round" y1="21.5716" x1="21.6" y2="23.3716" stroke-width="0.576" x2="19.8"/>
    <line  stroke="white" stroke-linecap="round" y1="23.3716" x1="19.8" y2="23.3716" stroke-width="0.576" x2="16.2"/>
    <line  stroke="white" stroke-linecap="round" y1="23.3716" x1="16.2" y2="21.5716" stroke-width="0.576" x2="14.4"/>
    <line  stroke="white" stroke-linecap="round" y1="16.1716" x1="23.4" y2="17.9716" stroke-width="0.576" x2="21.6"/>
    <line  stroke="white" stroke-linecap="round" y1="21.5716" x1="21.6" y2="23.3716" stroke-width="0.576" x2="23.4"/>
    <line  stroke="white" stroke-linecap="round" y1="23.3716" x1="27" y2="23.3716" stroke-width="0.576" x2="23.4"/>
    <line  stroke="white" stroke-linecap="round" y1="16.1716" x1="1.8" y2="16.1716" stroke-width="0.576" x2="5.4"/>
    <line  stroke="white" stroke-linecap="round" y1="16.1716" x1="5.4" y2="17.9716" stroke-width="0.576" x2="7.2"/>
    <line  stroke="white" stroke-linecap="round" y1="21.5716" x1="7.2" y2="23.3716" stroke-width="0.576" x2="5.4"/>
    <line  stroke="white" stroke-linecap="round" y1="17.9716" x1="7.2" y2="16.1716" stroke-width="0.576" x2="9"/>
    <line  stroke="white" stroke-linecap="round" y1="16.1716" x1="9" y2="16.1716" stroke-width="0.576" x2="12.6"/>
    <line  stroke="white" stroke-linecap="round" y1="16.1716" x1="12.6" y2="17.9716" stroke-width="0.576" x2="14.4"/>
    <line  stroke="white" stroke-linecap="round" y1="21.5716" x1="14.4" y2="23.3716" stroke-width="0.576" x2="12.6"/>
    <line  stroke="white" stroke-linecap="round" y1="23.3716" x1="12.6" y2="23.3716" stroke-width="0.576" x2="9"/>
    <line  stroke="white" stroke-linecap="round" y1="23.3716" x1="9" y2="21.5716" stroke-width="0.576" x2="7.2"/>
    <line  stroke="white" stroke-linecap="round" y1="17.9716" x1="0" y2="21.5716" stroke-width="0.576" x2="0"/>
    <line  stroke="white" stroke-linecap="round" y1="16.1716" x1="1.8" y2="17.9716" stroke-width="0.576" x2="0"/>
    <line  stroke="white" stroke-linecap="round" y1="21.5716" x1="0" y2="23.3716" stroke-width="0.576" x2="1.8"/>
    <line  stroke="white" stroke-linecap="round" y1="23.3716" x1="5.4" y2="23.3716" stroke-width="0.576" x2="1.8"/>
    <line  stroke="white" stroke-linecap="round" y1="17.9716" x1="28.8" y2="21.5716" stroke-width="0.576" x2="28.8"/>
   </g>
  </g>
  <g >
   <title >element:JP2</title>
   <g >
    <title >package:1X02</title>
    <line  stroke="white" stroke-linecap="round" y1="95.3719" x1="19.8" y2="95.3719" stroke-width="0.576" x2="16.2"/>
    <line  stroke="white" stroke-linecap="round" y1="95.3719" x1="16.2" y2="93.5719" stroke-width="0.576" x2="14.4"/>
    <line  stroke="white" stroke-linecap="round" y1="89.9719" x1="14.4" y2="88.1719" stroke-width="0.576" x2="16.2"/>
    <line  stroke="white" stroke-linecap="round" y1="93.5719" x1="14.4" y2="95.3719" stroke-width="0.576" x2="12.6"/>
    <line  stroke="white" stroke-linecap="round" y1="95.3719" x1="12.6" y2="95.3719" stroke-width="0.576" x2="9"/>
    <line  stroke="white" stroke-linecap="round" y1="95.3719" x1="9" y2="93.5719" stroke-width="0.576" x2="7.2"/>
    <line  stroke="white" stroke-linecap="round" y1="89.9719" x1="7.2" y2="88.1719" stroke-width="0.576" x2="9"/>
    <line  stroke="white" stroke-linecap="round" y1="88.1719" x1="9" y2="88.1719" stroke-width="0.576" x2="12.6"/>
    <line  stroke="white" stroke-linecap="round" y1="88.1719" x1="12.6" y2="89.9719" stroke-width="0.576" x2="14.4"/>
    <line  stroke="white" stroke-linecap="round" y1="93.5719" x1="21.6" y2="89.9719" stroke-width="0.576" x2="21.6"/>
    <line  stroke="white" stroke-linecap="round" y1="95.3719" x1="19.8" y2="93.5719" stroke-width="0.576" x2="21.6"/>
    <line  stroke="white" stroke-linecap="round" y1="89.9719" x1="21.6" y2="88.1719" stroke-width="0.576" x2="19.8"/>
    <line  stroke="white" stroke-linecap="round" y1="88.1719" x1="16.2" y2="88.1719" stroke-width="0.576" x2="19.8"/>
    <line  stroke="white" stroke-linecap="round" y1="93.5719" x1="7.2" y2="89.9719" stroke-width="0.576" x2="7.2"/>
   </g>
  </g>
  <g >
   <title >element:L1</title>
   <g >
    <title >package:SRN6045</title>
    <line  stroke="white" stroke-linecap="round" y1="55.0516" x1="12.24" y2="55.0516" stroke-width="0.432" x2="16.56"/>
    <line  stroke="white" stroke-linecap="round" y1="71.9716" x1="12.24" y2="71.9716" stroke-width="0.432" x2="16.56"/>
   </g>
  </g>
  <g >
   <title >element:LOGO2</title>
   <g >
    <title >package:SFE_LOGO_NAME_FLAME_.1</title>
   </g>
  </g>
 </g>
 <g  id="copper1">
  <g  id="copper0">
   <circle  fill="none" cx="10.8" cy="91.7719" connectorname="OUT-" stroke="#F7BD13" r="2.052" id="connector15pad" stroke-width="1.224"/>
   <circle  fill="none" cx="3.6" cy="19.7716" connectorname="GND" stroke="#F7BD13" r="2.052" id="connector10pad" stroke-width="1.224"/>
   <rect  width="4.104" x="1.548" y="17.7196" fill="none" height="4.104" stroke="#F7BD13" stroke-width="1.224"/>
   <circle  fill="none" cx="10.8" cy="19.7716" connectorname="VIN" stroke="#F7BD13" r="2.052" id="connector11pad" stroke-width="1.224"/>
   <circle  fill="none" cx="18" cy="19.7716" connectorname="GND" stroke="#F7BD13" r="2.052" id="connector12pad" stroke-width="1.224"/>
   <circle  fill="none" cx="25.2" cy="19.7716" connectorname="CTRL_CH1" stroke="#F7BD13" r="2.052" id="connector13pad" stroke-width="1.224"/>
   <circle  fill="none" cx="18" cy="91.7719" connectorname="OUT+" stroke="#F7BD13" r="2.052" id="connector14pad" stroke-width="1.224"/>
  </g>
 </g>
</svg>
