<?xml version='1.0' encoding='UTF-8' standalone='no'?>
<!-- Created with Fritzing (http://www.fritzing.org/) -->
<svg xmlns="http://www.w3.org/2000/svg"  width="0.8in" x="0in" version="1.2" y="0in" height="0.7in" viewBox="0 0 57.6 50.4" baseProfile="tiny">
 <desc >Fritzing footprint generated by brd2svg</desc>
 <g  id="silkscreen">
  <path  fill="none" stroke="white" stroke-width="0.576" d="M0.288,0.288L57.312,0.288L57.312,50.112L0.288,50.112L0.288,0.288M8.208,5.4a4.392,4.392,0,1,0,8.784,0,4.392,4.392,0,1,0,-8.784,0zM8.208,45a4.392,4.392,0,1,0,8.784,0,4.392,4.392,0,1,0,-8.784,0z"/>
  <g >
   <title >element:JP1</title>
   <g >
    <title >package:1X04</title>
    <line  stroke="white" stroke-linecap="round" y1="16.2" x1="0" y2="12.6" stroke-width="0.576" x2="0"/>
    <line  stroke="white" stroke-linecap="round" y1="12.6" x1="0" y2="10.8" stroke-width="0.576" x2="1.8"/>
    <line  stroke="white" stroke-linecap="round" y1="10.8" x1="5.4" y2="12.6" stroke-width="0.576" x2="7.2"/>
    <line  stroke="white" stroke-linecap="round" y1="25.2" x1="1.8" y2="23.4" stroke-width="0.576" x2="0"/>
    <line  stroke="white" stroke-linecap="round" y1="23.4" x1="0" y2="19.8" stroke-width="0.576" x2="0"/>
    <line  stroke="white" stroke-linecap="round" y1="19.8" x1="0" y2="18" stroke-width="0.576" x2="1.8"/>
    <line  stroke="white" stroke-linecap="round" y1="18" x1="5.4" y2="19.8" stroke-width="0.576" x2="7.2"/>
    <line  stroke="white" stroke-linecap="round" y1="19.8" x1="7.2" y2="23.4" stroke-width="0.576" x2="7.2"/>
    <line  stroke="white" stroke-linecap="round" y1="23.4" x1="7.2" y2="25.2" stroke-width="0.576" x2="5.4"/>
    <line  stroke="white" stroke-linecap="round" y1="16.2" x1="0" y2="18" stroke-width="0.576" x2="1.8"/>
    <line  stroke="white" stroke-linecap="round" y1="18" x1="5.4" y2="16.2" stroke-width="0.576" x2="7.2"/>
    <line  stroke="white" stroke-linecap="round" y1="12.6" x1="7.2" y2="16.2" stroke-width="0.576" x2="7.2"/>
    <line  stroke="white" stroke-linecap="round" y1="37.8" x1="0" y2="34.2" stroke-width="0.576" x2="0"/>
    <line  stroke="white" stroke-linecap="round" y1="34.2" x1="0" y2="32.4" stroke-width="0.576" x2="1.8"/>
    <line  stroke="white" stroke-linecap="round" y1="32.4" x1="5.4" y2="34.2" stroke-width="0.576" x2="7.2"/>
    <line  stroke="white" stroke-linecap="round" y1="32.4" x1="1.8" y2="30.6" stroke-width="0.576" x2="0"/>
    <line  stroke="white" stroke-linecap="round" y1="30.6" x1="0" y2="27" stroke-width="0.576" x2="0"/>
    <line  stroke="white" stroke-linecap="round" y1="27" x1="0" y2="25.2" stroke-width="0.576" x2="1.8"/>
    <line  stroke="white" stroke-linecap="round" y1="25.2" x1="5.4" y2="27" stroke-width="0.576" x2="7.2"/>
    <line  stroke="white" stroke-linecap="round" y1="27" x1="7.2" y2="30.6" stroke-width="0.576" x2="7.2"/>
    <line  stroke="white" stroke-linecap="round" y1="30.6" x1="7.2" y2="32.4" stroke-width="0.576" x2="5.4"/>
    <line  stroke="white" stroke-linecap="round" y1="39.6" x1="1.8" y2="39.6" stroke-width="0.576" x2="5.4"/>
    <line  stroke="white" stroke-linecap="round" y1="37.8" x1="0" y2="39.6" stroke-width="0.576" x2="1.8"/>
    <line  stroke="white" stroke-linecap="round" y1="39.6" x1="5.4" y2="37.8" stroke-width="0.576" x2="7.2"/>
    <line  stroke="white" stroke-linecap="round" y1="34.2" x1="7.2" y2="37.8" stroke-width="0.576" x2="7.2"/>
    <line  stroke="white" stroke-linecap="round" y1="10.8" x1="1.8" y2="10.8" stroke-width="0.576" x2="5.4"/>
   </g>
  </g>
  <g >
   <title >element:LOGO2</title>
   <g >
    <title >package:SFE_LOGO_NAME_.1</title>
    <g >
     <title >polygon</title>
     <path  fill="none" stroke="white" stroke-linecap="round" stroke-width="0.0283465" d="M21.9781,4.68964L22.0065,4.85972M22.0065,4.85972L22.0632,4.9731M22.0632,4.9731L22.1198,5.11484M22.1198,5.11484L22.2332,5.19988M22.2332,5.19988L22.375,5.25657M22.375,5.25657L22.5167,5.31326M22.5167,5.31326L22.6585,5.34161M22.6585,5.34161L22.8285,5.36995M22.8285,5.36995L22.9419,5.34161M22.9419,5.34161L23.0553,5.34161M23.0553,5.34161L23.197,5.28492M23.197,5.28492L23.3104,5.25657M23.3104,5.25657L23.3955,5.17153M23.3955,5.17153L23.4805,5.08649M23.4805,5.08649L23.5372,4.9731M23.5372,4.9731L23.5372,4.83137M23.5372,4.83137L23.5089,4.71799M23.5089,4.71799L23.4521,4.63295M23.4521,4.63295L23.3671,4.54791M23.3671,4.54791L23.2254,4.46287M23.2254,4.46287L23.027,4.40618M23.027,4.40618L22.8285,4.34948M22.8285,4.34948L22.5734,4.29278M22.5734,4.29278L22.29,4.23609M22.29,4.23609L22.0632,4.15105M22.0632,4.15105L21.8364,4.09436M21.8364,4.09436L21.6096,4.00932M21.6096,4.00932L21.4112,3.89593M21.4112,3.89593L21.2694,3.7542M21.2694,3.7542L21.1278,3.61247M21.1278,3.61247L21.0427,3.3857M21.0427,3.3857L21.0144,3.15893M21.0144,3.15893L21.0711,2.79042M21.0711,2.79042L21.1844,2.50696M21.1844,2.50696L21.3546,2.30854M21.3546,2.30854L21.5813,2.13846M21.5813,2.13846L21.8364,1.99673M21.8364,1.99673L22.1198,1.91169M22.1198,1.91169L22.4317,1.88334M22.4317,1.88334L22.7719,1.85499M22.7719,1.85499L23.0836,1.88334M23.0836,1.88334L23.3955,1.91169M23.3955,1.91169L23.6789,1.99673M23.6789,1.99673L23.934,2.13846M23.934,2.13846L24.1608,2.30854M24.1608,2.30854L24.3593,2.53531M24.3593,2.53531L24.4727,2.81877M24.4727,2.81877L24.5293,3.13058M24.5293,3.13058L23.4805,3.13058M23.4805,3.13058L23.4521,2.98885M23.4521,2.98885L23.4238,2.87546M23.4238,2.87546L23.3388,2.79042M23.3388,2.79042L23.2538,2.70539M23.2538,2.70539L23.1404,2.64869M23.1404,2.64869L23.027,2.62035M23.027,2.62035L22.8852,2.592M22.8852,2.592L22.6301,2.592M22.6301,2.592L22.5451,2.62035M22.5451,2.62035L22.4317,2.62035M22.4317,2.62035L22.3466,2.64869M22.3466,2.64869L22.2616,2.70539M22.2616,2.70539L22.1766,2.76208M22.1766,2.76208L22.1482,2.84712M22.1482,2.84712L22.1198,2.9605M22.1198,2.9605L22.1482,3.10224M22.1482,3.10224L22.2332,3.21562M22.2332,3.21562L22.3466,3.30066M22.3466,3.30066L22.5167,3.35735M22.5167,3.35735L22.7151,3.41405M22.7151,3.41405L22.9136,3.47074M22.9136,3.47074L23.1404,3.49908M23.1404,3.49908L23.3671,3.55578M23.3671,3.55578L23.6223,3.61247M23.6223,3.61247L23.849,3.69751M23.849,3.69751L24.0474,3.78255M24.0474,3.78255L24.2459,3.89593M24.2459,3.89593L24.4159,4.03767M24.4159,4.03767L24.5293,4.20774M24.5293,4.20774L24.6144,4.43452M24.6144,4.43452L24.6427,4.68964M24.6427,4.68964L24.6144,5.05814M24.6144,5.05814L24.4727,5.34161M24.4727,5.34161L24.3025,5.59673M24.3025,5.59673L24.0758,5.7668M24.0758,5.7668L23.7923,5.90854M23.7923,5.90854L23.4805,6.02192M23.4805,6.02192L23.1404,6.07861M23.1404,6.07861L22.46,6.07861M22.46,6.07861L22.1198,6.02192M22.1198,6.02192L21.8081,5.90854M21.8081,5.90854L21.5246,5.7668M21.5246,5.7668L21.2978,5.59673M21.2978,5.59673L21.0994,5.34161M21.0994,5.34161L20.986,5.0298M20.986,5.0298L20.9293,4.68964M20.9293,4.68964L21.8364,4.68964M21.8364,4.68964L21.9781,4.68964M22.46,6.07861L23.1404,6.07861M22.29,6.05027L23.3104,6.05027M22.1198,6.02192L23.4805,6.02192M22.0419,5.99358L23.5585,5.99358M21.964,5.96523L23.6364,5.96523M21.886,5.93688L23.7144,5.93688M21.8081,5.90854L23.7923,5.90854M21.7513,5.88019L23.849,5.88019M21.6947,5.85184L23.9057,5.85184M21.638,5.8235L23.9624,5.8235M21.5813,5.79515L24.0191,5.79515M21.5246,5.7668L24.0758,5.7668M21.4868,5.73846L24.1136,5.73846M21.449,5.71011L24.1514,5.71011M21.4112,5.68176L24.1892,5.68176M21.3734,5.65342L24.227,5.65342M21.3356,5.62507L24.2648,5.62507M21.2978,5.59673L24.3025,5.59673M21.2758,5.56838L24.3215,5.56838M21.2538,5.54003L24.3403,5.54003M21.2317,5.51169L24.3593,5.51169M21.2096,5.48334L24.3781,5.48334M21.1876,5.45499L24.3971,5.45499M21.1656,5.42665L24.4159,5.42665M21.1435,5.3983L24.4349,5.3983M21.1214,5.36995L22.8285,5.36995M22.8285,5.36995L24.4537,5.36995M21.0994,5.34161L22.6585,5.34161M23.0553,5.34161L24.4727,5.34161M21.0891,5.31326L22.5167,5.31326M23.1262,5.31326L24.4868,5.31326M21.0788,5.28492L22.4459,5.28492M23.197,5.28492L24.501,5.28492M21.0685,5.25657L22.375,5.25657M23.3104,5.25657L24.5151,5.25657M21.0582,5.22822L22.3042,5.22822M23.3388,5.22822L24.5293,5.22822M21.0478,5.19988L22.2332,5.19988M23.3671,5.19988L24.5435,5.19988M21.0375,5.17153L22.1954,5.17153M23.3955,5.17153L24.5577,5.17153M21.0272,5.14318L22.1576,5.14318M23.4238,5.14318L24.5719,5.14318M21.0169,5.11484L22.1198,5.11484M23.4521,5.11484L24.586,5.11484M21.0066,5.08649L22.1085,5.08649M23.4805,5.08649L24.6002,5.08649M20.9964,5.05814L22.0972,5.05814M23.4947,5.05814L24.6144,5.05814M20.986,5.0298L22.0859,5.0298M23.5089,5.0298L24.6166,5.0298M20.9813,5.00145L22.0746,5.00145M23.523,5.00145L24.6187,5.00145M20.9766,4.9731L22.0632,4.9731M23.5372,4.9731L24.6209,4.9731M20.9719,4.94476L22.049,4.94476M23.5372,4.94476L24.6231,4.94476M20.9671,4.91641L22.0348,4.91641M23.5372,4.91641L24.6253,4.91641M20.9624,4.88807L22.0207,4.88807M23.5372,4.88807L24.6275,4.88807M20.9577,4.85972L22.0065,4.85972M23.5372,4.85972L24.6296,4.85972M20.9529,4.83137L22.0018,4.83137M23.5372,4.83137L24.6318,4.83137M20.9483,4.80303L21.997,4.80303M23.5301,4.80303L24.634,4.80303M20.9435,4.77468L21.9923,4.77468M23.523,4.77468L24.6362,4.77468M20.9388,4.74633L21.9876,4.74633M23.5159,4.74633L24.6383,4.74633M20.9341,4.71799L21.9829,4.71799M23.5089,4.71799L24.6406,4.71799M23.4899,4.68964L24.6427,4.68964M23.4711,4.66129L24.6396,4.66129M23.4521,4.63295L24.6364,4.63295M23.4238,4.6046L24.6333,4.6046M23.3955,4.57626L24.6301,4.57626M23.3671,4.54791L24.627,4.54791M23.3199,4.51956L24.6238,4.51956M23.2726,4.49122L24.6207,4.49122M23.2254,4.46287L24.6175,4.46287M23.1262,4.43452L24.6144,4.43452M23.027,4.40618L24.6038,4.40618M22.9278,4.37782L24.5931,4.37782M22.8285,4.34948L24.5825,4.34948M22.701,4.32113L24.5719,4.32113M22.5734,4.29278L24.5612,4.29278M22.4317,4.26444L24.5506,4.26444M22.29,4.23609L24.54,4.23609M22.2144,4.20774L24.5293,4.20774M22.1388,4.1794L24.5104,4.1794M22.0632,4.15105L24.4915,4.15105M21.9498,4.12271L24.4727,4.12271M21.8364,4.09436L24.4537,4.09436M21.7608,4.06601L24.4349,4.06601M21.6852,4.03767L24.4159,4.03767M21.6096,4.00932L24.3819,4.00932M21.56,3.98097L24.3479,3.98097M21.5104,3.95263L24.3139,3.95263M21.4608,3.92428L24.2798,3.92428M21.4112,3.89593L24.2459,3.89593M21.3828,3.86759L24.1962,3.86759M21.3546,3.83924L24.1466,3.83924M21.3262,3.8109L24.097,3.8109M21.2978,3.78255L24.0474,3.78255M21.2694,3.7542L23.9813,3.7542M21.2412,3.72586L23.9152,3.72586M21.2128,3.69751L23.849,3.69751M21.1844,3.66916L23.7734,3.66916M21.1561,3.64082L23.6978,3.64082M21.1278,3.61247L23.6223,3.61247M21.1171,3.58412L23.4947,3.58412M21.1065,3.55578L23.3671,3.55578M21.0959,3.52743L23.2538,3.52743M21.0852,3.49908L23.1404,3.49908M21.0746,3.47074L22.9136,3.47074M21.064,3.44239L22.8144,3.44239M21.0533,3.41405L22.7151,3.41405M21.0427,3.3857L22.6159,3.3857M21.0392,3.35735L22.5167,3.35735M21.0356,3.32901L22.4317,3.32901M21.0321,3.30066L22.3466,3.30066M21.0285,3.27231L22.3088,3.27231M21.025,3.24397L22.271,3.24397M21.0215,3.21562L22.2332,3.21562M21.0179,3.18727L22.212,3.18727M21.0144,3.15893L22.1908,3.15893M21.0187,3.13058L22.1694,3.13058M23.4805,3.13058L24.5293,3.13058M21.0231,3.10224L22.1482,3.10224M23.4748,3.10224L24.5241,3.10224M21.0275,3.07389L22.1425,3.07389M23.4692,3.07389L24.519,3.07389M21.0318,3.04554L22.1369,3.04554M23.4635,3.04554L24.5138,3.04554M21.0362,3.0172L22.1312,3.0172M23.4578,3.0172L24.5087,3.0172M21.0405,2.98885L22.1255,2.98885M23.4521,2.98885L24.5035,2.98885M21.0449,2.9605L22.1198,2.9605M23.4451,2.9605L24.4984,2.9605M21.0493,2.93216L22.127,2.93216M23.438,2.93216L24.4932,2.93216M21.0536,2.90381L22.134,2.90381M23.4309,2.90381L24.4881,2.90381M21.058,2.87546L22.1412,2.87546M23.4238,2.87546L24.483,2.87546M21.0623,2.84712L22.1482,2.84712M23.3955,2.84712L24.4778,2.84712M21.0667,2.81877L22.1576,2.81877M23.3671,2.81877L24.4727,2.81877M21.0711,2.79042L22.1671,2.79042M23.3388,2.79042L24.4613,2.79042M21.0824,2.76208L22.1766,2.76208M23.3104,2.76208L24.45,2.76208M21.0938,2.73373L22.2191,2.73373M23.2821,2.73373L24.4386,2.73373M21.1051,2.70539L22.2616,2.70539M23.2538,2.70539L24.4273,2.70539M21.1164,2.67704L22.3042,2.67704M23.197,2.67704L24.4159,2.67704M21.1278,2.64869L22.3466,2.64869M23.1404,2.64869L24.4046,2.64869M21.1391,2.62035L22.5451,2.62035M23.027,2.62035L24.3932,2.62035M21.1504,2.592L24.3819,2.592M21.1617,2.56365L24.3706,2.56365M21.1731,2.53531L24.3593,2.53531M21.1844,2.50696L24.3344,2.50696M21.2088,2.47861L24.3096,2.47861M21.233,2.45027L24.2848,2.45027M21.2574,2.42192L24.26,2.42192M21.2816,2.39358L24.2352,2.39358M21.306,2.36523L24.2104,2.36523M21.3302,2.33688L24.1856,2.33688M21.3546,2.30854L24.1608,2.30854M21.3923,2.28019L24.123,2.28019M21.4301,2.25184L24.0852,2.25184M21.4679,2.2235L24.0474,2.2235M21.5057,2.19515L24.0096,2.19515M21.5435,2.1668L23.9718,2.1668M21.5813,2.13846L23.934,2.13846M21.6323,2.11011L23.883,2.11011M21.6833,2.08176L23.832,2.08176M21.7344,2.05342L23.781,2.05342M21.7854,2.02507L23.73,2.02507M21.8364,1.99673L23.6789,1.99673M21.9309,1.96838L23.5845,1.96838M22.0254,1.94003L23.4899,1.94003M22.1198,1.91169L23.3955,1.91169M22.4317,1.88334L23.0836,1.88334"/>
    </g>
    <g >
     <title >polygon</title>
     <path  fill="none" stroke="white" stroke-linecap="round" stroke-width="0.0283465" d="M27.9593,4.68964L28.0159,4.46287M28.0159,4.46287L28.0443,4.23609M28.0443,4.23609L28.0727,3.98097M28.0727,3.98097L29.1498,4.00932M29.1498,4.00932L29.1215,4.40618M29.1215,4.40618L29.0647,4.80303M29.0647,4.80303L28.923,5.14318M28.923,5.14318L27.9593,4.68964M28.8628,5.11484L28.9349,5.11484M28.8025,5.08649L28.9467,5.08649M28.7423,5.05814L28.9585,5.05814M28.6821,5.0298L28.9703,5.0298M28.6219,5.00145L28.9821,5.00145M28.5616,4.9731L28.9939,4.9731M28.5013,4.94476L29.0057,4.94476M28.4412,4.91641L29.0175,4.91641M28.3809,4.88807L29.0293,4.88807M28.3207,4.85972L29.0411,4.85972M28.2604,4.83137L29.0529,4.83137M28.2002,4.80303L29.0647,4.80303M28.14,4.77468L29.0688,4.77468M28.0797,4.74633L29.0729,4.74633M28.0194,4.71799L29.0769,4.71799M27.9593,4.68964L29.0809,4.68964M27.9663,4.66129L29.085,4.66129M27.9734,4.63295L29.0891,4.63295M27.9805,4.6046L29.0931,4.6046M27.9876,4.57626L29.0971,4.57626M27.9947,4.54791L29.1012,4.54791M28.0017,4.51956L29.1053,4.51956M28.0089,4.49122L29.1093,4.49122M28.0159,4.46287L29.1133,4.46287M28.0194,4.43452L29.1174,4.43452M28.023,4.40618L29.1215,4.40618M28.0266,4.37782L29.1235,4.37782M28.0301,4.34948L29.1255,4.34948M28.0336,4.32113L29.1275,4.32113M28.0372,4.29278L29.1295,4.29278M28.0408,4.26444L29.1316,4.26444M28.0443,4.23609L29.1336,4.23609M28.0475,4.20774L29.1356,4.20774M28.0506,4.1794L29.1377,4.1794M28.0537,4.15105L29.1397,4.15105M28.0569,4.12271L29.1417,4.12271M28.0601,4.09436L29.1437,4.09436M28.0632,4.06601L29.1457,4.06601M28.0663,4.03767L29.1478,4.03767M28.0695,4.00932L29.1498,4.00932"/>
    </g>
    <g >
     <title >polygon</title>
     <path  fill="none" stroke="white" stroke-linecap="round" stroke-width="0.0283465" d="M28.923,5.14318L28.7246,5.45499M28.7246,5.45499L28.4694,5.71011M28.4694,5.71011L28.186,5.90854M28.186,5.90854L27.8175,6.05027M27.8175,6.05027L27.3923,6.07861M27.3923,6.07861L27.2223,6.07861M27.2223,6.07861L27.0521,6.05027M27.0521,6.05027L26.8821,5.99358M26.8821,5.99358L26.712,5.93688M26.712,5.93688L26.5702,5.85184M26.5702,5.85184L26.4285,5.73846M26.4285,5.73846L26.3151,5.62507M26.3151,5.62507L26.2017,5.48334M26.2017,5.48334L26.2017,8.37468M26.2017,8.37468L26.06,8.26128M26.06,8.26128L25.9183,8.11958M25.9183,8.11958L25.7766,8.00618M25.7766,8.00618L25.6348,7.89278M25.6348,7.89278L25.4931,7.75109M25.4931,7.75109L25.3797,7.63769M25.3797,7.63769L25.238,7.52429M25.238,7.52429L25.0962,7.38252M25.0962,7.38252L25.0962,2.1668M25.0962,2.1668L25.238,2.13846M25.238,2.13846L25.3513,2.11011M25.3513,2.11011L25.4931,2.08176M25.4931,2.08176L25.6065,2.08176M25.6065,2.08176L25.7482,2.05342M25.7482,2.05342L25.89,2.02507M25.89,2.02507L26.0033,1.99673M26.0033,1.99673L26.1451,1.96838M26.1451,1.96838L26.1451,2.47861M26.1451,2.47861L26.2585,2.33688M26.2585,2.33688L26.3719,2.19515M26.3719,2.19515L26.5136,2.11011M26.5136,2.11011L26.6553,2.02507M26.6553,2.02507L26.8254,1.94003M26.8254,1.94003L26.9955,1.91169M26.9955,1.91169L27.1655,1.88334M27.1655,1.88334L27.3356,1.85499M27.3356,1.85499L27.7892,1.91169M27.7892,1.91169L28.1577,2.05342M28.1577,2.05342L28.4694,2.25184M28.4694,2.25184L28.7246,2.50696M28.7246,2.50696L28.923,2.84712M28.923,2.84712L29.0647,3.21562M29.0647,3.21562L29.1498,3.61247M29.1498,3.61247L29.1498,4.00932M29.1498,4.00932L28.0727,3.98097M28.0727,3.98097L28.0443,3.7542M28.0443,3.7542L28.0159,3.52743M28.0159,3.52743L27.9309,3.30066M27.9309,3.30066L27.8459,3.10224M27.8459,3.10224L27.7042,2.93216M27.7042,2.93216L27.534,2.81877M27.534,2.81877L27.3356,2.73373M27.3356,2.73373L27.1089,2.70539M27.1089,2.70539L26.8538,2.73373M26.8538,2.73373L26.6553,2.81877M26.6553,2.81877L26.4852,2.93216M26.4852,2.93216L26.3435,3.10224M26.3435,3.10224L26.2585,3.30066M26.2585,3.30066L26.2017,3.52743M26.2017,3.52743L26.1451,3.7542M26.1451,3.7542L26.1451,4.23609M26.1451,4.23609L26.2017,4.46287M26.2017,4.46287L26.2585,4.68964M26.2585,4.68964L26.3719,4.85972M26.3719,4.85972L26.4852,5.0298M26.4852,5.0298L26.6553,5.14318M26.6553,5.14318L26.8538,5.22822M26.8538,5.22822L27.1089,5.25657M27.1089,5.25657L27.364,5.22822M27.364,5.22822L27.5624,5.14318M27.5624,5.14318L27.7325,5.0298M27.7325,5.0298L27.8459,4.85972M27.8459,4.85972L27.9593,4.68964M27.9593,4.68964L28.923,5.14318M26.1663,8.34631L26.2017,8.34631M26.1309,8.31802L26.2017,8.31802M26.0955,8.28965L26.2017,8.28965M26.06,8.26128L26.2017,8.26128M26.0317,8.23291L26.2017,8.23291M26.0033,8.20462L26.2017,8.20462M25.975,8.17625L26.2017,8.17625M25.9466,8.14788L26.2017,8.14788M25.9183,8.11958L26.2017,8.11958M25.8828,8.09122L26.2017,8.09122M25.8474,8.06285L26.2017,8.06285M25.812,8.03455L26.2017,8.03455M25.7766,8.00618L26.2017,8.00618M25.7412,7.97782L26.2017,7.97782M25.7057,7.94945L26.2017,7.94945M25.6702,7.92115L26.2017,7.92115M25.6348,7.89278L26.2017,7.89278M25.6065,7.86442L26.2017,7.86442M25.5781,7.83612L26.2017,7.83612M25.5498,7.80775L26.2017,7.80775M25.5215,7.77938L26.2017,7.77938M25.4931,7.75109L26.2017,7.75109M25.4647,7.72272L26.2017,7.72272M25.4364,7.69435L26.2017,7.69435M25.4081,7.66598L26.2017,7.66598M25.3797,7.63769L26.2017,7.63769M25.3443,7.60932L26.2017,7.60932M25.3089,7.58095L26.2017,7.58095M25.2734,7.55266L26.2017,7.55266M25.238,7.52429L26.2017,7.52429M25.2096,7.49592L26.2017,7.49592M25.1813,7.46762L26.2017,7.46762M25.1529,7.43926L26.2017,7.43926M25.1246,7.41089L26.2017,7.41089M25.0962,7.38252L26.2017,7.38252M25.0962,7.35422L26.2017,7.35422M25.0962,7.32586L26.2017,7.32586M25.0962,7.29749L26.2017,7.29749M25.0962,7.26919L26.2017,7.26919M25.0962,7.24082L26.2017,7.24082M25.0962,7.21246L26.2017,7.21246M25.0962,7.18412L26.2017,7.18412M25.0962,7.15578L26.2017,7.15578M25.0962,7.12743L26.2017,7.12743M25.0962,7.09908L26.2017,7.09908M25.0962,7.07074L26.2017,7.07074M25.0962,7.04239L26.2017,7.04239M25.0962,7.01405L26.2017,7.01405M25.0962,6.9857L26.2017,6.9857M25.0962,6.95735L26.2017,6.95735M25.0962,6.92901L26.2017,6.92901M25.0962,6.90066L26.2017,6.90066M25.0962,6.87231L26.2017,6.87231M25.0962,6.84397L26.2017,6.84397M25.0962,6.81562L26.2017,6.81562M25.0962,6.78727L26.2017,6.78727M25.0962,6.75893L26.2017,6.75893M25.0962,6.73058L26.2017,6.73058M25.0962,6.70224L26.2017,6.70224M25.0962,6.67389L26.2017,6.67389M25.0962,6.64554L26.2017,6.64554M25.0962,6.6172L26.2017,6.6172M25.0962,6.58885L26.2017,6.58885M25.0962,6.5605L26.2017,6.5605M25.0962,6.53216L26.2017,6.53216M25.0962,6.50381L26.2017,6.50381M25.0962,6.47546L26.2017,6.47546M25.0962,6.44712L26.2017,6.44712M25.0962,6.41877L26.2017,6.41877M25.0962,6.39042L26.2017,6.39042M25.0962,6.36208L26.2017,6.36208M25.0962,6.33373L26.2017,6.33373M25.0962,6.30539L26.2017,6.30539M25.0962,6.27704L26.2017,6.27704M25.0962,6.24869L26.2017,6.24869M25.0962,6.22035L26.2017,6.22035M25.0962,6.192L26.2017,6.192M25.0962,6.16365L26.2017,6.16365M25.0962,6.13531L26.2017,6.13531M25.0962,6.10696L26.2017,6.10696M25.0962,6.07861L26.2017,6.07861M27.2223,6.07861L27.3923,6.07861M25.0962,6.05027L26.2017,6.05027M27.0521,6.05027L27.8175,6.05027M25.0962,6.02192L26.2017,6.02192M26.9671,6.02192L27.8912,6.02192M25.0962,5.99358L26.2017,5.99358M26.8821,5.99358L27.9649,5.99358M25.0962,5.96523L26.2017,5.96523M26.797,5.96523L28.0386,5.96523M25.0962,5.93688L26.2017,5.93688M26.712,5.93688L28.1123,5.93688M25.0962,5.90854L26.2017,5.90854M26.6648,5.90854L28.186,5.90854M25.0962,5.88019L26.2017,5.88019M26.6175,5.88019L28.2265,5.88019M25.0962,5.85184L26.2017,5.85184M26.5702,5.85184L28.267,5.85184M25.0962,5.8235L26.2017,5.8235M26.5348,5.8235L28.3075,5.8235M25.0962,5.79515L26.2017,5.79515M26.4994,5.79515L28.348,5.79515M25.0962,5.7668L26.2017,5.7668M26.464,5.7668L28.3885,5.7668M25.0962,5.73846L26.2017,5.73846M26.4285,5.73846L28.429,5.73846M25.0962,5.71011L26.2017,5.71011M26.4002,5.71011L28.4694,5.71011M25.0962,5.68176L26.2017,5.68176M26.3719,5.68176L28.4978,5.68176M25.0962,5.65342L26.2017,5.65342M26.3435,5.65342L28.5262,5.65342M25.0962,5.62507L26.2017,5.62507M26.3151,5.62507L28.5546,5.62507M25.0962,5.59673L26.2017,5.59673M26.2925,5.59673L28.5828,5.59673M25.0962,5.56838L26.2017,5.56838M26.2698,5.56838L28.6112,5.56838M25.0962,5.54003L26.2017,5.54003M26.2471,5.54003L28.6396,5.54003M25.0962,5.51169L26.2017,5.51169M26.2244,5.51169L28.6679,5.51169M25.0962,5.48334L28.6962,5.48334M25.0962,5.45499L28.7246,5.45499M25.0962,5.42665L28.7426,5.42665M25.0962,5.3983L28.7607,5.3983M25.0962,5.36995L28.7787,5.36995M25.0962,5.34161L28.7968,5.34161M25.0962,5.31326L28.8148,5.31326M25.0962,5.28492L28.8328,5.28492M25.0962,5.25657L27.1089,5.25657M27.1089,5.25657L28.8509,5.25657M25.0962,5.22822L26.8538,5.22822M27.364,5.22822L28.8689,5.22822M25.0962,5.19988L26.7876,5.19988M27.4301,5.19988L28.887,5.19988M25.0962,5.17153L26.7214,5.17153M27.4962,5.17153L28.905,5.17153M25.0962,5.14318L26.6553,5.14318M27.5624,5.14318L28.923,5.14318M25.0962,5.11484L26.6128,5.11484M27.6049,5.11484L28.8628,5.11484M25.0962,5.08649L26.5702,5.08649M27.6474,5.08649L28.8025,5.08649M25.0962,5.05814L26.5278,5.05814M27.69,5.05814L28.7423,5.05814M25.0962,5.0298L26.4852,5.0298M27.7325,5.0298L28.6821,5.0298M25.0962,5.00145L26.4663,5.00145M27.7514,5.00145L28.6219,5.00145M25.0962,4.9731L26.4474,4.9731M27.7703,4.9731L28.5616,4.9731M25.0962,4.94476L26.4285,4.94476M27.7892,4.94476L28.5013,4.94476M25.0962,4.91641L26.4096,4.91641M27.8081,4.91641L28.4412,4.91641M25.0962,4.88807L26.3907,4.88807M27.8269,4.88807L28.3809,4.88807M25.0962,4.85972L26.3719,4.85972M27.8459,4.85972L28.3207,4.85972M25.0962,4.83137L26.3529,4.83137M27.8647,4.83137L28.2604,4.83137M25.0962,4.80303L26.3341,4.80303M27.8837,4.80303L28.2002,4.80303M25.0962,4.77468L26.3151,4.77468M27.9025,4.77468L28.14,4.77468M25.0962,4.74633L26.2963,4.74633M27.9215,4.74633L28.0797,4.74633M25.0962,4.71799L26.2773,4.71799M27.9403,4.71799L28.0194,4.71799M25.0962,4.68964L26.2585,4.68964M25.0962,4.66129L26.2513,4.66129M25.0962,4.63295L26.2443,4.63295M25.0962,4.6046L26.2372,4.6046M25.0962,4.57626L26.2301,4.57626M25.0962,4.54791L26.223,4.54791M25.0962,4.51956L26.2159,4.51956M25.0962,4.49122L26.2089,4.49122M25.0962,4.46287L26.2017,4.46287M25.0962,4.43452L26.1947,4.43452M25.0962,4.40618L26.1876,4.40618M25.0962,4.37782L26.1805,4.37782M25.0962,4.34948L26.1734,4.34948M25.0962,4.32113L26.1663,4.32113M25.0962,4.29278L26.1593,4.29278M25.0962,4.26444L26.1521,4.26444M25.0962,4.23609L26.1451,4.23609M25.0962,4.20774L26.1451,4.20774M25.0962,4.1794L26.1451,4.1794M25.0962,4.15105L26.1451,4.15105M25.0962,4.12271L26.1451,4.12271M25.0962,4.09436L26.1451,4.09436M25.0962,4.06601L26.1451,4.06601M25.0962,4.03767L26.1451,4.03767M25.0962,4.00932L26.1451,4.00932M25.0962,3.98097L26.1451,3.98097M28.0727,3.98097L29.1498,3.98097M25.0962,3.95263L26.1451,3.95263M28.0691,3.95263L29.1498,3.95263M25.0962,3.92428L26.1451,3.92428M28.0655,3.92428L29.1498,3.92428M25.0962,3.89593L26.1451,3.89593M28.062,3.89593L29.1498,3.89593M25.0962,3.86759L26.1451,3.86759M28.0585,3.86759L29.1498,3.86759M25.0962,3.83924L26.1451,3.83924M28.0549,3.83924L29.1498,3.83924M25.0962,3.8109L26.1451,3.8109M28.0513,3.8109L29.1498,3.8109M25.0962,3.78255L26.1451,3.78255M28.0478,3.78255L29.1498,3.78255M25.0962,3.7542L26.1451,3.7542M28.0443,3.7542L29.1498,3.7542M25.0962,3.72586L26.1521,3.72586M28.0408,3.72586L29.1498,3.72586M25.0962,3.69751L26.1593,3.69751M28.0372,3.69751L29.1498,3.69751M25.0962,3.66916L26.1663,3.66916M28.0336,3.66916L29.1498,3.66916M25.0962,3.64082L26.1734,3.64082M28.0301,3.64082L29.1498,3.64082M25.0962,3.61247L26.1805,3.61247M28.0266,3.61247L29.1498,3.61247M25.0962,3.58412L26.1876,3.58412M28.023,3.58412L29.1437,3.58412M25.0962,3.55578L26.1947,3.55578M28.0194,3.55578L29.1376,3.55578M25.0962,3.52743L26.2017,3.52743M28.0159,3.52743L29.1316,3.52743M25.0962,3.49908L26.2089,3.49908M28.0053,3.49908L29.1255,3.49908M25.0962,3.47074L26.2159,3.47074M27.9947,3.47074L29.1194,3.47074M25.0962,3.44239L26.223,3.44239M27.984,3.44239L29.1133,3.44239M25.0962,3.41405L26.2301,3.41405M27.9734,3.41405L29.1073,3.41405M25.0962,3.3857L26.2372,3.3857M27.9628,3.3857L29.1012,3.3857M25.0962,3.35735L26.2443,3.35735M27.9521,3.35735L29.0951,3.35735M25.0962,3.32901L26.2513,3.32901M27.9415,3.32901L29.0891,3.32901M25.0962,3.30066L26.2585,3.30066M27.9309,3.30066L29.083,3.30066M25.0962,3.27231L26.2706,3.27231M27.9187,3.27231L29.0769,3.27231M25.0962,3.24397L26.2827,3.24397M27.9066,3.24397L29.0708,3.24397M25.0962,3.21562L26.2949,3.21562M27.8945,3.21562L29.0647,3.21562M25.0962,3.18727L26.3071,3.18727M27.8823,3.18727L29.0539,3.18727M25.0962,3.15893L26.3192,3.15893M27.8702,3.15893L29.0429,3.15893M25.0962,3.13058L26.3313,3.13058M27.858,3.13058L29.0321,3.13058M25.0962,3.10224L26.3435,3.10224M27.8459,3.10224L29.0211,3.10224M25.0962,3.07389L26.3671,3.07389M27.8222,3.07389L29.0102,3.07389M25.0962,3.04554L26.3907,3.04554M27.7986,3.04554L28.9994,3.04554M25.0962,3.0172L26.4144,3.0172M27.775,3.0172L28.9884,3.0172M25.0962,2.98885L26.438,2.98885M27.7514,2.98885L28.9776,2.98885M25.0962,2.9605L26.4616,2.9605M27.7278,2.9605L28.9666,2.9605M25.0962,2.93216L26.4852,2.93216M27.7042,2.93216L28.9557,2.93216M25.0962,2.90381L26.5278,2.90381M27.6616,2.90381L28.9448,2.90381M25.0962,2.87546L26.5702,2.87546M27.6191,2.87546L28.9339,2.87546M25.0962,2.84712L26.6128,2.84712M27.5766,2.84712L28.923,2.84712M25.0962,2.81877L26.6553,2.81877M27.534,2.81877L28.9065,2.81877M25.0962,2.79042L26.7214,2.79042M27.4679,2.79042L28.8899,2.79042M25.0962,2.76208L26.7876,2.76208M27.4018,2.76208L28.8734,2.76208M25.0962,2.73373L26.8538,2.73373M27.3356,2.73373L28.8569,2.73373M25.0962,2.70539L28.8403,2.70539M25.0962,2.67704L28.8238,2.67704M25.0962,2.64869L28.8073,2.64869M25.0962,2.62035L28.7907,2.62035M25.0962,2.592L28.7742,2.592M25.0962,2.56365L28.7577,2.56365M25.0962,2.53531L28.7411,2.53531M25.0962,2.50696L28.7246,2.50696M25.0962,2.47861L26.1451,2.47861M26.1451,2.47861L28.6962,2.47861M25.0962,2.45027L26.1451,2.45027M26.1678,2.45027L28.6679,2.45027M25.0962,2.42192L26.1451,2.42192M26.1904,2.42192L28.6396,2.42192M25.0962,2.39358L26.1451,2.39358M26.2131,2.39358L28.6112,2.39358M25.0962,2.36523L26.1451,2.36523M26.2358,2.36523L28.5828,2.36523M25.0962,2.33688L26.1451,2.33688M26.2585,2.33688L28.5546,2.33688M25.0962,2.30854L26.1451,2.30854M26.2812,2.30854L28.5262,2.30854M25.0962,2.28019L26.1451,2.28019M26.3038,2.28019L28.4978,2.28019M25.0962,2.25184L26.1451,2.25184M26.3265,2.25184L28.4694,2.25184M25.0962,2.2235L26.1451,2.2235M26.3492,2.2235L28.425,2.2235M25.0962,2.19515L26.1451,2.19515M26.3719,2.19515L28.3804,2.19515M25.0962,2.1668L26.1451,2.1668M26.4191,2.1668L28.3358,2.1668M25.238,2.13846L26.1451,2.13846M26.4663,2.13846L28.2913,2.13846M25.3513,2.11011L26.1451,2.11011M26.5136,2.11011L28.2468,2.11011M25.6065,2.08176L26.1451,2.08176M26.5608,2.08176L28.2022,2.08176M25.7482,2.05342L26.1451,2.05342M26.608,2.05342L28.1577,2.05342M25.89,2.02507L26.1451,2.02507M26.6553,2.02507L28.084,2.02507M26.0033,1.99673L26.1451,1.99673M26.712,1.99673L28.0102,1.99673M26.7687,1.96838L27.9366,1.96838M26.8254,1.94003L27.8628,1.94003M26.9955,1.91169L27.7892,1.91169M27.1655,1.88334L27.5624,1.88334"/>
    </g>
    <g >
     <title >polygon</title>
     <path  fill="none" stroke="white" stroke-linecap="round" stroke-width="0.0283465" d="M30.8223,3.69751L31.0774,3.64082M31.0774,3.64082L31.3325,3.61247M31.3325,3.61247L31.5593,3.58412M31.5593,3.58412L31.6727,4.1794M31.6727,4.1794L31.6159,4.20774M31.6159,4.20774L31.5025,4.20774M31.5025,4.20774L31.4175,4.23609M31.4175,4.23609L31.3042,4.23609M31.3042,4.23609L31.2191,4.26444M31.2191,4.26444L31.1624,4.26444M31.1624,4.26444L31.1057,4.29278M31.1057,4.29278L31.049,4.29278M31.049,4.29278L30.8223,3.69751M31.049,4.29278L31.1057,4.29278M31.0382,4.26444L31.2191,4.26444M31.0274,4.23609L31.4175,4.23609M31.0166,4.20774L31.6159,4.20774M31.0058,4.1794L31.6727,4.1794M30.995,4.15105L31.6673,4.15105M30.9842,4.12271L31.6619,4.12271M30.9734,4.09436L31.6565,4.09436M30.9626,4.06601L31.6511,4.06601M30.9518,4.03767L31.6457,4.03767M30.941,4.00932L31.6403,4.00932M30.9302,3.98097L31.6349,3.98097M30.9195,3.95263L31.6295,3.95263M30.9087,3.92428L31.6241,3.92428M30.8979,3.89593L31.6187,3.89593M30.8871,3.86759L31.6133,3.86759M30.8763,3.83924L31.6079,3.83924M30.8655,3.8109L31.6025,3.8109M30.8547,3.78255L31.5971,3.78255M30.8439,3.7542L31.5917,3.7542M30.8331,3.72586L31.5863,3.72586M30.8223,3.69751L31.5809,3.69751M30.9498,3.66916L31.5755,3.66916M31.0774,3.64082L31.5701,3.64082M31.3325,3.61247L31.5647,3.61247"/>
    </g>
    <g >
     <title >polygon</title>
     <path  fill="none" stroke="white" stroke-linecap="round" stroke-width="0.0283465" d="M31.049,4.29278L30.9923,4.32113M30.9923,4.32113L30.9356,4.34948M30.9356,4.34948L30.8789,4.37782M30.8789,4.37782L30.8223,4.40618M30.8223,4.40618L30.7655,4.43452M30.7655,4.43452L30.7372,4.46287M30.7372,4.46287L30.7089,4.49122M30.7089,4.49122L30.6521,4.54791M30.6521,4.54791L30.6238,4.6046M30.6238,4.6046L30.5955,4.66129M30.5955,4.66129L30.5955,4.77468M30.5955,4.77468L30.5671,4.85972M30.5671,4.85972L30.5955,4.91641M30.5955,4.91641L30.5955,4.9731M30.5955,4.9731L30.6238,5.05814M30.6238,5.05814L30.6238,5.08649M30.6238,5.08649L30.6521,5.14318M30.6521,5.14318L30.7089,5.19988M30.7089,5.19988L30.7372,5.22822M30.7372,5.22822L30.7939,5.25657M30.7939,5.25657L30.8223,5.28492M30.8223,5.28492L30.8789,5.31326M30.8789,5.31326L30.9356,5.31326M30.9356,5.31326L30.9923,5.34161M30.9923,5.34161L31.4175,5.34161M31.4175,5.34161L31.5309,5.31326M31.5309,5.31326L31.6443,5.28492M31.6443,5.28492L31.7577,5.25657M31.7577,5.25657L31.8427,5.19988M31.8427,5.19988L31.9278,5.11484M31.9278,5.11484L31.9844,5.05814M31.9844,5.05814L32.0128,4.9731M32.0128,4.9731L32.0694,4.91641M32.0694,4.91641L32.0978,4.83137M32.0978,4.83137L32.0978,4.74633M32.0978,4.74633L32.1262,4.68964M32.1262,4.68964L32.1262,4.6046M32.1262,4.6046L32.1546,4.54791M32.1546,4.54791L32.1546,4.00932M32.1546,4.00932L32.0978,4.03767M32.0978,4.03767L32.0694,4.06601M32.0694,4.06601L32.0128,4.09436M32.0128,4.09436L31.9844,4.12271M31.9844,4.12271L31.9278,4.12271M31.9278,4.12271L31.8711,4.15105M31.8711,4.15105L31.8144,4.1794M31.8144,4.1794L31.6727,4.1794M31.6727,4.1794L31.5593,3.58412M31.5593,3.58412L31.7577,3.55578M31.7577,3.55578L31.9278,3.49908M31.9278,3.49908L32.0412,3.41405M32.0412,3.41405L32.1262,3.30066M32.1262,3.30066L32.1546,3.15893M32.1546,3.15893L32.1546,3.07389M32.1546,3.07389L32.1262,2.98885M32.1262,2.98885L32.1262,2.93216M32.1262,2.93216L32.0978,2.87546M32.0978,2.87546L32.0694,2.81877M32.0694,2.81877L32.0128,2.76208M32.0128,2.76208L31.9844,2.73373M31.9844,2.73373L31.9278,2.70539M31.9278,2.70539L31.8711,2.67704M31.8711,2.67704L31.8144,2.64869M31.8144,2.64869L31.7577,2.64869M31.7577,2.64869L31.701,2.62035M31.701,2.62035L31.5025,2.62035M31.5025,2.62035L31.4459,2.592M31.4459,2.592L31.3608,2.62035M31.3608,2.62035L31.2191,2.62035M31.2191,2.62035L31.134,2.64869M31.134,2.64869L31.0774,2.64869M31.0774,2.64869L31.0207,2.67704M31.0207,2.67704L30.964,2.70539M30.964,2.70539L30.9356,2.73373M30.9356,2.73373L30.8789,2.79042M30.8789,2.79042L30.8506,2.81877M30.8506,2.81877L30.7939,2.87546M30.7939,2.87546L30.7655,2.93216M30.7655,2.93216L30.7372,2.98885M30.7372,2.98885L30.7372,3.07389M30.7372,3.07389L30.7089,3.13058M30.7089,3.13058L30.7089,3.21562M30.7089,3.21562L29.6033,3.21562M29.6033,3.21562L29.6317,3.0172M29.6317,3.0172L29.66,2.87546M29.66,2.87546L29.7167,2.70539M29.7167,2.70539L29.8017,2.56365M29.8017,2.56365L29.8868,2.45027M29.8868,2.45027L30.0002,2.33688M30.0002,2.33688L30.1136,2.25184M30.1136,2.25184L30.227,2.1668M30.227,2.1668L30.3687,2.08176M30.3687,2.08176L30.5104,2.02507M30.5104,2.02507L30.6521,1.96838M30.6521,1.96838L30.8223,1.94003M30.8223,1.94003L30.9923,1.91169M30.9923,1.91169L31.1624,1.88334M31.1624,1.88334L31.786,1.88334M31.786,1.88334L31.9561,1.91169M31.9561,1.91169L32.0978,1.91169M32.0978,1.91169L32.2396,1.94003M32.2396,1.94003L32.4096,1.99673M32.4096,1.99673L32.523,2.02507M32.523,2.02507L32.6647,2.08176M32.6647,2.08176L32.7781,2.13846M32.7781,2.13846L32.8915,2.2235M32.8915,2.2235L33.0049,2.33688M33.0049,2.33688L33.09,2.42192M33.09,2.42192L33.1466,2.56365M33.1466,2.56365L33.2033,2.67704M33.2033,2.67704L33.2317,2.84712M33.2317,2.84712L33.26,3.0172M33.26,3.0172L33.26,5.56838M33.26,5.56838L33.2884,5.62507M33.2884,5.62507L33.2884,5.73846M33.2884,5.73846L33.3167,5.79515M33.3167,5.79515L33.3167,5.8235M33.3167,5.8235L33.3451,5.88019M33.3451,5.88019L33.3451,5.90854M33.3451,5.90854L33.3734,5.96523M33.3734,5.96523L33.3734,5.99358M33.3734,5.99358L32.2679,5.99358M32.2679,5.99358L32.2679,5.93688M32.2679,5.93688L32.2396,5.90854M32.2396,5.90854L32.2396,5.88019M32.2396,5.88019L32.2112,5.85184M32.2112,5.85184L32.2112,5.68176M32.2112,5.68176L32.1828,5.65342M32.1828,5.65342L32.1828,5.59673M32.1828,5.59673L32.1262,5.65342M32.1262,5.65342L32.0694,5.73846M32.0694,5.73846L31.9844,5.79515M31.9844,5.79515L31.8994,5.8235M31.8994,5.8235L31.8144,5.88019M31.8144,5.88019L31.7577,5.90854M31.7577,5.90854L31.6727,5.96523M31.6727,5.96523L31.5876,5.99358M31.5876,5.99358L31.4742,6.02192M31.4742,6.02192L31.3892,6.05027M31.3892,6.05027L31.3042,6.05027M31.3042,6.05027L31.2191,6.07861M31.2191,6.07861L31.0207,6.07861M31.0207,6.07861L30.9356,6.10696M30.9356,6.10696L30.7089,6.10696M30.7089,6.10696L30.5671,6.07861M30.5671,6.07861L30.4254,6.07861M30.4254,6.07861L30.312,6.02192M30.312,6.02192L30.1986,5.99358M30.1986,5.99358L30.0852,5.93688M30.0852,5.93688L29.9719,5.88019M29.9719,5.88019L29.8868,5.8235M29.8868,5.8235L29.8017,5.73846M29.8017,5.73846L29.7167,5.65342M29.7167,5.65342L29.6317,5.54003M29.6317,5.54003L29.575,5.42665M29.575,5.42665L29.5466,5.31326M29.5466,5.31326L29.5183,5.19988M29.5183,5.19988L29.49,5.05814M29.49,5.05814L29.49,4.91641M29.49,4.91641L29.5183,4.6046M29.5183,4.6046L29.6033,4.34948M29.6033,4.34948L29.7451,4.15105M29.7451,4.15105L29.9151,3.98097M29.9151,3.98097L30.1136,3.86759M30.1136,3.86759L30.3404,3.78255M30.3404,3.78255L30.5955,3.72586M30.5955,3.72586L30.8223,3.69751M30.8223,3.69751L31.049,4.29278M30.7089,6.10696L30.9356,6.10696M30.4254,6.07861L31.2191,6.07861M30.3687,6.05027L31.3892,6.05027M30.312,6.02192L31.4742,6.02192M30.1986,5.99358L31.5876,5.99358M32.2679,5.99358L33.3734,5.99358M30.1419,5.96523L31.6727,5.96523M32.2679,5.96523L33.3734,5.96523M30.0852,5.93688L31.7151,5.93688M32.2679,5.93688L33.3593,5.93688M30.0285,5.90854L31.7577,5.90854M32.2396,5.90854L33.3451,5.90854M29.9719,5.88019L31.8144,5.88019M32.2396,5.88019L33.3451,5.88019M29.9293,5.85184L31.8569,5.85184M32.2112,5.85184L33.3309,5.85184M29.8868,5.8235L31.8994,5.8235M32.2112,5.8235L33.3167,5.8235M29.8585,5.79515L31.9844,5.79515M32.2112,5.79515L33.3167,5.79515M29.8301,5.7668L32.027,5.7668M32.2112,5.7668L33.3025,5.7668M29.8017,5.73846L32.0694,5.73846M32.2112,5.73846L33.2884,5.73846M29.7734,5.71011L32.0884,5.71011M32.2112,5.71011L33.2884,5.71011M29.7451,5.68176L32.1072,5.68176M32.2112,5.68176L33.2884,5.68176M29.7167,5.65342L32.1262,5.65342M32.1828,5.65342L33.2884,5.65342M29.6955,5.62507L32.1546,5.62507M32.1828,5.62507L33.2884,5.62507M29.6742,5.59673L33.2742,5.59673M29.6529,5.56838L33.26,5.56838M29.6317,5.54003L33.26,5.54003M29.6175,5.51169L33.26,5.51169M29.6033,5.48334L33.26,5.48334M29.5892,5.45499L33.26,5.45499M29.575,5.42665L33.26,5.42665M29.5679,5.3983L33.26,5.3983M29.5608,5.36995L33.26,5.36995M29.5538,5.34161L30.9923,5.34161M31.4175,5.34161L33.26,5.34161M29.5466,5.31326L30.8789,5.31326M31.5309,5.31326L33.26,5.31326M29.5396,5.28492L30.8223,5.28492M31.6443,5.28492L33.26,5.28492M29.5325,5.25657L30.7939,5.25657M31.7577,5.25657L33.26,5.25657M29.5254,5.22822L30.7372,5.22822M31.8002,5.22822L33.26,5.22822M29.5183,5.19988L30.7089,5.19988M31.8427,5.19988L33.26,5.19988M29.5127,5.17153L30.6805,5.17153M31.8711,5.17153L33.26,5.17153M29.507,5.14318L30.6521,5.14318M31.8994,5.14318L33.26,5.14318M29.5013,5.11484L30.638,5.11484M31.9278,5.11484L33.26,5.11484M29.4956,5.08649L30.6238,5.08649M31.9561,5.08649L33.26,5.08649M29.49,5.05814L30.6238,5.05814M31.9844,5.05814L33.26,5.05814M29.49,5.0298L30.6143,5.0298M31.9938,5.0298L33.26,5.0298M29.49,5.00145L30.6049,5.00145M32.0034,5.00145L33.26,5.00145M29.49,4.9731L30.5955,4.9731M32.0128,4.9731L33.26,4.9731M29.49,4.94476L30.5955,4.94476M32.0412,4.94476L33.26,4.94476M29.49,4.91641L30.5955,4.91641M32.0694,4.91641L33.26,4.91641M29.4925,4.88807L30.5813,4.88807M32.079,4.88807L33.26,4.88807M29.4951,4.85972L30.5671,4.85972M32.0884,4.85972L33.26,4.85972M29.4977,4.83137L30.5766,4.83137M32.0978,4.83137L33.26,4.83137M29.5003,4.80303L30.586,4.80303M32.0978,4.80303L33.26,4.80303M29.5029,4.77468L30.5955,4.77468M32.0978,4.77468L33.26,4.77468M29.5054,4.74633L30.5955,4.74633M32.0978,4.74633L33.26,4.74633M29.508,4.71799L30.5955,4.71799M32.112,4.71799L33.26,4.71799M29.5106,4.68964L30.5955,4.68964M32.1262,4.68964L33.26,4.68964M29.5132,4.66129L30.5955,4.66129M32.1262,4.66129L33.26,4.66129M29.5158,4.63295L30.6096,4.63295M32.1262,4.63295L33.26,4.63295M29.5183,4.6046L30.6238,4.6046M32.1262,4.6046L33.26,4.6046M29.5278,4.57626L30.638,4.57626M32.1404,4.57626L33.26,4.57626M29.5372,4.54791L30.6521,4.54791M32.1546,4.54791L33.26,4.54791M29.5466,4.51956L30.6805,4.51956M32.1546,4.51956L33.26,4.51956M29.5561,4.49122L30.7089,4.49122M32.1546,4.49122L33.26,4.49122M29.5656,4.46287L30.7372,4.46287M32.1546,4.46287L33.26,4.46287M29.575,4.43452L30.7655,4.43452M32.1546,4.43452L33.26,4.43452M29.5844,4.40618L30.8223,4.40618M32.1546,4.40618L33.26,4.40618M29.5939,4.37782L30.8789,4.37782M32.1546,4.37782L33.26,4.37782M29.6033,4.34948L30.9356,4.34948M32.1546,4.34948L33.26,4.34948M29.6236,4.32113L30.9923,4.32113M32.1546,4.32113L33.26,4.32113M29.6438,4.29278L31.049,4.29278M32.1546,4.29278L33.26,4.29278M29.6641,4.26444L31.0382,4.26444M32.1546,4.26444L33.26,4.26444M29.6843,4.23609L31.0274,4.23609M32.1546,4.23609L33.26,4.23609M29.7045,4.20774L31.0166,4.20774M32.1546,4.20774L33.26,4.20774M29.7248,4.1794L31.0058,4.1794M31.6727,4.1794L31.8144,4.1794M32.1546,4.1794L33.26,4.1794M29.7451,4.15105L30.995,4.15105M31.6673,4.15105L31.8711,4.15105M32.1546,4.15105L33.26,4.15105M29.7734,4.12271L30.9842,4.12271M31.6619,4.12271L31.9844,4.12271M32.1546,4.12271L33.26,4.12271M29.8017,4.09436L30.9734,4.09436M31.6565,4.09436L32.0128,4.09436M32.1546,4.09436L33.26,4.09436M29.8301,4.06601L30.9626,4.06601M31.6511,4.06601L32.0694,4.06601M32.1546,4.06601L33.26,4.06601M29.8585,4.03767L30.9518,4.03767M31.6457,4.03767L32.0978,4.03767M32.1546,4.03767L33.26,4.03767M29.8868,4.00932L30.941,4.00932M31.6403,4.00932L33.26,4.00932M29.9151,3.98097L30.9302,3.98097M31.6349,3.98097L33.26,3.98097M29.9647,3.95263L30.9194,3.95263M31.6295,3.95263L33.26,3.95263M30.0144,3.92428L30.9086,3.92428M31.6241,3.92428L33.26,3.92428M30.064,3.89593L30.8978,3.89593M31.6187,3.89593L33.26,3.89593M30.1136,3.86759L30.887,3.86759M31.6133,3.86759L33.26,3.86759M30.1892,3.83924L30.8762,3.83924M31.6079,3.83924L33.26,3.83924M30.2648,3.8109L30.8655,3.8109M31.6025,3.8109L33.26,3.8109M30.3404,3.78255L30.8547,3.78255M31.5971,3.78255L33.26,3.78255M30.4679,3.7542L30.8439,3.7542M31.5917,3.7542L33.26,3.7542M30.5955,3.72586L30.8331,3.72586M31.5863,3.72586L33.26,3.72586M31.5809,3.69751L33.26,3.69751M31.5755,3.66916L33.26,3.66916M31.5701,3.64082L33.26,3.64082M31.5647,3.61247L33.26,3.61247M31.5593,3.58412L33.26,3.58412M31.7577,3.55578L33.26,3.55578M31.8427,3.52743L33.26,3.52743M31.9278,3.49908L33.26,3.49908M31.9656,3.47074L33.26,3.47074M32.0034,3.44239L33.26,3.44239M32.0412,3.41405L33.26,3.41405M32.0624,3.3857L33.26,3.3857M32.0836,3.35735L33.26,3.35735M32.1049,3.32901L33.26,3.32901M32.1262,3.30066L33.26,3.30066M32.1319,3.27231L33.26,3.27231M32.1375,3.24397L33.26,3.24397M29.6033,3.21562L30.7089,3.21562M32.1432,3.21562L33.26,3.21562M29.6074,3.18727L30.7089,3.18727M32.1489,3.18727L33.26,3.18727M29.6114,3.15893L30.7089,3.15893M32.1546,3.15893L33.26,3.15893M29.6155,3.13058L30.7089,3.13058M32.1546,3.13058L33.26,3.13058M29.6195,3.10224L30.723,3.10224M32.1546,3.10224L33.26,3.10224M29.6236,3.07389L30.7372,3.07389M32.1546,3.07389L33.26,3.07389M29.6276,3.04554L30.7372,3.04554M32.145,3.04554L33.26,3.04554M29.6317,3.0172L30.7372,3.0172M32.1356,3.0172L33.26,3.0172M29.6374,2.98885L30.7372,2.98885M32.1262,2.98885L33.2553,2.98885M29.643,2.9605L30.7513,2.9605M32.1262,2.9605L33.2506,2.9605M29.6487,2.93216L30.7655,2.93216M32.1262,2.93216L33.2459,2.93216M29.6544,2.90381L30.7797,2.90381M32.112,2.90381L33.2411,2.90381M29.66,2.87546L30.7939,2.87546M32.0978,2.87546L33.2364,2.87546M29.6695,2.84712L30.8223,2.84712M32.0836,2.84712L33.2317,2.84712M29.6789,2.81877L30.8506,2.81877M32.0694,2.81877L33.2269,2.81877M29.6884,2.79042L30.8789,2.79042M32.0412,2.79042L33.2222,2.79042M29.6978,2.76208L30.9073,2.76208M32.0128,2.76208L33.2175,2.76208M29.7073,2.73373L30.9356,2.73373M31.9844,2.73373L33.2128,2.73373M29.7167,2.70539L30.964,2.70539M31.9278,2.70539L33.2081,2.70539M29.7338,2.67704L31.0207,2.67704M31.8711,2.67704L33.2033,2.67704M29.7508,2.64869L31.134,2.64869M31.7577,2.64869L33.1892,2.64869M29.7678,2.62035L31.3608,2.62035M31.5025,2.62035L33.175,2.62035M29.7847,2.592L33.1608,2.592M29.8017,2.56365L33.1466,2.56365M29.823,2.53531L33.1353,2.53531M29.8443,2.50696L33.124,2.50696M29.8655,2.47861L33.1127,2.47861M29.8868,2.45027L33.1013,2.45027M29.9151,2.42192L33.09,2.42192M29.9435,2.39358L33.0616,2.39358M29.9719,2.36523L33.0332,2.36523M30.0002,2.33688L33.0049,2.33688M30.038,2.30854L32.9766,2.30854M30.0758,2.28019L32.9482,2.28019M30.1136,2.25184L32.9198,2.25184M30.1514,2.2235L32.8915,2.2235M30.1892,2.19515L32.8537,2.19515M30.227,2.1668L32.8159,2.1668M30.2742,2.13846L32.7781,2.13846M30.3214,2.11011L32.7215,2.11011M30.3687,2.08176L32.6647,2.08176M30.4396,2.05342L32.5939,2.05342M30.5104,2.02507L32.523,2.02507M30.5813,1.99673L32.4096,1.99673M30.6521,1.96838L32.3246,1.96838M30.8223,1.94003L32.2396,1.94003M30.9923,1.91169L31.9561,1.91169"/>
    </g>
    <g >
     <title >polygon</title>
     <path  fill="none" stroke="white" stroke-linecap="round" stroke-width="0.0283465" d="M33.8553,2.1668L33.997,2.13846M33.997,2.13846L34.1388,2.11011M34.1388,2.11011L34.2521,2.08176M34.2521,2.08176L34.3939,2.08176M34.3939,2.08176L34.5356,2.05342M34.5356,2.05342L34.649,2.02507M34.649,2.02507L34.7908,1.99673M34.7908,1.99673L34.9042,1.96838M34.9042,1.96838L34.9042,2.73373M34.9042,2.73373L34.9325,2.73373M34.9325,2.73373L35.0175,2.53531M35.0175,2.53531L35.1309,2.36523M35.1309,2.36523L35.2727,2.2235M35.2727,2.2235L35.4427,2.11011M35.4427,2.11011L35.6128,1.99673M35.6128,1.99673L35.8112,1.94003M35.8112,1.94003L36.0096,1.88334M36.0096,1.88334L36.4065,1.88334M36.4065,1.88334L36.4348,1.91169M36.4348,1.91169L36.4348,2.93216M36.4348,2.93216L36.4065,2.93216M36.4065,2.93216L36.3498,2.90381M36.3498,2.90381L36.038,2.90381M36.038,2.90381L35.7546,2.93216M35.7546,2.93216L35.5278,2.98885M35.5278,2.98885L35.3577,3.10224M35.3577,3.10224L35.1876,3.27231M35.1876,3.27231L35.1025,3.47074M35.1025,3.47074L35.0175,3.66916M35.0175,3.66916L34.9608,3.92428M34.9608,3.92428L34.9608,5.99358M34.9608,5.99358L33.8553,5.99358M33.8553,5.99358L33.8553,2.64869M33.8553,2.64869L33.8553,2.1668M33.8553,5.99358L34.9608,5.99358M33.8553,5.96523L34.9608,5.96523M33.8553,5.93688L34.9608,5.93688M33.8553,5.90854L34.9608,5.90854M33.8553,5.88019L34.9608,5.88019M33.8553,5.85184L34.9608,5.85184M33.8553,5.8235L34.9608,5.8235M33.8553,5.79515L34.9608,5.79515M33.8553,5.7668L34.9608,5.7668M33.8553,5.73846L34.9608,5.73846M33.8553,5.71011L34.9608,5.71011M33.8553,5.68176L34.9608,5.68176M33.8553,5.65342L34.9608,5.65342M33.8553,5.62507L34.9608,5.62507M33.8553,5.59673L34.9608,5.59673M33.8553,5.56838L34.9608,5.56838M33.8553,5.54003L34.9608,5.54003M33.8553,5.51169L34.9608,5.51169M33.8553,5.48334L34.9608,5.48334M33.8553,5.45499L34.9608,5.45499M33.8553,5.42665L34.9608,5.42665M33.8553,5.3983L34.9608,5.3983M33.8553,5.36995L34.9608,5.36995M33.8553,5.34161L34.9608,5.34161M33.8553,5.31326L34.9608,5.31326M33.8553,5.28492L34.9608,5.28492M33.8553,5.25657L34.9608,5.25657M33.8553,5.22822L34.9608,5.22822M33.8553,5.19988L34.9608,5.19988M33.8553,5.17153L34.9608,5.17153M33.8553,5.14318L34.9608,5.14318M33.8553,5.11484L34.9608,5.11484M33.8553,5.08649L34.9608,5.08649M33.8553,5.05814L34.9608,5.05814M33.8553,5.0298L34.9608,5.0298M33.8553,5.00145L34.9608,5.00145M33.8553,4.9731L34.9608,4.9731M33.8553,4.94476L34.9608,4.94476M33.8553,4.91641L34.9608,4.91641M33.8553,4.88807L34.9608,4.88807M33.8553,4.85972L34.9608,4.85972M33.8553,4.83137L34.9608,4.83137M33.8553,4.80303L34.9608,4.80303M33.8553,4.77468L34.9608,4.77468M33.8553,4.74633L34.9608,4.74633M33.8553,4.71799L34.9608,4.71799M33.8553,4.68964L34.9608,4.68964M33.8553,4.66129L34.9608,4.66129M33.8553,4.63295L34.9608,4.63295M33.8553,4.6046L34.9608,4.6046M33.8553,4.57626L34.9608,4.57626M33.8553,4.54791L34.9608,4.54791M33.8553,4.51956L34.9608,4.51956M33.8553,4.49122L34.9608,4.49122M33.8553,4.46287L34.9608,4.46287M33.8553,4.43452L34.9608,4.43452M33.8553,4.40618L34.9608,4.40618M33.8553,4.37782L34.9608,4.37782M33.8553,4.34948L34.9608,4.34948M33.8553,4.32113L34.9608,4.32113M33.8553,4.29278L34.9608,4.29278M33.8553,4.26444L34.9608,4.26444M33.8553,4.23609L34.9608,4.23609M33.8553,4.20774L34.9608,4.20774M33.8553,4.1794L34.9608,4.1794M33.8553,4.15105L34.9608,4.15105M33.8553,4.12271L34.9608,4.12271M33.8553,4.09436L34.9608,4.09436M33.8553,4.06601L34.9608,4.06601M33.8553,4.03767L34.9608,4.03767M33.8553,4.00932L34.9608,4.00932M33.8553,3.98097L34.9608,3.98097M33.8553,3.95263L34.9608,3.95263M33.8553,3.92428L34.9608,3.92428M33.8553,3.89593L34.9672,3.89593M33.8553,3.86759L34.9734,3.86759M33.8553,3.83924L34.9797,3.83924M33.8553,3.8109L34.986,3.8109M33.8553,3.78255L34.9923,3.78255M33.8553,3.7542L34.9986,3.7542M33.8553,3.72586L35.0049,3.72586M33.8553,3.69751L35.0112,3.69751M33.8553,3.66916L35.0175,3.66916M33.8553,3.64082L35.0297,3.64082M33.8553,3.61247L35.0418,3.61247M33.8553,3.58412L35.054,3.58412M33.8553,3.55578L35.0661,3.55578M33.8553,3.52743L35.0783,3.52743M33.8553,3.49908L35.0904,3.49908M33.8553,3.47074L35.1025,3.47074M33.8553,3.44239L35.1147,3.44239M33.8553,3.41405L35.1269,3.41405M33.8553,3.3857L35.139,3.3857M33.8553,3.35735L35.1511,3.35735M33.8553,3.32901L35.1633,3.32901M33.8553,3.30066L35.1755,3.30066M33.8553,3.27231L35.1876,3.27231M33.8553,3.24397L35.2159,3.24397M33.8553,3.21562L35.2443,3.21562M33.8553,3.18727L35.2727,3.18727M33.8553,3.15893L35.301,3.15893M33.8553,3.13058L35.3293,3.13058M33.8553,3.10224L35.3577,3.10224M33.8553,3.07389L35.4002,3.07389M33.8553,3.04554L35.4427,3.04554M33.8553,3.0172L35.4852,3.0172M33.8553,2.98885L35.5278,2.98885M33.8553,2.9605L35.6412,2.9605M33.8553,2.93216L35.7546,2.93216M36.4065,2.93216L36.4348,2.93216M33.8553,2.90381L36.4348,2.90381M33.8553,2.87546L36.4348,2.87546M33.8553,2.84712L36.4348,2.84712M33.8553,2.81877L36.4348,2.81877M33.8553,2.79042L36.4348,2.79042M33.8553,2.76208L36.4348,2.76208M33.8553,2.73373L34.9042,2.73373M34.9325,2.73373L36.4348,2.73373M33.8553,2.70539L34.9042,2.70539M34.9446,2.70539L36.4348,2.70539M33.8553,2.67704L34.9042,2.67704M34.9568,2.67704L36.4348,2.67704M33.8553,2.64869L34.9042,2.64869M34.9689,2.64869L36.4348,2.64869M33.8553,2.62035L34.9042,2.62035M34.9811,2.62035L36.4348,2.62035M33.8553,2.592L34.9042,2.592M34.9932,2.592L36.4348,2.592M33.8553,2.56365L34.9042,2.56365M35.0054,2.56365L36.4348,2.56365M33.8553,2.53531L34.9042,2.53531M35.0175,2.53531L36.4348,2.53531M33.8553,2.50696L34.9042,2.50696M35.0364,2.50696L36.4348,2.50696M33.8553,2.47861L34.9042,2.47861M35.0553,2.47861L36.4348,2.47861M33.8553,2.45027L34.9042,2.45027M35.0742,2.45027L36.4348,2.45027M33.8553,2.42192L34.9042,2.42192M35.0931,2.42192L36.4348,2.42192M33.8553,2.39358L34.9042,2.39358M35.112,2.39358L36.4348,2.39358M33.8553,2.36523L34.9042,2.36523M35.1309,2.36523L36.4348,2.36523M33.8553,2.33688L34.9042,2.33688M35.1593,2.33688L36.4348,2.33688M33.8553,2.30854L34.9042,2.30854M35.1876,2.30854L36.4348,2.30854M33.8553,2.28019L34.9042,2.28019M35.2159,2.28019L36.4348,2.28019M33.8553,2.25184L34.9042,2.25184M35.2443,2.25184L36.4348,2.25184M33.8553,2.2235L34.9042,2.2235M35.2727,2.2235L36.4348,2.2235M33.8553,2.19515L34.9042,2.19515M35.3151,2.19515L36.4348,2.19515M33.8553,2.1668L34.9042,2.1668M35.3577,2.1668L36.4348,2.1668M33.997,2.13846L34.9042,2.13846M35.4002,2.13846L36.4348,2.13846M34.1388,2.11011L34.9042,2.11011M35.4427,2.11011L36.4348,2.11011M34.3939,2.08176L34.9042,2.08176M35.4852,2.08176L36.4348,2.08176M34.5356,2.05342L34.9042,2.05342M35.5278,2.05342L36.4348,2.05342M34.649,2.02507L34.9042,2.02507M35.5702,2.02507L36.4348,2.02507M34.7908,1.99673L34.9042,1.99673M35.6128,1.99673L36.4348,1.99673M35.712,1.96838L36.4348,1.96838M35.8112,1.94003L36.4348,1.94003M35.9104,1.91169L36.4348,1.91169"/>
    </g>
    <g >
     <title >polygon</title>
     <path  fill="none" stroke="white" stroke-linecap="round" stroke-width="0.0283465" d="M36.8884,1.06129L37.9655,0.437669M37.9655,0.437669L37.9655,3.41405M37.9655,3.41405L39.3546,1.96838M39.3546,1.96838L40.6585,1.96838M40.6585,1.96838L39.1561,3.44239M39.1561,3.44239L40.8285,5.99358M40.8285,5.99358L39.4962,5.99358M39.4962,5.99358L38.3908,4.1794M38.3908,4.1794L37.9655,4.6046M37.9655,4.6046L37.9655,5.99358M37.9655,5.99358L36.8884,5.99358M36.8884,5.99358L36.8884,1.06129M36.8884,5.99358L37.9655,5.99358M39.4962,5.99358L40.8285,5.99358M36.8884,5.96523L37.9655,5.96523M39.479,5.96523L40.81,5.96523M36.8884,5.93688L37.9655,5.93688M39.4617,5.93688L40.7914,5.93688M36.8884,5.90854L37.9655,5.90854M39.4444,5.90854L40.7728,5.90854M36.8884,5.88019L37.9655,5.88019M39.4271,5.88019L40.7542,5.88019M36.8884,5.85184L37.9655,5.85184M39.4098,5.85184L40.7357,5.85184M36.8884,5.8235L37.9655,5.8235M39.3926,5.8235L40.717,5.8235M36.8884,5.79515L37.9655,5.79515M39.3754,5.79515L40.6984,5.79515M36.8884,5.7668L37.9655,5.7668M39.3581,5.7668L40.6799,5.7668M36.8884,5.73846L37.9655,5.73846M39.3408,5.73846L40.6613,5.73846M36.8884,5.71011L37.9655,5.71011M39.3235,5.71011L40.6427,5.71011M36.8884,5.68176L37.9655,5.68176M39.3062,5.68176L40.6241,5.68176M36.8884,5.65342L37.9655,5.65342M39.289,5.65342L40.6056,5.65342M36.8884,5.62507L37.9655,5.62507M39.2717,5.62507L40.587,5.62507M36.8884,5.59673L37.9655,5.59673M39.2544,5.59673L40.5684,5.59673M36.8884,5.56838L37.9655,5.56838M39.2371,5.56838L40.5498,5.56838M36.8884,5.54003L37.9655,5.54003M39.2198,5.54003L40.5312,5.54003M36.8884,5.51169L37.9655,5.51169M39.2026,5.51169L40.5126,5.51169M36.8884,5.48334L37.9655,5.48334M39.1854,5.48334L40.494,5.48334M36.8884,5.45499L37.9655,5.45499M39.1681,5.45499L40.4754,5.45499M36.8884,5.42665L37.9655,5.42665M39.1508,5.42665L40.4569,5.42665M36.8884,5.3983L37.9655,5.3983M39.1335,5.3983L40.4383,5.3983M36.8884,5.36995L37.9655,5.36995M39.1162,5.36995L40.4197,5.36995M36.8884,5.34161L37.9655,5.34161M39.099,5.34161L40.4011,5.34161M36.8884,5.31326L37.9655,5.31326M39.0817,5.31326L40.3826,5.31326M36.8884,5.28492L37.9655,5.28492M39.0644,5.28492L40.364,5.28492M36.8884,5.25657L37.9655,5.25657M39.0471,5.25657L40.3453,5.25657M36.8884,5.22822L37.9655,5.22822M39.0298,5.22822L40.3268,5.22822M36.8884,5.19988L37.9655,5.19988M39.0126,5.19988L40.3082,5.19988M36.8884,5.17153L37.9655,5.17153M38.9953,5.17153L40.2896,5.17153M36.8884,5.14318L37.9655,5.14318M38.9781,5.14318L40.271,5.14318M36.8884,5.11484L37.9655,5.11484M38.9608,5.11484L40.2525,5.11484M36.8884,5.08649L37.9655,5.08649M38.9435,5.08649L40.2339,5.08649M36.8884,5.05814L37.9655,5.05814M38.9262,5.05814L40.2153,5.05814M36.8884,5.0298L37.9655,5.0298M38.9089,5.0298L40.1967,5.0298M36.8884,5.00145L37.9655,5.00145M38.8917,5.00145L40.1782,5.00145M36.8884,4.9731L37.9655,4.9731M38.8744,4.9731L40.1596,4.9731M36.8884,4.94476L37.9655,4.94476M38.8571,4.94476L40.141,4.94476M36.8884,4.91641L37.9655,4.91641M38.8398,4.91641L40.1224,4.91641M36.8884,4.88807L37.9655,4.88807M38.8226,4.88807L40.1038,4.88807M36.8884,4.85972L37.9655,4.85972M38.8053,4.85972L40.0852,4.85972M36.8884,4.83137L37.9655,4.83137M38.7881,4.83137L40.0666,4.83137M36.8884,4.80303L37.9655,4.80303M38.7708,4.80303L40.0481,4.80303M36.8884,4.77468L37.9655,4.77468M38.7535,4.77468L40.0295,4.77468M36.8884,4.74633L37.9655,4.74633M38.7362,4.74633L40.0109,4.74633M36.8884,4.71799L37.9655,4.71799M38.7189,4.71799L39.9923,4.71799M36.8884,4.68964L37.9655,4.68964M38.7017,4.68964L39.9738,4.68964M36.8884,4.66129L37.9655,4.66129M38.6844,4.66129L39.9552,4.66129M36.8884,4.63295L37.9655,4.63295M38.6671,4.63295L39.9365,4.63295M36.8884,4.6046L37.9655,4.6046M38.6498,4.6046L39.918,4.6046M36.8884,4.57626L37.9939,4.57626M38.6325,4.57626L39.8994,4.57626M36.8884,4.54791L38.0223,4.54791M38.6153,4.54791L39.8808,4.54791M36.8884,4.51956L38.0506,4.51956M38.598,4.51956L39.8622,4.51956M36.8884,4.49122L38.0789,4.49122M38.5808,4.49122L39.8436,4.49122M36.8884,4.46287L38.1073,4.46287M38.5635,4.46287L39.8251,4.46287M36.8884,4.43452L38.1356,4.43452M38.5462,4.43452L39.8065,4.43452M36.8884,4.40618L38.164,4.40618M38.5289,4.40618L39.7879,4.40618M36.8884,4.37782L38.1923,4.37782M38.5116,4.37782L39.7693,4.37782M36.8884,4.34948L38.2207,4.34948M38.4944,4.34948L39.7508,4.34948M36.8884,4.32113L38.249,4.32113M38.4771,4.32113L39.7322,4.32113M36.8884,4.29278L38.2774,4.29278M38.4598,4.29278L39.7135,4.29278M36.8884,4.26444L38.3057,4.26444M38.4425,4.26444L39.695,4.26444M36.8884,4.23609L38.334,4.23609M38.4253,4.23609L39.6764,4.23609M36.8884,4.20774L38.3624,4.20774M38.408,4.20774L39.6578,4.20774M36.8884,4.1794L39.6392,4.1794M36.8884,4.15105L39.6207,4.15105M36.8884,4.12271L39.6021,4.12271M36.8884,4.09436L39.5835,4.09436M36.8884,4.06601L39.5649,4.06601M36.8884,4.03767L39.5464,4.03767M36.8884,4.00932L39.5277,4.00932M36.8884,3.98097L39.5091,3.98097M36.8884,3.95263L39.4906,3.95263M36.8884,3.92428L39.472,3.92428M36.8884,3.89593L39.4534,3.89593M36.8884,3.86759L39.4348,3.86759M36.8884,3.83924L39.4163,3.83924M36.8884,3.8109L39.3977,3.8109M36.8884,3.78255L39.3791,3.78255M36.8884,3.7542L39.3605,3.7542M36.8884,3.72586L39.3419,3.72586M36.8884,3.69751L39.3233,3.69751M36.8884,3.66916L39.3047,3.66916M36.8884,3.64082L39.2862,3.64082M36.8884,3.61247L39.2676,3.61247M36.8884,3.58412L39.249,3.58412M36.8884,3.55578L39.2304,3.55578M36.8884,3.52743L39.2118,3.52743M36.8884,3.49908L39.1933,3.49908M36.8884,3.47074L39.1747,3.47074M36.8884,3.44239L39.1561,3.44239M36.8884,3.41405L37.9655,3.41405M37.9655,3.41405L39.185,3.41405M36.8884,3.3857L37.9655,3.3857M37.9927,3.3857L39.2139,3.3857M36.8884,3.35735L37.9655,3.35735M38.02,3.35735L39.2428,3.35735M36.8884,3.32901L37.9655,3.32901M38.0472,3.32901L39.2717,3.32901M36.8884,3.30066L37.9655,3.30066M38.0745,3.30066L39.3006,3.30066M36.8884,3.27231L37.9655,3.27231M38.1017,3.27231L39.3294,3.27231M36.8884,3.24397L37.9655,3.24397M38.129,3.24397L39.3584,3.24397M36.8884,3.21562L37.9655,3.21562M38.1562,3.21562L39.3872,3.21562M36.8884,3.18727L37.9655,3.18727M38.1834,3.18727L39.4161,3.18727M36.8884,3.15893L37.9655,3.15893M38.2106,3.15893L39.445,3.15893M36.8884,3.13058L37.9655,3.13058M38.2379,3.13058L39.4739,3.13058M36.8884,3.10224L37.9655,3.10224M38.2651,3.10224L39.5028,3.10224M36.8884,3.07389L37.9655,3.07389M38.2923,3.07389L39.5317,3.07389M36.8884,3.04554L37.9655,3.04554M38.3196,3.04554L39.5606,3.04554M36.8884,3.0172L37.9655,3.0172M38.3468,3.0172L39.5895,3.0172M36.8884,2.98885L37.9655,2.98885M38.3741,2.98885L39.6184,2.98885M36.8884,2.9605L37.9655,2.9605M38.4013,2.9605L39.6472,2.9605M36.8884,2.93216L37.9655,2.93216M38.4286,2.93216L39.6762,2.93216M36.8884,2.90381L37.9655,2.90381M38.4558,2.90381L39.705,2.90381M36.8884,2.87546L37.9655,2.87546M38.483,2.87546L39.7339,2.87546M36.8884,2.84712L37.9655,2.84712M38.5102,2.84712L39.7628,2.84712M36.8884,2.81877L37.9655,2.81877M38.5375,2.81877L39.7917,2.81877M36.8884,2.79042L37.9655,2.79042M38.5647,2.79042L39.8206,2.79042M36.8884,2.76208L37.9655,2.76208M38.5919,2.76208L39.8495,2.76208M36.8884,2.73373L37.9655,2.73373M38.6191,2.73373L39.8784,2.73373M36.8884,2.70539L37.9655,2.70539M38.6464,2.70539L39.9073,2.70539M36.8884,2.67704L37.9655,2.67704M38.6736,2.67704L39.9362,2.67704M36.8884,2.64869L37.9655,2.64869M38.7009,2.64869L39.965,2.64869M36.8884,2.62035L37.9655,2.62035M38.7282,2.62035L39.994,2.62035M36.8884,2.592L37.9655,2.592M38.7554,2.592L40.0229,2.592M36.8884,2.56365L37.9655,2.56365M38.7826,2.56365L40.0517,2.56365M36.8884,2.53531L37.9655,2.53531M38.8098,2.53531L40.0806,2.53531M36.8884,2.50696L37.9655,2.50696M38.8371,2.50696L40.1095,2.50696M36.8884,2.47861L37.9655,2.47861M38.8643,2.47861L40.1384,2.47861M36.8884,2.45027L37.9655,2.45027M38.8915,2.45027L40.1673,2.45027M36.8884,2.42192L37.9655,2.42192M38.9187,2.42192L40.1962,2.42192M36.8884,2.39358L37.9655,2.39358M38.946,2.39358L40.2251,2.39358M36.8884,2.36523L37.9655,2.36523M38.9732,2.36523L40.254,2.36523M36.8884,2.33688L37.9655,2.33688M39.0005,2.33688L40.2828,2.33688M36.8884,2.30854L37.9655,2.30854M39.0277,2.30854L40.3118,2.30854M36.8884,2.28019L37.9655,2.28019M39.055,2.28019L40.3407,2.28019M36.8884,2.25184L37.9655,2.25184M39.0822,2.25184L40.3695,2.25184M36.8884,2.2235L37.9655,2.2235M39.1094,2.2235L40.3984,2.2235M36.8884,2.19515L37.9655,2.19515M39.1366,2.19515L40.4274,2.19515M36.8884,2.1668L37.9655,2.1668M39.1639,2.1668L40.4562,2.1668M36.8884,2.13846L37.9655,2.13846M39.1911,2.13846L40.4851,2.13846M36.8884,2.11011L37.9655,2.11011M39.2183,2.11011L40.514,2.11011M36.8884,2.08176L37.9655,2.08176M39.2455,2.08176L40.5429,2.08176M36.8884,2.05342L37.9655,2.05342M39.2728,2.05342L40.5718,2.05342M36.8884,2.02507L37.9655,2.02507M39.3,2.02507L40.6007,2.02507M36.8884,1.99673L37.9655,1.99673M39.3273,1.99673L40.6296,1.99673M36.8884,1.96838L37.9655,1.96838M36.8884,1.94003L37.9655,1.94003M36.8884,1.91169L37.9655,1.91169M36.8884,1.88334L37.9655,1.88334M36.8884,1.85499L37.9655,1.85499M36.8884,1.82665L37.9655,1.82665M36.8884,1.7983L37.9655,1.7983M36.8884,1.76995L37.9655,1.76995M36.8884,1.74161L37.9655,1.74161M36.8884,1.71326L37.9655,1.71326M36.8884,1.68492L37.9655,1.68492M36.8884,1.65657L37.9655,1.65657M36.8884,1.62822L37.9655,1.62822M36.8884,1.59988L37.9655,1.59988M36.8884,1.57153L37.9655,1.57153M36.8884,1.54318L37.9655,1.54318M36.8884,1.51484L37.9655,1.51484M36.8884,1.48649L37.9655,1.48649M36.8884,1.45814L37.9655,1.45814M36.8884,1.4298L37.9655,1.4298M36.8884,1.40145L37.9655,1.40145M36.8884,1.3731L37.9655,1.3731M36.8884,1.34476L37.9655,1.34476M36.8884,1.31641L37.9655,1.31641M36.8884,1.28807L37.9655,1.28807M36.8884,1.25972L37.9655,1.25972M36.8884,1.23137L37.9655,1.23137M36.8884,1.20303L37.9655,1.20303M36.8884,1.17468L37.9655,1.17468M36.8884,1.14633L37.9655,1.14633M36.8884,1.11799L37.9655,1.11799M36.8884,1.08964L37.9655,1.08964M36.8884,1.06129L37.9655,1.06129M36.9374,1.03295L37.9655,1.03295M36.9863,1.0046L37.9655,1.0046M37.0353,0.976255L37.9655,0.976255M37.0842,0.947909L37.9655,0.947909M37.1332,0.919562L37.9655,0.919562M37.1822,0.891216L37.9655,0.891216M37.2311,0.86287L37.9655,0.86287M37.2801,0.834523L37.9655,0.834523M37.329,0.806177L37.9655,0.806177M37.378,0.777823L37.9655,0.777823M37.427,0.749477L37.9655,0.749477M37.4759,0.72113L37.9655,0.72113M37.5249,0.692788L37.9655,0.692788M37.5738,0.664441L37.9655,0.664441M37.6228,0.636095L37.9655,0.636095M37.6718,0.607748L37.9655,0.607748M37.7207,0.579401L37.9655,0.579401M37.7697,0.551055L37.9655,0.551055M37.8186,0.522708L37.9655,0.522708M37.8676,0.494362L37.9655,0.494362M37.9166,0.466016L37.9655,0.466016"/>
    </g>
    <g >
     <title >polygon</title>
     <path  fill="none" stroke="white" stroke-linecap="round" stroke-width="0.0283465" d="M41.5089,2.70539L40.4317,2.70539M40.4317,2.70539L40.5167,2.62035M40.5167,2.62035L40.6017,2.53531M40.6017,2.53531L40.7151,2.45027M40.7151,2.45027L40.8002,2.33688M40.8002,2.33688L40.8852,2.25184M40.8852,2.25184L40.9702,2.1668M40.9702,2.1668L41.0836,2.08176M41.0836,2.08176L41.1687,1.96838M41.1687,1.96838L41.5089,1.96838M41.5089,1.96838L41.5089,1.65657M41.5089,1.65657L41.5372,1.40145M41.5372,1.40145L41.5939,1.17468M41.5939,1.17468L41.7073,0.976255M41.7073,0.976255L41.849,0.806177M41.849,0.806177L42.0191,0.636095M42.0191,0.636095L42.2459,0.551055M42.2459,0.551055L42.5293,0.466016M42.5293,0.466016L42.8412,0.437669M42.8412,0.437669L43.0679,0.437669M43.0679,0.437669L43.1529,0.466016M43.1529,0.466016L43.4364,0.466016M43.4364,0.466016L43.4364,1.28807M43.4364,1.28807L42.9262,1.28807M42.9262,1.28807L42.8412,1.31641M42.8412,1.31641L42.7561,1.34476M42.7561,1.34476L42.6994,1.3731M42.6994,1.3731L42.6711,1.45814M42.6711,1.45814L42.6427,1.51484M42.6427,1.51484L42.6144,1.62822M42.6144,1.62822L42.6144,1.96838M42.6144,1.96838L43.3797,1.96838M43.3797,1.96838L43.3797,2.70539M43.3797,2.70539L42.6144,2.70539M42.6144,2.70539L42.6144,5.99358M42.6144,5.99358L41.5089,5.99358M41.5089,5.99358L41.5089,3.13058M41.5089,3.13058L41.5089,2.70539M41.5089,5.99358L42.6144,5.99358M41.5089,5.96523L42.6144,5.96523M41.5089,5.93688L42.6144,5.93688M41.5089,5.90854L42.6144,5.90854M41.5089,5.88019L42.6144,5.88019M41.5089,5.85184L42.6144,5.85184M41.5089,5.8235L42.6144,5.8235M41.5089,5.79515L42.6144,5.79515M41.5089,5.7668L42.6144,5.7668M41.5089,5.73846L42.6144,5.73846M41.5089,5.71011L42.6144,5.71011M41.5089,5.68176L42.6144,5.68176M41.5089,5.65342L42.6144,5.65342M41.5089,5.62507L42.6144,5.62507M41.5089,5.59673L42.6144,5.59673M41.5089,5.56838L42.6144,5.56838M41.5089,5.54003L42.6144,5.54003M41.5089,5.51169L42.6144,5.51169M41.5089,5.48334L42.6144,5.48334M41.5089,5.45499L42.6144,5.45499M41.5089,5.42665L42.6144,5.42665M41.5089,5.3983L42.6144,5.3983M41.5089,5.36995L42.6144,5.36995M41.5089,5.34161L42.6144,5.34161M41.5089,5.31326L42.6144,5.31326M41.5089,5.28492L42.6144,5.28492M41.5089,5.25657L42.6144,5.25657M41.5089,5.22822L42.6144,5.22822M41.5089,5.19988L42.6144,5.19988M41.5089,5.17153L42.6144,5.17153M41.5089,5.14318L42.6144,5.14318M41.5089,5.11484L42.6144,5.11484M41.5089,5.08649L42.6144,5.08649M41.5089,5.05814L42.6144,5.05814M41.5089,5.0298L42.6144,5.0298M41.5089,5.00145L42.6144,5.00145M41.5089,4.9731L42.6144,4.9731M41.5089,4.94476L42.6144,4.94476M41.5089,4.91641L42.6144,4.91641M41.5089,4.88807L42.6144,4.88807M41.5089,4.85972L42.6144,4.85972M41.5089,4.83137L42.6144,4.83137M41.5089,4.80303L42.6144,4.80303M41.5089,4.77468L42.6144,4.77468M41.5089,4.74633L42.6144,4.74633M41.5089,4.71799L42.6144,4.71799M41.5089,4.68964L42.6144,4.68964M41.5089,4.66129L42.6144,4.66129M41.5089,4.63295L42.6144,4.63295M41.5089,4.6046L42.6144,4.6046M41.5089,4.57626L42.6144,4.57626M41.5089,4.54791L42.6144,4.54791M41.5089,4.51956L42.6144,4.51956M41.5089,4.49122L42.6144,4.49122M41.5089,4.46287L42.6144,4.46287M41.5089,4.43452L42.6144,4.43452M41.5089,4.40618L42.6144,4.40618M41.5089,4.37782L42.6144,4.37782M41.5089,4.34948L42.6144,4.34948M41.5089,4.32113L42.6144,4.32113M41.5089,4.29278L42.6144,4.29278M41.5089,4.26444L42.6144,4.26444M41.5089,4.23609L42.6144,4.23609M41.5089,4.20774L42.6144,4.20774M41.5089,4.1794L42.6144,4.1794M41.5089,4.15105L42.6144,4.15105M41.5089,4.12271L42.6144,4.12271M41.5089,4.09436L42.6144,4.09436M41.5089,4.06601L42.6144,4.06601M41.5089,4.03767L42.6144,4.03767M41.5089,4.00932L42.6144,4.00932M41.5089,3.98097L42.6144,3.98097M41.5089,3.95263L42.6144,3.95263M41.5089,3.92428L42.6144,3.92428M41.5089,3.89593L42.6144,3.89593M41.5089,3.86759L42.6144,3.86759M41.5089,3.83924L42.6144,3.83924M41.5089,3.8109L42.6144,3.8109M41.5089,3.78255L42.6144,3.78255M41.5089,3.7542L42.6144,3.7542M41.5089,3.72586L42.6144,3.72586M41.5089,3.69751L42.6144,3.69751M41.5089,3.66916L42.6144,3.66916M41.5089,3.64082L42.6144,3.64082M41.5089,3.61247L42.6144,3.61247M41.5089,3.58412L42.6144,3.58412M41.5089,3.55578L42.6144,3.55578M41.5089,3.52743L42.6144,3.52743M41.5089,3.49908L42.6144,3.49908M41.5089,3.47074L42.6144,3.47074M41.5089,3.44239L42.6144,3.44239M41.5089,3.41405L42.6144,3.41405M41.5089,3.3857L42.6144,3.3857M41.5089,3.35735L42.6144,3.35735M41.5089,3.32901L42.6144,3.32901M41.5089,3.30066L42.6144,3.30066M41.5089,3.27231L42.6144,3.27231M41.5089,3.24397L42.6144,3.24397M41.5089,3.21562L42.6144,3.21562M41.5089,3.18727L42.6144,3.18727M41.5089,3.15893L42.6144,3.15893M41.5089,3.13058L42.6144,3.13058M41.5089,3.10224L42.6144,3.10224M41.5089,3.07389L42.6144,3.07389M41.5089,3.04554L42.6144,3.04554M41.5089,3.0172L42.6144,3.0172M41.5089,2.98885L42.6144,2.98885M41.5089,2.9605L42.6144,2.9605M41.5089,2.93216L42.6144,2.93216M41.5089,2.90381L42.6144,2.90381M41.5089,2.87546L42.6144,2.87546M41.5089,2.84712L42.6144,2.84712M41.5089,2.81877L42.6144,2.81877M41.5089,2.79042L42.6144,2.79042M41.5089,2.76208L42.6144,2.76208M41.5089,2.73373L42.6144,2.73373M40.4317,2.70539L43.3797,2.70539M40.46,2.67704L43.3797,2.67704M40.4884,2.64869L43.3797,2.64869M40.5167,2.62035L43.3797,2.62035M40.5451,2.592L43.3797,2.592M40.5734,2.56365L43.3797,2.56365M40.6017,2.53531L43.3797,2.53531M40.6395,2.50696L43.3797,2.50696M40.6773,2.47861L43.3797,2.47861M40.7151,2.45027L43.3797,2.45027M40.7364,2.42192L43.3797,2.42192M40.7577,2.39358L43.3797,2.39358M40.7789,2.36523L43.3797,2.36523M40.8002,2.33688L43.3797,2.33688M40.8285,2.30854L43.3797,2.30854M40.8569,2.28019L43.3797,2.28019M40.8852,2.25184L43.3797,2.25184M40.9136,2.2235L43.3797,2.2235M40.9419,2.19515L43.3797,2.19515M40.9702,2.1668L43.3797,2.1668M41.008,2.13846L43.3797,2.13846M41.0458,2.11011L43.3797,2.11011M41.0836,2.08176L43.3797,2.08176M41.1049,2.05342L43.3797,2.05342M41.1262,2.02507L43.3797,2.02507M41.1474,1.99673L43.3797,1.99673M41.5089,1.96838L42.6144,1.96838M41.5089,1.94003L42.6144,1.94003M41.5089,1.91169L42.6144,1.91169M41.5089,1.88334L42.6144,1.88334M41.5089,1.85499L42.6144,1.85499M41.5089,1.82665L42.6144,1.82665M41.5089,1.7983L42.6144,1.7983M41.5089,1.76995L42.6144,1.76995M41.5089,1.74161L42.6144,1.74161M41.5089,1.71326L42.6144,1.71326M41.5089,1.68492L42.6144,1.68492M41.5089,1.65657L42.6144,1.65657M41.512,1.62822L42.6144,1.62822M41.5151,1.59988L42.6215,1.59988M41.5183,1.57153L42.6285,1.57153M41.5215,1.54318L42.6356,1.54318M41.5246,1.51484L42.6427,1.51484M41.5277,1.48649L42.6569,1.48649M41.5309,1.45814L42.6711,1.45814M41.5341,1.4298L42.6805,1.4298M41.5372,1.40145L42.69,1.40145M41.5443,1.3731L42.6994,1.3731M41.5513,1.34476L42.7561,1.34476M41.5585,1.31641L42.8412,1.31641M41.5655,1.28807L43.4364,1.28807M41.5727,1.25972L43.4364,1.25972M41.5797,1.23137L43.4364,1.23137M41.5868,1.20303L43.4364,1.20303M41.5939,1.17468L43.4364,1.17468M41.6101,1.14633L43.4364,1.14633M41.6263,1.11799L43.4364,1.11799M41.6425,1.08964L43.4364,1.08964M41.6587,1.06129L43.4364,1.06129M41.6749,1.03295L43.4364,1.03295M41.6911,1.0046L43.4364,1.0046M41.7073,0.976255L43.4364,0.976255M41.7309,0.947909L43.4364,0.947909M41.7545,0.919562L43.4364,0.919562M41.7781,0.891216L43.4364,0.891216M41.8018,0.86287L43.4364,0.86287M41.8254,0.834523L43.4364,0.834523M41.849,0.806177L43.4364,0.806177M41.8774,0.777823L43.4364,0.777823M41.9057,0.749477L43.4364,0.749477M41.934,0.72113L43.4364,0.72113M41.9624,0.692788L43.4364,0.692788M41.9908,0.664441L43.4364,0.664441M42.0191,0.636095L43.4364,0.636095M42.0947,0.607748L43.4364,0.607748M42.1703,0.579401L43.4364,0.579401M42.2459,0.551055L43.4364,0.551055M42.3403,0.522708L43.4364,0.522708M42.4349,0.494362L43.4364,0.494362M42.5293,0.466016L43.1529,0.466016"/>
    </g>
    <g >
     <title >polygon</title>
     <path  fill="none" stroke="white" stroke-linecap="round" stroke-width="0.0283465" d="M47.4332,5.99358L46.3844,5.99358M46.3844,5.99358L46.3844,5.42665M46.3844,5.42665L46.2711,5.59673M46.2711,5.59673L46.1293,5.71011M46.1293,5.71011L45.9876,5.85184M45.9876,5.85184L45.8459,5.93688M45.8459,5.93688L45.6758,5.99358M45.6758,5.99358L45.5057,6.05027M45.5057,6.05027L45.3356,6.07861M45.3356,6.07861L45.1372,6.10696M45.1372,6.10696L44.7404,6.05027M44.7404,6.05027L44.4285,5.96523M44.4285,5.96523L44.1734,5.8235M44.1734,5.8235L43.975,5.65342M43.975,5.65342L43.8332,5.3983M43.8332,5.3983L43.7482,5.11484M43.7482,5.11484L43.6915,4.80303M43.6915,4.80303L43.6915,1.96838M43.6915,1.96838L44.797,1.96838M44.797,1.96838L44.797,4.46287M44.797,4.46287L44.8254,4.66129M44.8254,4.66129L44.8821,4.83137M44.8821,4.83137L44.9388,4.9731M44.9388,4.9731L45.0521,5.08649M45.0521,5.08649L45.1655,5.17153M45.1655,5.17153L45.3073,5.19988M45.3073,5.19988L45.5057,5.22822M45.5057,5.22822L45.7042,5.19988M45.7042,5.19988L45.8742,5.17153M45.8742,5.17153L46.0159,5.08649M46.0159,5.08649L46.1577,4.94476M46.1577,4.94476L46.2427,4.80303M46.2427,4.80303L46.2994,4.6046M46.2994,4.6046L46.3278,4.34948M46.3278,4.34948L46.3561,4.06601M46.3561,4.06601L46.3561,1.96838M46.3561,1.96838L47.4332,1.96838M47.4332,1.96838L47.4332,5.48334M47.4332,5.48334L47.4332,5.99358M44.9388,6.07861L45.3356,6.07861M44.7404,6.05027L45.5057,6.05027M44.6364,6.02192L45.5908,6.02192M44.5325,5.99358L45.6758,5.99358M46.3844,5.99358L47.4332,5.99358M44.4285,5.96523L45.7608,5.96523M46.3844,5.96523L47.4332,5.96523M44.3775,5.93688L45.8459,5.93688M46.3844,5.93688L47.4332,5.93688M44.3265,5.90854L45.8931,5.90854M46.3844,5.90854L47.4332,5.90854M44.2755,5.88019L45.9403,5.88019M46.3844,5.88019L47.4332,5.88019M44.2244,5.85184L45.9876,5.85184M46.3844,5.85184L47.4332,5.85184M44.1734,5.8235L46.0159,5.8235M46.3844,5.8235L47.4332,5.8235M44.1403,5.79515L46.0443,5.79515M46.3844,5.79515L47.4332,5.79515M44.1073,5.7668L46.0727,5.7668M46.3844,5.7668L47.4332,5.7668M44.0742,5.73846L46.101,5.73846M46.3844,5.73846L47.4332,5.73846M44.0411,5.71011L46.1293,5.71011M46.3844,5.71011L47.4332,5.71011M44.0081,5.68176L46.1647,5.68176M46.3844,5.68176L47.4332,5.68176M43.975,5.65342L46.2002,5.65342M46.3844,5.65342L47.4332,5.65342M43.9592,5.62507L46.2356,5.62507M46.3844,5.62507L47.4332,5.62507M43.9435,5.59673L46.2711,5.59673M46.3844,5.59673L47.4332,5.59673M43.9278,5.56838L46.29,5.56838M46.3844,5.56838L47.4332,5.56838M43.912,5.54003L46.3089,5.54003M46.3844,5.54003L47.4332,5.54003M43.8962,5.51169L46.3278,5.51169M46.3844,5.51169L47.4332,5.51169M43.8805,5.48334L46.3466,5.48334M46.3844,5.48334L47.4332,5.48334M43.8648,5.45499L46.3656,5.45499M46.3844,5.45499L47.4332,5.45499M43.849,5.42665L47.4332,5.42665M43.8332,5.3983L47.4332,5.3983M43.8247,5.36995L47.4332,5.36995M43.8162,5.34161L47.4332,5.34161M43.8078,5.31326L47.4332,5.31326M43.7993,5.28492L47.4332,5.28492M43.7908,5.25657L47.4332,5.25657M43.7823,5.22822L45.5057,5.22822M45.5057,5.22822L47.4332,5.22822M43.7738,5.19988L45.3073,5.19988M45.7042,5.19988L47.4332,5.19988M43.7652,5.17153L45.1655,5.17153M45.8742,5.17153L47.4332,5.17153M43.7567,5.14318L45.1277,5.14318M45.9215,5.14318L47.4332,5.14318M43.7482,5.11484L45.0899,5.11484M45.9687,5.11484L47.4332,5.11484M43.7431,5.08649L45.0521,5.08649M46.0159,5.08649L47.4332,5.08649M43.7379,5.05814L45.0238,5.05814M46.0443,5.05814L47.4332,5.05814M43.7327,5.0298L44.9955,5.0298M46.0727,5.0298L47.4332,5.0298M43.7276,5.00145L44.9671,5.00145M46.101,5.00145L47.4332,5.00145M43.7224,4.9731L44.9388,4.9731M46.1293,4.9731L47.4332,4.9731M43.7173,4.94476L44.9274,4.94476M46.1577,4.94476L47.4332,4.94476M43.7121,4.91641L44.9161,4.91641M46.1747,4.91641L47.4332,4.91641M43.707,4.88807L44.9047,4.88807M46.1917,4.88807L47.4332,4.88807M43.7018,4.85972L44.8934,4.85972M46.2087,4.85972L47.4332,4.85972M43.6967,4.83137L44.8821,4.83137M46.2257,4.83137L47.4332,4.83137M43.6915,4.80303L44.8726,4.80303M46.2427,4.80303L47.4332,4.80303M43.6915,4.77468L44.8632,4.77468M46.2508,4.77468L47.4332,4.77468M43.6915,4.74633L44.8538,4.74633M46.2589,4.74633L47.4332,4.74633M43.6915,4.71799L44.8443,4.71799M46.267,4.71799L47.4332,4.71799M43.6915,4.68964L44.8348,4.68964M46.2751,4.68964L47.4332,4.68964M43.6915,4.66129L44.8254,4.66129M46.2832,4.66129L47.4332,4.66129M43.6915,4.63295L44.8213,4.63295M46.2913,4.63295L47.4332,4.63295M43.6915,4.6046L44.8173,4.6046M46.2994,4.6046L47.4332,4.6046M43.6915,4.57626L44.8132,4.57626M46.3026,4.57626L47.4332,4.57626M43.6915,4.54791L44.8092,4.54791M46.3057,4.54791L47.4332,4.54791M43.6915,4.51956L44.8052,4.51956M46.3088,4.51956L47.4332,4.51956M43.6915,4.49122L44.8011,4.49122M46.312,4.49122L47.4332,4.49122M43.6915,4.46287L44.797,4.46287M46.3152,4.46287L47.4332,4.46287M43.6915,4.43452L44.797,4.43452M46.3183,4.43452L47.4332,4.43452M43.6915,4.40618L44.797,4.40618M46.3214,4.40618L47.4332,4.40618M43.6915,4.37782L44.797,4.37782M46.3246,4.37782L47.4332,4.37782M43.6915,4.34948L44.797,4.34948M46.3278,4.34948L47.4332,4.34948M43.6915,4.32113L44.797,4.32113M46.3306,4.32113L47.4332,4.32113M43.6915,4.29278L44.797,4.29278M46.3334,4.29278L47.4332,4.29278M43.6915,4.26444L44.797,4.26444M46.3362,4.26444L47.4332,4.26444M43.6915,4.23609L44.797,4.23609M46.3391,4.23609L47.4332,4.23609M43.6915,4.20774L44.797,4.20774M46.3419,4.20774L47.4332,4.20774M43.6915,4.1794L44.797,4.1794M46.3447,4.1794L47.4332,4.1794M43.6915,4.15105L44.797,4.15105M46.3476,4.15105L47.4332,4.15105M43.6915,4.12271L44.797,4.12271M46.3504,4.12271L47.4332,4.12271M43.6915,4.09436L44.797,4.09436M46.3532,4.09436L47.4332,4.09436M43.6915,4.06601L44.797,4.06601M46.3561,4.06601L47.4332,4.06601M43.6915,4.03767L44.797,4.03767M46.3561,4.03767L47.4332,4.03767M43.6915,4.00932L44.797,4.00932M46.3561,4.00932L47.4332,4.00932M43.6915,3.98097L44.797,3.98097M46.3561,3.98097L47.4332,3.98097M43.6915,3.95263L44.797,3.95263M46.3561,3.95263L47.4332,3.95263M43.6915,3.92428L44.797,3.92428M46.3561,3.92428L47.4332,3.92428M43.6915,3.89593L44.797,3.89593M46.3561,3.89593L47.4332,3.89593M43.6915,3.86759L44.797,3.86759M46.3561,3.86759L47.4332,3.86759M43.6915,3.83924L44.797,3.83924M46.3561,3.83924L47.4332,3.83924M43.6915,3.8109L44.797,3.8109M46.3561,3.8109L47.4332,3.8109M43.6915,3.78255L44.797,3.78255M46.3561,3.78255L47.4332,3.78255M43.6915,3.7542L44.797,3.7542M46.3561,3.7542L47.4332,3.7542M43.6915,3.72586L44.797,3.72586M46.3561,3.72586L47.4332,3.72586M43.6915,3.69751L44.797,3.69751M46.3561,3.69751L47.4332,3.69751M43.6915,3.66916L44.797,3.66916M46.3561,3.66916L47.4332,3.66916M43.6915,3.64082L44.797,3.64082M46.3561,3.64082L47.4332,3.64082M43.6915,3.61247L44.797,3.61247M46.3561,3.61247L47.4332,3.61247M43.6915,3.58412L44.797,3.58412M46.3561,3.58412L47.4332,3.58412M43.6915,3.55578L44.797,3.55578M46.3561,3.55578L47.4332,3.55578M43.6915,3.52743L44.797,3.52743M46.3561,3.52743L47.4332,3.52743M43.6915,3.49908L44.797,3.49908M46.3561,3.49908L47.4332,3.49908M43.6915,3.47074L44.797,3.47074M46.3561,3.47074L47.4332,3.47074M43.6915,3.44239L44.797,3.44239M46.3561,3.44239L47.4332,3.44239M43.6915,3.41405L44.797,3.41405M46.3561,3.41405L47.4332,3.41405M43.6915,3.3857L44.797,3.3857M46.3561,3.3857L47.4332,3.3857M43.6915,3.35735L44.797,3.35735M46.3561,3.35735L47.4332,3.35735M43.6915,3.32901L44.797,3.32901M46.3561,3.32901L47.4332,3.32901M43.6915,3.30066L44.797,3.30066M46.3561,3.30066L47.4332,3.30066M43.6915,3.27231L44.797,3.27231M46.3561,3.27231L47.4332,3.27231M43.6915,3.24397L44.797,3.24397M46.3561,3.24397L47.4332,3.24397M43.6915,3.21562L44.797,3.21562M46.3561,3.21562L47.4332,3.21562M43.6915,3.18727L44.797,3.18727M46.3561,3.18727L47.4332,3.18727M43.6915,3.15893L44.797,3.15893M46.3561,3.15893L47.4332,3.15893M43.6915,3.13058L44.797,3.13058M46.3561,3.13058L47.4332,3.13058M43.6915,3.10224L44.797,3.10224M46.3561,3.10224L47.4332,3.10224M43.6915,3.07389L44.797,3.07389M46.3561,3.07389L47.4332,3.07389M43.6915,3.04554L44.797,3.04554M46.3561,3.04554L47.4332,3.04554M43.6915,3.0172L44.797,3.0172M46.3561,3.0172L47.4332,3.0172M43.6915,2.98885L44.797,2.98885M46.3561,2.98885L47.4332,2.98885M43.6915,2.9605L44.797,2.9605M46.3561,2.9605L47.4332,2.9605M43.6915,2.93216L44.797,2.93216M46.3561,2.93216L47.4332,2.93216M43.6915,2.90381L44.797,2.90381M46.3561,2.90381L47.4332,2.90381M43.6915,2.87546L44.797,2.87546M46.3561,2.87546L47.4332,2.87546M43.6915,2.84712L44.797,2.84712M46.3561,2.84712L47.4332,2.84712M43.6915,2.81877L44.797,2.81877M46.3561,2.81877L47.4332,2.81877M43.6915,2.79042L44.797,2.79042M46.3561,2.79042L47.4332,2.79042M43.6915,2.76208L44.797,2.76208M46.3561,2.76208L47.4332,2.76208M43.6915,2.73373L44.797,2.73373M46.3561,2.73373L47.4332,2.73373M43.6915,2.70539L44.797,2.70539M46.3561,2.70539L47.4332,2.70539M43.6915,2.67704L44.797,2.67704M46.3561,2.67704L47.4332,2.67704M43.6915,2.64869L44.797,2.64869M46.3561,2.64869L47.4332,2.64869M43.6915,2.62035L44.797,2.62035M46.3561,2.62035L47.4332,2.62035M43.6915,2.592L44.797,2.592M46.3561,2.592L47.4332,2.592M43.6915,2.56365L44.797,2.56365M46.3561,2.56365L47.4332,2.56365M43.6915,2.53531L44.797,2.53531M46.3561,2.53531L47.4332,2.53531M43.6915,2.50696L44.797,2.50696M46.3561,2.50696L47.4332,2.50696M43.6915,2.47861L44.797,2.47861M46.3561,2.47861L47.4332,2.47861M43.6915,2.45027L44.797,2.45027M46.3561,2.45027L47.4332,2.45027M43.6915,2.42192L44.797,2.42192M46.3561,2.42192L47.4332,2.42192M43.6915,2.39358L44.797,2.39358M46.3561,2.39358L47.4332,2.39358M43.6915,2.36523L44.797,2.36523M46.3561,2.36523L47.4332,2.36523M43.6915,2.33688L44.797,2.33688M46.3561,2.33688L47.4332,2.33688M43.6915,2.30854L44.797,2.30854M46.3561,2.30854L47.4332,2.30854M43.6915,2.28019L44.797,2.28019M46.3561,2.28019L47.4332,2.28019M43.6915,2.25184L44.797,2.25184M46.3561,2.25184L47.4332,2.25184M43.6915,2.2235L44.797,2.2235M46.3561,2.2235L47.4332,2.2235M43.6915,2.19515L44.797,2.19515M46.3561,2.19515L47.4332,2.19515M43.6915,2.1668L44.797,2.1668M46.3561,2.1668L47.4332,2.1668M43.6915,2.13846L44.797,2.13846M46.3561,2.13846L47.4332,2.13846M43.6915,2.11011L44.797,2.11011M46.3561,2.11011L47.4332,2.11011M43.6915,2.08176L44.797,2.08176M46.3561,2.08176L47.4332,2.08176M43.6915,2.05342L44.797,2.05342M46.3561,2.05342L47.4332,2.05342M43.6915,2.02507L44.797,2.02507M46.3561,2.02507L47.4332,2.02507M43.6915,1.99673L44.797,1.99673M46.3561,1.99673L47.4332,1.99673"/>
    </g>
    <g >
     <title >polygon</title>
     <path  fill="none" stroke="white" stroke-linecap="round" stroke-width="0.0283465" d="M48.0569,1.96838L49.0774,1.96838M49.0774,1.96838L49.0774,2.53531M49.0774,2.53531L49.1057,2.53531M49.1057,2.53531L49.2191,2.36523M49.2191,2.36523L49.3325,2.2235M49.3325,2.2235L49.5025,2.11011M49.5025,2.11011L49.6443,2.02507M49.6443,2.02507L49.8144,1.96838M49.8144,1.96838L49.9844,1.91169M49.9844,1.91169L50.1546,1.88334M50.1546,1.88334L50.3246,1.85499M50.3246,1.85499L50.7215,1.91169M50.7215,1.91169L51.0616,1.99673M51.0616,1.99673L51.3167,2.13846M51.3167,2.13846L51.4868,2.30854M51.4868,2.30854L51.6285,2.56365M51.6285,2.56365L51.7419,2.84712M51.7419,2.84712L51.7702,3.15893M51.7702,3.15893L51.7986,3.52743M51.7986,3.52743L51.7986,5.99358M51.7986,5.99358L50.6931,5.99358M50.6931,5.99358L50.6931,3.49908M50.6931,3.49908L50.6647,3.30066M50.6647,3.30066L50.6081,3.13058M50.6081,3.13058L50.523,2.98885M50.523,2.98885L50.438,2.87546M50.438,2.87546L50.3246,2.79042M50.3246,2.79042L50.1546,2.76208M50.1546,2.76208L49.9844,2.73373M49.9844,2.73373L49.786,2.76208M49.786,2.76208L49.5876,2.79042M49.5876,2.79042L49.4459,2.87546M49.4459,2.87546L49.3325,3.0172M49.3325,3.0172L49.2474,3.15893M49.2474,3.15893L49.1908,3.35735M49.1908,3.35735L49.134,3.61247M49.134,3.61247L49.134,5.99358M49.134,5.99358L48.0285,5.99358M48.0285,5.99358L48.0285,2.47861M48.0285,2.47861L48.0569,1.96838M48.0285,5.99358L49.134,5.99358M50.6931,5.99358L51.7986,5.99358M48.0285,5.96523L49.134,5.96523M50.6931,5.96523L51.7986,5.96523M48.0285,5.93688L49.134,5.93688M50.6931,5.93688L51.7986,5.93688M48.0285,5.90854L49.134,5.90854M50.6931,5.90854L51.7986,5.90854M48.0285,5.88019L49.134,5.88019M50.6931,5.88019L51.7986,5.88019M48.0285,5.85184L49.134,5.85184M50.6931,5.85184L51.7986,5.85184M48.0285,5.8235L49.134,5.8235M50.6931,5.8235L51.7986,5.8235M48.0285,5.79515L49.134,5.79515M50.6931,5.79515L51.7986,5.79515M48.0285,5.7668L49.134,5.7668M50.6931,5.7668L51.7986,5.7668M48.0285,5.73846L49.134,5.73846M50.6931,5.73846L51.7986,5.73846M48.0285,5.71011L49.134,5.71011M50.6931,5.71011L51.7986,5.71011M48.0285,5.68176L49.134,5.68176M50.6931,5.68176L51.7986,5.68176M48.0285,5.65342L49.134,5.65342M50.6931,5.65342L51.7986,5.65342M48.0285,5.62507L49.134,5.62507M50.6931,5.62507L51.7986,5.62507M48.0285,5.59673L49.134,5.59673M50.6931,5.59673L51.7986,5.59673M48.0285,5.56838L49.134,5.56838M50.6931,5.56838L51.7986,5.56838M48.0285,5.54003L49.134,5.54003M50.6931,5.54003L51.7986,5.54003M48.0285,5.51169L49.134,5.51169M50.6931,5.51169L51.7986,5.51169M48.0285,5.48334L49.134,5.48334M50.6931,5.48334L51.7986,5.48334M48.0285,5.45499L49.134,5.45499M50.6931,5.45499L51.7986,5.45499M48.0285,5.42665L49.134,5.42665M50.6931,5.42665L51.7986,5.42665M48.0285,5.3983L49.134,5.3983M50.6931,5.3983L51.7986,5.3983M48.0285,5.36995L49.134,5.36995M50.6931,5.36995L51.7986,5.36995M48.0285,5.34161L49.134,5.34161M50.6931,5.34161L51.7986,5.34161M48.0285,5.31326L49.134,5.31326M50.6931,5.31326L51.7986,5.31326M48.0285,5.28492L49.134,5.28492M50.6931,5.28492L51.7986,5.28492M48.0285,5.25657L49.134,5.25657M50.6931,5.25657L51.7986,5.25657M48.0285,5.22822L49.134,5.22822M50.6931,5.22822L51.7986,5.22822M48.0285,5.19988L49.134,5.19988M50.6931,5.19988L51.7986,5.19988M48.0285,5.17153L49.134,5.17153M50.6931,5.17153L51.7986,5.17153M48.0285,5.14318L49.134,5.14318M50.6931,5.14318L51.7986,5.14318M48.0285,5.11484L49.134,5.11484M50.6931,5.11484L51.7986,5.11484M48.0285,5.08649L49.134,5.08649M50.6931,5.08649L51.7986,5.08649M48.0285,5.05814L49.134,5.05814M50.6931,5.05814L51.7986,5.05814M48.0285,5.0298L49.134,5.0298M50.6931,5.0298L51.7986,5.0298M48.0285,5.00145L49.134,5.00145M50.6931,5.00145L51.7986,5.00145M48.0285,4.9731L49.134,4.9731M50.6931,4.9731L51.7986,4.9731M48.0285,4.94476L49.134,4.94476M50.6931,4.94476L51.7986,4.94476M48.0285,4.91641L49.134,4.91641M50.6931,4.91641L51.7986,4.91641M48.0285,4.88807L49.134,4.88807M50.6931,4.88807L51.7986,4.88807M48.0285,4.85972L49.134,4.85972M50.6931,4.85972L51.7986,4.85972M48.0285,4.83137L49.134,4.83137M50.6931,4.83137L51.7986,4.83137M48.0285,4.80303L49.134,4.80303M50.6931,4.80303L51.7986,4.80303M48.0285,4.77468L49.134,4.77468M50.6931,4.77468L51.7986,4.77468M48.0285,4.74633L49.134,4.74633M50.6931,4.74633L51.7986,4.74633M48.0285,4.71799L49.134,4.71799M50.6931,4.71799L51.7986,4.71799M48.0285,4.68964L49.134,4.68964M50.6931,4.68964L51.7986,4.68964M48.0285,4.66129L49.134,4.66129M50.6931,4.66129L51.7986,4.66129M48.0285,4.63295L49.134,4.63295M50.6931,4.63295L51.7986,4.63295M48.0285,4.6046L49.134,4.6046M50.6931,4.6046L51.7986,4.6046M48.0285,4.57626L49.134,4.57626M50.6931,4.57626L51.7986,4.57626M48.0285,4.54791L49.134,4.54791M50.6931,4.54791L51.7986,4.54791M48.0285,4.51956L49.134,4.51956M50.6931,4.51956L51.7986,4.51956M48.0285,4.49122L49.134,4.49122M50.6931,4.49122L51.7986,4.49122M48.0285,4.46287L49.134,4.46287M50.6931,4.46287L51.7986,4.46287M48.0285,4.43452L49.134,4.43452M50.6931,4.43452L51.7986,4.43452M48.0285,4.40618L49.134,4.40618M50.6931,4.40618L51.7986,4.40618M48.0285,4.37782L49.134,4.37782M50.6931,4.37782L51.7986,4.37782M48.0285,4.34948L49.134,4.34948M50.6931,4.34948L51.7986,4.34948M48.0285,4.32113L49.134,4.32113M50.6931,4.32113L51.7986,4.32113M48.0285,4.29278L49.134,4.29278M50.6931,4.29278L51.7986,4.29278M48.0285,4.26444L49.134,4.26444M50.6931,4.26444L51.7986,4.26444M48.0285,4.23609L49.134,4.23609M50.6931,4.23609L51.7986,4.23609M48.0285,4.20774L49.134,4.20774M50.6931,4.20774L51.7986,4.20774M48.0285,4.1794L49.134,4.1794M50.6931,4.1794L51.7986,4.1794M48.0285,4.15105L49.134,4.15105M50.6931,4.15105L51.7986,4.15105M48.0285,4.12271L49.134,4.12271M50.6931,4.12271L51.7986,4.12271M48.0285,4.09436L49.134,4.09436M50.6931,4.09436L51.7986,4.09436M48.0285,4.06601L49.134,4.06601M50.6931,4.06601L51.7986,4.06601M48.0285,4.03767L49.134,4.03767M50.6931,4.03767L51.7986,4.03767M48.0285,4.00932L49.134,4.00932M50.6931,4.00932L51.7986,4.00932M48.0285,3.98097L49.134,3.98097M50.6931,3.98097L51.7986,3.98097M48.0285,3.95263L49.134,3.95263M50.6931,3.95263L51.7986,3.95263M48.0285,3.92428L49.134,3.92428M50.6931,3.92428L51.7986,3.92428M48.0285,3.89593L49.134,3.89593M50.6931,3.89593L51.7986,3.89593M48.0285,3.86759L49.134,3.86759M50.6931,3.86759L51.7986,3.86759M48.0285,3.83924L49.134,3.83924M50.6931,3.83924L51.7986,3.83924M48.0285,3.8109L49.134,3.8109M50.6931,3.8109L51.7986,3.8109M48.0285,3.78255L49.134,3.78255M50.6931,3.78255L51.7986,3.78255M48.0285,3.7542L49.134,3.7542M50.6931,3.7542L51.7986,3.7542M48.0285,3.72586L49.134,3.72586M50.6931,3.72586L51.7986,3.72586M48.0285,3.69751L49.134,3.69751M50.6931,3.69751L51.7986,3.69751M48.0285,3.66916L49.134,3.66916M50.6931,3.66916L51.7986,3.66916M48.0285,3.64082L49.134,3.64082M50.6931,3.64082L51.7986,3.64082M48.0285,3.61247L49.134,3.61247M50.6931,3.61247L51.7986,3.61247M48.0285,3.58412L49.1404,3.58412M50.6931,3.58412L51.7986,3.58412M48.0285,3.55578L49.1466,3.55578M50.6931,3.55578L51.7986,3.55578M48.0285,3.52743L49.153,3.52743M50.6931,3.52743L51.7986,3.52743M48.0285,3.49908L49.1592,3.49908M50.6931,3.49908L51.7964,3.49908M48.0285,3.47074L49.1656,3.47074M50.6891,3.47074L51.7943,3.47074M48.0285,3.44239L49.1718,3.44239M50.685,3.44239L51.792,3.44239M48.0285,3.41405L49.1782,3.41405M50.6809,3.41405L51.7899,3.41405M48.0285,3.3857L49.1844,3.3857M50.6769,3.3857L51.7877,3.3857M48.0285,3.35735L49.1908,3.35735M50.6729,3.35735L51.7855,3.35735M48.0285,3.32901L49.1988,3.32901M50.6688,3.32901L51.7833,3.32901M48.0285,3.30066L49.207,3.30066M50.6647,3.30066L51.7812,3.30066M48.0285,3.27231L49.215,3.27231M50.6553,3.27231L51.779,3.27231M48.0285,3.24397L49.2232,3.24397M50.6459,3.24397L51.7768,3.24397M48.0285,3.21562L49.2312,3.21562M50.6364,3.21562L51.7746,3.21562M48.0285,3.18727L49.2394,3.18727M50.6269,3.18727L51.7725,3.18727M48.0285,3.15893L49.2474,3.15893M50.6175,3.15893L51.7702,3.15893M48.0285,3.13058L49.2644,3.13058M50.6081,3.13058L51.7677,3.13058M48.0285,3.10224L49.2815,3.10224M50.5911,3.10224L51.7651,3.10224M48.0285,3.07389L49.2985,3.07389M50.574,3.07389L51.7625,3.07389M48.0285,3.04554L49.3155,3.04554M50.557,3.04554L51.7599,3.04554M48.0285,3.0172L49.3325,3.0172M50.54,3.0172L51.7573,3.0172M48.0285,2.98885L49.3551,2.98885M50.523,2.98885L51.7548,2.98885M48.0285,2.9605L49.3778,2.9605M50.5017,2.9605L51.7522,2.9605M48.0285,2.93216L49.4005,2.93216M50.4805,2.93216L51.7496,2.93216M48.0285,2.90381L49.4232,2.90381M50.4593,2.90381L51.747,2.90381M48.0285,2.87546L49.4459,2.87546M50.438,2.87546L51.7445,2.87546M48.0285,2.84712L49.4931,2.84712M50.4002,2.84712L51.7419,2.84712M48.0285,2.81877L49.5403,2.81877M50.3624,2.81877L51.7306,2.81877M48.0285,2.79042L49.5876,2.79042M50.3246,2.79042L51.7193,2.79042M48.0285,2.76208L49.786,2.76208M50.1546,2.76208L51.7079,2.76208M48.0285,2.73373L51.6966,2.73373M48.0285,2.70539L51.6852,2.70539M48.0285,2.67704L51.6739,2.67704M48.0285,2.64869L51.6625,2.64869M48.0285,2.62035L51.6512,2.62035M48.0285,2.592L51.6398,2.592M48.0285,2.56365L51.6285,2.56365M48.0285,2.53531L49.0774,2.53531M49.1057,2.53531L51.6128,2.53531M48.0285,2.50696L49.0774,2.50696M49.1246,2.50696L51.597,2.50696M48.0285,2.47861L49.0774,2.47861M49.1435,2.47861L51.5813,2.47861M48.0301,2.45027L49.0774,2.45027M49.1624,2.45027L51.5655,2.45027M48.0317,2.42192L49.0774,2.42192M49.1813,2.42192L51.5498,2.42192M48.0333,2.39358L49.0774,2.39358M49.2002,2.39358L51.5341,2.39358M48.0348,2.36523L49.0774,2.36523M49.2191,2.36523L51.5183,2.36523M48.0364,2.33688L49.0774,2.33688M49.2417,2.33688L51.5025,2.33688M48.038,2.30854L49.0774,2.30854M49.2644,2.30854L51.4868,2.30854M48.0396,2.28019L49.0774,2.28019M49.2871,2.28019L51.4585,2.28019M48.0411,2.25184L49.0774,2.25184M49.3098,2.25184L51.4301,2.25184M48.0427,2.2235L49.0774,2.2235M49.3325,2.2235L51.4017,2.2235M48.0443,2.19515L49.0774,2.19515M49.375,2.19515L51.3734,2.19515M48.0459,2.1668L49.0774,2.1668M49.4175,2.1668L51.3451,2.1668M48.0474,2.13846L49.0774,2.13846M49.46,2.13846L51.3167,2.13846M48.049,2.11011L49.0774,2.11011M49.5025,2.11011L51.2657,2.11011M48.0506,2.08176L49.0774,2.08176M49.5498,2.08176L51.2147,2.08176M48.0522,2.05342L49.0774,2.05342M49.5971,2.05342L51.1636,2.05342M48.0537,2.02507L49.0774,2.02507M49.6443,2.02507L51.1127,2.02507M48.0553,1.99673L49.0774,1.99673M49.7293,1.99673L51.0616,1.99673M49.8144,1.96838L50.9482,1.96838M49.8994,1.94003L50.8348,1.94003M49.9844,1.91169L50.7215,1.91169M50.1546,1.88334L50.523,1.88334"/>
    </g>
   </g>
  </g>
  <g >
   <title >element:LOGO5</title>
   <g >
    <title >package:SFE_LOGO_NAME_FLAME_.1</title>
   </g>
  </g>
  <g >
   <title >element:STANDOFF1</title>
   <g >
    <title >package:STAND-OFF</title>
   </g>
  </g>
  <g >
   <title >element:STANDOFF2</title>
   <g >
    <title >package:STAND-OFF</title>
   </g>
  </g>
  <g >
   <title >element:U1</title>
   <g >
    <title >package:SHT1X</title>
    <line  stroke="white" stroke-linecap="round" y1="17.4047" x1="34.4835" y2="14.7118" stroke-width="0.576" x2="34.4835"/>
    <line  stroke="white" stroke-linecap="round" y1="14.7118" x1="34.4835" y2="14.7118" stroke-width="0.576" x2="48.3165"/>
    <line  stroke="white" stroke-linecap="round" y1="14.7118" x1="48.3165" y2="17.263" stroke-width="0.576" x2="48.3165"/>
    <line  stroke="white" stroke-linecap="round" y1="32.9953" x1="48.3165" y2="35.6882" stroke-width="0.576" x2="48.3165"/>
    <line  stroke="white" stroke-linecap="round" y1="35.6882" x1="48.3165" y2="35.6882" stroke-width="0.576" x2="34.4835"/>
    <line  stroke="white" stroke-linecap="round" y1="35.6882" x1="34.4835" y2="32.9953" stroke-width="0.576" x2="34.4835"/>
    <line  stroke="white" stroke-linecap="round" y1="19.2189" x1="38.7071" y2="19.2189" stroke-width="0.576" x2="44.0929"/>
    <line  stroke="white" stroke-linecap="round" y1="19.2189" x1="44.0929" y2="20.9197" stroke-width="0.576" x2="44.0929"/>
    <line  stroke="white" stroke-linecap="round" y1="20.9197" x1="44.0929" y2="20.9197" stroke-width="0.576" x2="38.7071"/>
    <line  stroke="white" stroke-linecap="round" y1="20.9197" x1="38.7071" y2="19.2189" stroke-width="0.576" x2="38.7071"/>
    <circle  fill="none" cx="30.5433" cy="16.2142" stroke="white" r="0.267307" stroke-width="0.576"/>
   </g>
  </g>
 </g>
 <g  id="copper1">
  <g  id="copper0">
   <circle  fill="none" cx="3.6" cy="36" connectorname="SCK" stroke="#F7BD13" r="2.052" id="connector4pad" stroke-width="1.224"/>
   <rect  width="4.104" x="1.548" y="33.948" fill="none" height="4.104" stroke="#F7BD13" stroke-width="1.224"/>
   <circle  fill="none" cx="3.6" cy="28.8" connectorname="DATA" stroke="#F7BD13" r="2.052" id="connector5pad" stroke-width="1.224"/>
   <circle  fill="none" cx="3.6" cy="21.6" connectorname="VCC" stroke="#F7BD13" r="2.052" id="connector6pad" stroke-width="1.224"/>
   <circle  fill="none" cx="3.6" cy="14.4" connectorname="GND" stroke="#F7BD13" r="2.052" id="connector7pad" stroke-width="1.224"/>
  </g>
 </g>
</svg>
