<?xml version='1.0' encoding='UTF-8' standalone='no'?>
<!-- Created with Fritzing (http://www.fritzing.org/) -->
<svg xmlns="http://www.w3.org/2000/svg"  width="2.97071in" x="0in" version="1.2" y="0in" height="2.1in" viewBox="0 0 213.891 151.2" baseProfile="tiny">
 <desc >Fritzing footprint generated by brd2svg</desc>
 <g  id="silkscreen">
  <path  fill="none" stroke="white" stroke-width="0.576" d="M44.1067,143.739L44.1067,7.46057L51.2873,0.288L202.08,0.288L205.67,3.87428L205.67,36.1508L212.851,43.3234L212.851,136.567L205.67,143.739L205.67,150.912L51.2873,150.912L44.1067,143.739M115.02,40.252a0.916726,0.916726,0,1,0,1.83345,0,0.916726,0.916726,0,1,0,-1.83345,0zM115.02,31.748a0.916726,0.916726,0,1,0,1.83345,0,0.916726,0.916726,0,1,0,-1.83345,0z"/>
  <g >
   <title >element:J1</title>
   <g >
    <title >package:5-PIN-DIN-RA-PCB-NEW</title>
    <line  stroke="white" stroke-linecap="round" y1="24.2362" x1="43.937" y2="79.5118" stroke-width="0.576" x2="43.937"/>
    <line  stroke="white" stroke-linecap="round" y1="83.7641" x1="46.7716" y2="83.7641" stroke-width="0.576" x2="49.8897"/>
    <line  stroke="white" stroke-linecap="round" y1="83.7641" x1="49.8897" y2="79.5118" stroke-width="0.576" x2="49.8897"/>
    <line  stroke="white" stroke-linecap="round" y1="79.5118" x1="49.8897" y2="79.5118" stroke-width="0.576" x2="97.7954"/>
    <line  stroke="white" stroke-linecap="round" y1="79.5118" x1="97.7954" y2="69.5905" stroke-width="0.576" x2="97.7954"/>
    <line  stroke="white" stroke-linecap="round" y1="59.6693" x1="97.7954" y2="48.3307" stroke-width="0.576" x2="97.7954"/>
    <line  stroke="white" stroke-linecap="round" y1="38.4095" x1="97.7954" y2="28.4882" stroke-width="0.576" x2="97.7954"/>
    <line  stroke="white" stroke-linecap="round" y1="28.4882" x1="97.7954" y2="28.4882" stroke-width="0.576" x2="49.8897"/>
    <line  stroke="white" stroke-linecap="round" y1="24.2362" x1="46.7716" y2="24.2362" stroke-width="0.576" x2="43.937"/>
    <line  stroke="white" stroke-linecap="round" y1="28.4882" x1="49.8897" y2="79.5118" stroke-width="0.576" x2="49.8897"/>
    <line  stroke="white" stroke-linecap="round" y1="79.5118" x1="43.937" y2="79.5118" stroke-width="0.576" x2="46.7716"/>
    <line  stroke="white" stroke-linecap="round" y1="79.5118" x1="46.7716" y2="83.7641" stroke-width="0.576" x2="46.7716"/>
    <line  stroke="white" stroke-linecap="round" y1="28.4882" x1="49.6063" y2="28.4882" stroke-width="0.576" x2="46.7716"/>
    <line  stroke="white" stroke-linecap="round" y1="28.4882" x1="46.7716" y2="24.2362" stroke-width="0.576" x2="46.7716"/>
    <line  stroke="white" stroke-linecap="round" y1="69.5905" x1="90.7085" y2="59.6693" stroke-width="0.576" x2="90.7085"/>
    <line  stroke="white" stroke-linecap="round" y1="48.3307" x1="90.7085" y2="38.4095" stroke-width="0.576" x2="90.7085"/>
    <line  stroke="white" stroke-linecap="round" y1="38.4095" x1="97.7954" y2="38.4095" stroke-width="0.576" x2="90.7085"/>
    <line  stroke="white" stroke-linecap="round" y1="69.5905" x1="97.7954" y2="69.5905" stroke-width="0.576" x2="90.7085"/>
    <line  stroke="white" stroke-linecap="round" y1="59.6693" x1="97.7954" y2="59.6693" stroke-width="0.576" x2="90.7085"/>
    <line  stroke="white" stroke-linecap="round" y1="48.3307" x1="97.7954" y2="48.3307" stroke-width="0.576" x2="90.7085"/>
   </g>
  </g>
  <g >
   <title >element:J2</title>
   <g >
    <title >package:5-PIN-DIN-RA-PCB-NEW</title>
    <line  stroke="white" stroke-linecap="round" y1="81.8359" x1="43.937" y2="137.112" stroke-width="0.576" x2="43.937"/>
    <line  stroke="white" stroke-linecap="round" y1="141.364" x1="46.7716" y2="141.364" stroke-width="0.576" x2="49.8897"/>
    <line  stroke="white" stroke-linecap="round" y1="141.364" x1="49.8897" y2="137.112" stroke-width="0.576" x2="49.8897"/>
    <line  stroke="white" stroke-linecap="round" y1="137.112" x1="49.8897" y2="137.112" stroke-width="0.576" x2="97.7954"/>
    <line  stroke="white" stroke-linecap="round" y1="137.112" x1="97.7954" y2="127.191" stroke-width="0.576" x2="97.7954"/>
    <line  stroke="white" stroke-linecap="round" y1="117.269" x1="97.7954" y2="105.931" stroke-width="0.576" x2="97.7954"/>
    <line  stroke="white" stroke-linecap="round" y1="96.0091" x1="97.7954" y2="86.0882" stroke-width="0.576" x2="97.7954"/>
    <line  stroke="white" stroke-linecap="round" y1="86.0882" x1="97.7954" y2="86.0882" stroke-width="0.576" x2="49.8897"/>
    <line  stroke="white" stroke-linecap="round" y1="81.8359" x1="46.7716" y2="81.8359" stroke-width="0.576" x2="43.937"/>
    <line  stroke="white" stroke-linecap="round" y1="86.0882" x1="49.8897" y2="137.112" stroke-width="0.576" x2="49.8897"/>
    <line  stroke="white" stroke-linecap="round" y1="137.112" x1="43.937" y2="137.112" stroke-width="0.576" x2="46.7716"/>
    <line  stroke="white" stroke-linecap="round" y1="137.112" x1="46.7716" y2="141.364" stroke-width="0.576" x2="46.7716"/>
    <line  stroke="white" stroke-linecap="round" y1="86.0882" x1="49.6063" y2="86.0882" stroke-width="0.576" x2="46.7716"/>
    <line  stroke="white" stroke-linecap="round" y1="86.0882" x1="46.7716" y2="81.8359" stroke-width="0.576" x2="46.7716"/>
    <line  stroke="white" stroke-linecap="round" y1="127.191" x1="90.7085" y2="117.269" stroke-width="0.576" x2="90.7085"/>
    <line  stroke="white" stroke-linecap="round" y1="105.931" x1="90.7085" y2="96.0091" stroke-width="0.576" x2="90.7085"/>
    <line  stroke="white" stroke-linecap="round" y1="96.0091" x1="97.7954" y2="96.0091" stroke-width="0.576" x2="90.7085"/>
    <line  stroke="white" stroke-linecap="round" y1="127.191" x1="97.7954" y2="127.191" stroke-width="0.576" x2="90.7085"/>
    <line  stroke="white" stroke-linecap="round" y1="117.269" x1="97.7954" y2="117.269" stroke-width="0.576" x2="90.7085"/>
    <line  stroke="white" stroke-linecap="round" y1="105.931" x1="97.7954" y2="105.931" stroke-width="0.576" x2="90.7085"/>
   </g>
  </g>
  <g >
   <title >element:J3</title>
   <g >
    <title >package:UNO_R3_SHIELD</title>
   </g>
  </g>
  <g >
   <title >element:LOGO1</title>
   <g >
    <title >package:SFE_LOGO_NAME_FLAME_.2</title>
   </g>
  </g>
  <g >
   <title >element:RV1</title>
   <g >
    <title >package:ALPS_POT</title>
    <line  stroke="white" stroke-linecap="round" y1="75.1745" x1="179.745" y2="71.4047" stroke-width="0.576" x2="179.745"/>
    <line  stroke="white" stroke-linecap="round" y1="58.0819" x1="179.745" y2="57.2315" stroke-width="0.576" x2="179.745"/>
    <line  stroke="white" stroke-linecap="round" y1="47.2252" x1="213.891" y2="47.2252" stroke-width="0.576" x2="203.343"/>
    <line  stroke="white" stroke-linecap="round" y1="75.1745" x1="194.088" y2="75.1745" stroke-width="0.576" x2="179.745"/>
    <line  stroke="white" stroke-linecap="round" y1="47.2252" x1="194.091" y2="47.2252" stroke-width="0.576" x2="179.745"/>
    <line  stroke="white" stroke-linecap="round" y1="75.1745" x1="213.891" y2="75.1745" stroke-width="0.576" x2="203.343"/>
    <line  stroke="white" stroke-linecap="round" y1="75.1745" x1="213.891" y2="47.2252" stroke-width="0.576" x2="213.891"/>
    <line  stroke="white" stroke-linecap="round" y1="50.9953" x1="179.745" y2="47.3103" stroke-width="0.576" x2="179.745"/>
    <line  stroke="white" stroke-linecap="round" y1="65.1685" x1="179.745" y2="64.3181" stroke-width="0.576" x2="179.745"/>
   </g>
  </g>
  <g >
   <title >element:RV2</title>
   <g >
    <title >package:ALPS_POT</title>
    <line  stroke="white" stroke-linecap="round" y1="129.174" x1="179.745" y2="125.405" stroke-width="0.576" x2="179.745"/>
    <line  stroke="white" stroke-linecap="round" y1="112.082" x1="179.745" y2="111.231" stroke-width="0.576" x2="179.745"/>
    <line  stroke="white" stroke-linecap="round" y1="101.226" x1="213.891" y2="101.226" stroke-width="0.576" x2="203.343"/>
    <line  stroke="white" stroke-linecap="round" y1="129.174" x1="194.088" y2="129.174" stroke-width="0.576" x2="179.745"/>
    <line  stroke="white" stroke-linecap="round" y1="101.226" x1="194.091" y2="101.226" stroke-width="0.576" x2="179.745"/>
    <line  stroke="white" stroke-linecap="round" y1="129.174" x1="213.891" y2="129.174" stroke-width="0.576" x2="203.343"/>
    <line  stroke="white" stroke-linecap="round" y1="129.174" x1="213.891" y2="101.226" stroke-width="0.576" x2="213.891"/>
    <line  stroke="white" stroke-linecap="round" y1="104.995" x1="179.745" y2="101.31" stroke-width="0.576" x2="179.745"/>
    <line  stroke="white" stroke-linecap="round" y1="119.169" x1="179.745" y2="118.318" stroke-width="0.576" x2="179.745"/>
   </g>
  </g>
  <g >
   <title >element:S2</title>
   <g >
    <title >package:AYZ0202</title>
    <line  stroke="white" stroke-linecap="round" y1="25.7953" x1="120.897" y2="25.7953" stroke-width="0.576" x2="110.976"/>
    <line  stroke="white" stroke-linecap="round" y1="25.7953" x1="110.976" y2="46.2047" stroke-width="0.576" x2="110.976"/>
    <line  stroke="white" stroke-linecap="round" y1="46.2047" x1="110.976" y2="46.2047" stroke-width="0.576" x2="120.897"/>
    <line  stroke="white" stroke-linecap="round" y1="46.2047" x1="120.897" y2="25.7953" stroke-width="0.576" x2="120.897"/>
   </g>
  </g>
  <g >
   <title >element:S3</title>
   <g >
    <title >package:TACTILE-PTH-12MM</title>
    <line  stroke="white" stroke-linecap="round" y1="103.861" x1="134.929" y2="101.027" stroke-width="0.576" x2="134.929"/>
    <line  stroke="white" stroke-linecap="round" y1="98.1922" x1="137.764" y2="98.1922" stroke-width="0.576" x2="166.11"/>
    <line  stroke="white" stroke-linecap="round" y1="101.027" x1="168.945" y2="103.861" stroke-width="0.576" x2="168.945"/>
    <line  stroke="white" stroke-linecap="round" y1="112.365" x1="168.945" y2="118.035" stroke-width="0.576" x2="168.945"/>
    <line  stroke="white" stroke-linecap="round" y1="126.539" x1="168.945" y2="129.373" stroke-width="0.576" x2="168.945"/>
    <line  stroke="white" stroke-linecap="round" y1="132.208" x1="166.11" y2="132.208" stroke-width="0.576" x2="137.764"/>
    <line  stroke="white" stroke-linecap="round" y1="129.373" x1="134.929" y2="126.539" stroke-width="0.576" x2="134.929"/>
    <line  stroke="white" stroke-linecap="round" y1="118.035" x1="134.929" y2="112.365" stroke-width="0.576" x2="134.929"/>
    <path  fill="none" stroke="white" stroke-width="0.576" d="M137.764,98.1922A2.83465,2.83465,0,0,0,134.929,101.027"/>
    <path  fill="none" stroke="white" stroke-width="0.576" d="M168.945,101.027A2.83465,2.83465,0,0,0,166.11,98.1922"/>
    <path  fill="none" stroke="white" stroke-width="0.576" d="M166.11,132.208A2.83465,2.83465,0,0,0,168.945,129.373"/>
    <path  fill="none" stroke="white" stroke-width="0.576" d="M134.929,129.373A2.83465,2.83465,0,0,0,137.764,132.208"/>
    <circle  fill="none" cx="151.937" cy="115.2" stroke="white" r="9.92124" stroke-width="0.576"/>
    <circle  fill="none" cx="139.181" cy="102.444" stroke="white" r="0.850392" stroke-width="1.98426"/>
    <circle  fill="none" cx="164.693" cy="102.444" stroke="white" r="0.850392" stroke-width="1.98426"/>
    <circle  fill="none" cx="164.693" cy="127.956" stroke="white" r="0.850392" stroke-width="1.98426"/>
    <circle  fill="none" cx="139.181" cy="127.956" stroke="white" r="0.850392" stroke-width="1.98426"/>
   </g>
  </g>
  <g >
   <title >element:S4</title>
   <g >
    <title >package:TACTILE-PTH-12MM</title>
    <line  stroke="white" stroke-linecap="round" y1="64.2614" x1="134.929" y2="61.4268" stroke-width="0.576" x2="134.929"/>
    <line  stroke="white" stroke-linecap="round" y1="58.5922" x1="137.764" y2="58.5922" stroke-width="0.576" x2="166.11"/>
    <line  stroke="white" stroke-linecap="round" y1="61.4268" x1="168.945" y2="64.2614" stroke-width="0.576" x2="168.945"/>
    <line  stroke="white" stroke-linecap="round" y1="72.7654" x1="168.945" y2="78.4346" stroke-width="0.576" x2="168.945"/>
    <line  stroke="white" stroke-linecap="round" y1="86.9386" x1="168.945" y2="89.7732" stroke-width="0.576" x2="168.945"/>
    <line  stroke="white" stroke-linecap="round" y1="92.6078" x1="166.11" y2="92.6078" stroke-width="0.576" x2="137.764"/>
    <line  stroke="white" stroke-linecap="round" y1="89.7732" x1="134.929" y2="86.9386" stroke-width="0.576" x2="134.929"/>
    <line  stroke="white" stroke-linecap="round" y1="78.4346" x1="134.929" y2="72.7654" stroke-width="0.576" x2="134.929"/>
    <path  fill="none" stroke="white" stroke-width="0.576" d="M137.764,58.5922A2.83465,2.83465,0,0,0,134.929,61.4268"/>
    <path  fill="none" stroke="white" stroke-width="0.576" d="M168.945,61.4268A2.83465,2.83465,0,0,0,166.11,58.5922"/>
    <path  fill="none" stroke="white" stroke-width="0.576" d="M166.11,92.6078A2.83465,2.83465,0,0,0,168.945,89.7732"/>
    <path  fill="none" stroke="white" stroke-width="0.576" d="M134.929,89.7732A2.83465,2.83465,0,0,0,137.764,92.6078"/>
    <circle  fill="none" cx="151.937" cy="75.6" stroke="white" r="9.92124" stroke-width="0.576"/>
    <circle  fill="none" cx="139.181" cy="62.8441" stroke="white" r="0.850392" stroke-width="1.98426"/>
    <circle  fill="none" cx="164.693" cy="62.8441" stroke="white" r="0.850392" stroke-width="1.98426"/>
    <circle  fill="none" cx="164.693" cy="88.3562" stroke="white" r="0.850392" stroke-width="1.98426"/>
    <circle  fill="none" cx="139.181" cy="88.3562" stroke="white" r="0.850392" stroke-width="1.98426"/>
   </g>
  </g>
  <g >
   <title >element:S5</title>
   <g >
    <title >package:TACTILE-PTH-12MM</title>
    <line  stroke="white" stroke-linecap="round" y1="24.6614" x1="134.929" y2="21.8268" stroke-width="0.576" x2="134.929"/>
    <line  stroke="white" stroke-linecap="round" y1="18.9922" x1="137.764" y2="18.9922" stroke-width="0.576" x2="166.11"/>
    <line  stroke="white" stroke-linecap="round" y1="21.8268" x1="168.945" y2="24.6614" stroke-width="0.576" x2="168.945"/>
    <line  stroke="white" stroke-linecap="round" y1="33.1654" x1="168.945" y2="38.8346" stroke-width="0.576" x2="168.945"/>
    <line  stroke="white" stroke-linecap="round" y1="47.3386" x1="168.945" y2="50.1732" stroke-width="0.576" x2="168.945"/>
    <line  stroke="white" stroke-linecap="round" y1="53.0078" x1="166.11" y2="53.0078" stroke-width="0.576" x2="137.764"/>
    <line  stroke="white" stroke-linecap="round" y1="50.1732" x1="134.929" y2="47.3386" stroke-width="0.576" x2="134.929"/>
    <line  stroke="white" stroke-linecap="round" y1="38.8346" x1="134.929" y2="33.1654" stroke-width="0.576" x2="134.929"/>
    <path  fill="none" stroke="white" stroke-width="0.576" d="M137.764,18.9922A2.83465,2.83465,0,0,0,134.929,21.8268"/>
    <path  fill="none" stroke="white" stroke-width="0.576" d="M168.945,21.8268A2.83465,2.83465,0,0,0,166.11,18.9922"/>
    <path  fill="none" stroke="white" stroke-width="0.576" d="M166.11,53.0078A2.83465,2.83465,0,0,0,168.945,50.1732"/>
    <path  fill="none" stroke="white" stroke-width="0.576" d="M134.929,50.1732A2.83465,2.83465,0,0,0,137.764,53.0078"/>
    <circle  fill="none" cx="151.937" cy="36" stroke="white" r="9.92124" stroke-width="0.576"/>
    <circle  fill="none" cx="139.181" cy="23.2441" stroke="white" r="0.850392" stroke-width="1.98426"/>
    <circle  fill="none" cx="164.693" cy="23.2441" stroke="white" r="0.850392" stroke-width="1.98426"/>
    <circle  fill="none" cx="164.693" cy="48.7559" stroke="white" r="0.850392" stroke-width="1.98426"/>
    <circle  fill="none" cx="139.181" cy="48.7559" stroke="white" r="0.850392" stroke-width="1.98426"/>
   </g>
  </g>
  <g >
   <title >element:U1</title>
   <g >
    <title >package:8-SMD</title>
    <line  stroke="white" stroke-linecap="round" y1="58.32" x1="101.897" y2="58.32" stroke-width="0.576" x2="128.897"/>
    <line  stroke="white" stroke-linecap="round" y1="58.32" x1="128.897" y2="79.56" stroke-width="0.576" x2="128.897"/>
    <line  stroke="white" stroke-linecap="round" y1="79.56" x1="128.897" y2="79.56" stroke-width="0.576" x2="101.897"/>
    <line  stroke="white" stroke-linecap="round" y1="79.56" x1="101.897" y2="58.32" stroke-width="0.576" x2="101.897"/>
    <circle  fill="none" cx="105.278" cy="75.685" stroke="white" r="1.6988" stroke-width="0.36"/>
    <circle  fill="none" cx="98.0784" cy="79.285" stroke="white" r="1.08" stroke-width="0"/>
   </g>
  </g>
  <line  fill="none" stroke="white" fill-opacity="1" y1="83.7641" x1="32.5984" y2="83.7641" stroke-width="0.576" x2="43.937"/>
  <line  fill="none" stroke="white" fill-opacity="1" y1="24.2362" x1="32.5984" y2="24.2362" stroke-width="0.576" x2="43.937"/>
  <line  fill="none" stroke="white" fill-opacity="1" y1="83.7641" x1="32.5984" y2="24.2362" stroke-width="0.576" x2="32.5984"/>
  <line  fill="none" stroke="white" fill-opacity="1" y1="141.364" x1="32.5984" y2="141.364" stroke-width="0.576" x2="43.937"/>
  <line  fill="none" stroke="white" fill-opacity="1" y1="81.8359" x1="32.5984" y2="81.8359" stroke-width="0.576" x2="43.937"/>
  <line  fill="none" stroke="white" fill-opacity="1" y1="141.364" x1="32.5984" y2="81.8359" stroke-width="0.576" x2="32.5984"/>
  <line  fill="none" stroke="white" fill-opacity="1" y1="150.912" x1="0.288" y2="150.912" stroke-width="0.576" x2="43.937"/>
  <line  fill="none" stroke="white" fill-opacity="1" y1="0.288" x1="0.288" y2="0.288" stroke-width="0.576" x2="43.937"/>
  <line  fill="none" stroke="white" fill-opacity="1" y1="150.912" x1="0.288" y2="0.288" stroke-width="0.576" x2="0.288"/>
  <line  fill="none" stroke="white" fill-opacity="1" y1="75.1745" x1="213.137" y2="75.1745" stroke-width="0.576" x2="213.603"/>
  <line  fill="none" stroke="white" fill-opacity="1" y1="47.2252" x1="213.137" y2="47.2252" stroke-width="0.576" x2="213.603"/>
  <line  fill="none" stroke="white" fill-opacity="1" y1="75.1745" x1="213.603" y2="47.2252" stroke-width="0.576" x2="213.603"/>
  <line  fill="none" stroke="white" fill-opacity="1" y1="129.174" x1="213.137" y2="129.174" stroke-width="0.576" x2="213.603"/>
  <line  fill="none" stroke="white" fill-opacity="1" y1="101.226" x1="213.137" y2="101.226" stroke-width="0.576" x2="213.603"/>
  <line  fill="none" stroke="white" fill-opacity="1" y1="129.174" x1="213.603" y2="101.226" stroke-width="0.576" x2="213.603"/>
 </g>
 <g  id="copper1">
  <g  id="copper0">
   <circle  fill="none" cx="86.4569" cy="39.8268" connectorname="PIN5" stroke="#F7BD13" r="2.61212" id="connector8pad" stroke-width="1.25574"/>
   <circle  fill="none" cx="119.537" cy="144" connectorname="3.3V" stroke="#F7BD13" r="2.052" id="connector18pad" stroke-width="1.224"/>
   <circle  fill="none" cx="126.737" cy="144" connectorname="VCC" stroke="#F7BD13" r="2.052" id="connector19pad" stroke-width="1.224"/>
   <circle  fill="none" cx="162.737" cy="144" connectorname="A0" stroke="#F7BD13" r="2.052" id="connector20pad" stroke-width="1.224"/>
   <circle  fill="none" cx="169.937" cy="144" connectorname="A1" stroke="#F7BD13" r="2.052" id="connector21pad" stroke-width="1.224"/>
   <circle  fill="none" cx="177.137" cy="144" connectorname="A2" stroke="#F7BD13" r="2.052" id="connector22pad" stroke-width="1.224"/>
   <circle  fill="none" cx="184.337" cy="144" connectorname="A3" stroke="#F7BD13" r="2.052" id="connector23pad" stroke-width="1.224"/>
   <circle  fill="none" cx="191.537" cy="144" connectorname="A4" stroke="#F7BD13" r="2.052" id="connector24pad" stroke-width="1.224"/>
   <circle  fill="none" cx="198.737" cy="144" connectorname="A5" stroke="#F7BD13" r="2.052" id="connector25pad" stroke-width="1.224"/>
   <circle  fill="none" cx="87.1373" cy="7.2" connectorname="AREF" stroke="#F7BD13" r="2.052" id="connector26pad" stroke-width="1.224"/>
   <circle  fill="none" cx="184.337" cy="7.2" connectorname="D2" stroke="#F7BD13" r="2.052" id="connector27pad" stroke-width="1.224"/>
   <circle  fill="none" cx="177.137" cy="7.2" connectorname="D3" stroke="#F7BD13" r="2.052" id="connector28pad" stroke-width="1.224"/>
   <circle  fill="none" cx="169.937" cy="7.2" connectorname="D4" stroke="#F7BD13" r="2.052" id="connector29pad" stroke-width="1.224"/>
   <circle  fill="none" cx="162.737" cy="7.2" connectorname="D5" stroke="#F7BD13" r="2.052" id="connector30pad" stroke-width="1.224"/>
   <circle  fill="none" cx="155.537" cy="7.2" connectorname="D6" stroke="#F7BD13" r="2.052" id="connector31pad" stroke-width="1.224"/>
   <circle  fill="none" cx="148.337" cy="7.2" connectorname="D7" stroke="#F7BD13" r="2.052" id="connector32pad" stroke-width="1.224"/>
   <circle  fill="none" cx="137.537" cy="7.2" connectorname="SOFT-RX" stroke="#F7BD13" r="2.052" id="connector33pad" stroke-width="1.224"/>
   <circle  fill="none" cx="130.337" cy="7.2" connectorname="SOFT-TX" stroke="#F7BD13" r="2.052" id="connector34pad" stroke-width="1.224"/>
   <circle  fill="none" cx="123.137" cy="7.2" connectorname="D10" stroke="#F7BD13" r="2.052" id="connector35pad" stroke-width="1.224"/>
   <circle  fill="none" cx="115.937" cy="7.2" connectorname="D11" stroke="#F7BD13" r="2.052" id="connector36pad" stroke-width="1.224"/>
   <circle  fill="none" cx="108.737" cy="7.2" connectorname="D12" stroke="#F7BD13" r="2.052" id="connector37pad" stroke-width="1.224"/>
   <circle  fill="none" cx="101.537" cy="7.2" connectorname="D13" stroke="#F7BD13" r="2.052" id="connector38pad" stroke-width="1.224"/>
   <circle  fill="none" cx="133.937" cy="144" connectorname="GND" stroke="#F7BD13" r="2.052" id="connector39pad" stroke-width="1.224"/>
   <circle  fill="none" cx="141.137" cy="144" connectorname="GND" stroke="#F7BD13" r="2.052" id="connector40pad" stroke-width="1.224"/>
   <circle  fill="none" cx="94.3373" cy="7.2" connectorname="GND" stroke="#F7BD13" r="2.052" id="connector41pad" stroke-width="1.224"/>
   <circle  fill="none" cx="105.137" cy="144" connectorname="IOREF" stroke="#F7BD13" r="2.052" id="connector42pad" stroke-width="1.224"/>
   <circle  fill="none" cx="97.9373" cy="144" connectorname="NC" stroke="#F7BD13" r="2.052" id="connector43pad" stroke-width="1.224"/>
   <circle  fill="none" cx="112.337" cy="144" connectorname="RESET" stroke="#F7BD13" r="2.052" id="connector44pad" stroke-width="1.224"/>
   <circle  fill="none" cx="198.737" cy="7.2" connectorname="RX-I" stroke="#F7BD13" r="2.052" id="connector45pad" stroke-width="1.224"/>
   <circle  fill="none" cx="72.7373" cy="7.2" connectorname="SCL" stroke="#F7BD13" r="2.052" id="connector46pad" stroke-width="1.224"/>
   <circle  fill="none" cx="79.9373" cy="7.2" connectorname="SDA" stroke="#F7BD13" r="2.052" id="connector47pad" stroke-width="1.224"/>
   <circle  fill="none" cx="191.537" cy="7.2" connectorname="HARD-TX" stroke="#F7BD13" r="2.052" id="connector48pad" stroke-width="1.224"/>
   <circle  fill="none" cx="148.337" cy="144" connectorname="VIN" stroke="#F7BD13" r="2.052" id="connector49pad" stroke-width="1.224"/>
  </g>
 </g>
</svg>
