<?xml version='1.0' encoding='UTF-8' standalone='no'?>
<!-- Created with Fritzing (http://www.fritzing.org/) -->
<svg xmlns="http://www.w3.org/2000/svg"  width="0.9in" x="0in" version="1.2" y="0in" height="2.40073in" viewBox="0 0 64.8 172.853" baseProfile="tiny">
 <desc >Fritzing footprint generated by brd2svg</desc>
 <g  id="silkscreen">
  <path  fill="none" stroke="white" stroke-width="0.576" d="M7.42399,0.340548A6.912,6.912,0,0,0,0.288,7.51658L0.288,151.037L7.42399,172.565L14.56,172.565L21.696,151.037L21.696,46.9846A3.312,3.312,0,0,1,25.264,43.3966L39.536,43.3966A3.312,3.312,0,0,1,43.104,46.9846L43.104,151.037L50.24,172.565L57.376,172.565L64.512,151.037L64.512,7.51658A6.912,6.912,0,0,0,57.376,0.340548L7.42399,0.340548M2.808,7.2527a4.392,4.392,0,1,1,8.784,0,4.392,4.392,0,1,1,-8.784,0zM53.208,7.2527a4.392,4.392,0,1,1,8.784,0,4.392,4.392,0,1,1,-8.784,0z"/>
  <g >
   <title >element:JP1</title>
   <g >
    <title >package:MOLEX-1X3</title>
    <line  stroke="white" stroke-linecap="round" y1="9.4127" x1="21.6" y2="25.2527" stroke-width="0.36" x2="21.6"/>
    <line  stroke="white" stroke-linecap="round" y1="9.4127" x1="43.2" y2="25.2527" stroke-width="0.36" x2="43.2"/>
    <line  stroke="white" stroke-linecap="round" y1="9.4127" x1="43.2" y2="9.4127" stroke-width="0.36" x2="21.6"/>
    <line  stroke="white" stroke-linecap="round" y1="25.2527" x1="43.2" y2="25.2527" stroke-width="0.36" x2="39.6"/>
    <line  stroke="white" stroke-linecap="round" y1="25.2527" x1="39.6" y2="25.2527" stroke-width="0.36" x2="25.2"/>
    <line  stroke="white" stroke-linecap="round" y1="25.2527" x1="25.2" y2="25.2527" stroke-width="0.36" x2="21.6"/>
    <line  stroke="white" stroke-linecap="round" y1="25.2527" x1="25.2" y2="21.6527" stroke-width="0.36" x2="25.2"/>
    <line  stroke="white" stroke-linecap="round" y1="21.6527" x1="25.2" y2="21.6527" stroke-width="0.36" x2="39.6"/>
    <line  stroke="white" stroke-linecap="round" y1="21.6527" x1="39.6" y2="25.2527" stroke-width="0.36" x2="39.6"/>
   </g>
  </g>
  <g >
   <title >element:JP2</title>
   <g >
    <title >package:SCREWTERMINAL-3.5MM-3_LOCK.007S</title>
    <line  stroke="white" stroke-linecap="round" y1="19.8426" x1="48.7837" y2="19.8426" stroke-width="0.576" x2="15.9018"/>
    <line  stroke="white" stroke-linecap="round" y1="19.8426" x1="15.9018" y2="2.26772" stroke-width="0.576" x2="15.9018"/>
    <line  stroke="white" stroke-linecap="round" y1="2.26772" x1="15.9018" y2="0" stroke-width="0.576" x2="15.9018"/>
    <line  stroke="white" stroke-linecap="round" y1="0" x1="15.9018" y2="0" stroke-width="0.576" x2="48.7837"/>
    <line  stroke="white" stroke-linecap="round" y1="0" x1="48.7837" y2="2.26772" stroke-width="0.576" x2="48.7837"/>
    <line  stroke="white" stroke-linecap="round" y1="2.26772" x1="48.7837" y2="19.8426" stroke-width="0.576" x2="48.7837"/>
    <line  stroke="white" stroke-linecap="round" y1="2.26772" x1="15.9018" y2="2.26772" stroke-width="0.576" x2="48.7837"/>
   </g>
  </g>
  <g >
   <title >element:LOGO1</title>
   <g >
    <title >package:SFE_LOGO_NAME_FLAME_.1</title>
   </g>
  </g>
  <line  fill="none" stroke="white" fill-opacity="1" y1="0.288" x1="14.7679" y2="0.288" stroke-width="0.576" x2="49.9175"/>
  <line  fill="none" stroke="white" fill-opacity="1" y1="0.0527244" x1="14.7679" y2="0.288" stroke-width="0.576" x2="14.7679"/>
  <line  fill="none" stroke="white" fill-opacity="1" y1="0.0527244" x1="49.9175" y2="0.288" stroke-width="0.576" x2="49.9175"/>
 </g>
 <g  id="copper1">
  <g  id="copper0">
   <circle  fill="none" cx="25.2" cy="18.0527" connectorname="VCC" stroke="#F7BD13" r="2.052" id="connector2pad" stroke-width="1.224"/>
   <rect  width="4.104" x="23.148" y="16.0007" fill="none" height="4.104" stroke="#F7BD13" stroke-width="1.224"/>
   <circle  fill="none" cx="32.4" cy="18.0527" connectorname="GND" stroke="#F7BD13" r="2.052" id="connector3pad" stroke-width="1.224"/>
   <circle  fill="none" cx="39.6" cy="18.0527" connectorname="SIG" stroke="#F7BD13" r="2.052" id="connector4pad" stroke-width="1.224"/>
   <circle  fill="none" cx="42.768" cy="10.2047" connectorname="SIG" stroke="#F7BD13" r="2.29039" id="connector5pad" stroke-width="1.17922"/>
   <rect  width="4.58078" x="40.4776" y="7.91431" fill="none" height="4.58078" stroke="#F7BD13" stroke-width="1.17922"/>
   <circle  fill="none" cx="32.3428" cy="10.2047" connectorname="GND" stroke="#F7BD13" r="2.29039" id="connector6pad" stroke-width="1.17922"/>
   <circle  fill="none" cx="21.9174" cy="10.2047" connectorname="VCC" stroke="#F7BD13" r="2.29039" id="connector7pad" stroke-width="1.17922"/>
  </g>
 </g>
</svg>
