<?xml version='1.0' encoding='UTF-8' standalone='no'?>
<!-- Created with Fritzing (http://www.fritzing.org/) -->
<svg xmlns="http://www.w3.org/2000/svg"  width="1.1in" x="0in" version="1.2" y="0in" height="1.5252in" viewBox="0 0 79.2 109.814" baseProfile="tiny">
 <desc >Fritzing footprint generated by brd2svg</desc>
 <g  id="silkscreen">
  <path  fill="none" stroke="white" stroke-width="0.576" d="M78.912,109.526L0.288,109.526L0.288,23.5794L78.912,23.5794L78.912,109.526M51.5526,30.6142a4.24743,4.24743,0,1,0,8.49485,0,4.24743,4.24743,0,1,0,-8.49485,0zM19.1526,30.6142a4.24743,4.24743,0,1,0,8.49485,0,4.24743,4.24743,0,1,0,-8.49485,0zM67.608,30.6142a4.392,4.392,0,1,0,8.784,0,4.392,4.392,0,1,0,-8.784,0zM2.808,30.6142a4.392,4.392,0,1,0,8.784,0,4.392,4.392,0,1,0,-8.784,0zM67.608,102.614a4.392,4.392,0,1,0,8.784,0,4.392,4.392,0,1,0,-8.784,0zM2.808,102.614a4.392,4.392,0,1,0,8.784,0,4.392,4.392,0,1,0,-8.784,0z"/>
  <g >
   <title >element:JP1</title>
   <g >
    <title >package:1X03</title>
    <line  stroke="white" stroke-linecap="round" y1="81.0144" x1="63" y2="82.8144" stroke-width="0.576" x2="64.8"/>
    <line  stroke="white" stroke-linecap="round" y1="82.8144" x1="64.8" y2="86.4144" stroke-width="0.576" x2="64.8"/>
    <line  stroke="white" stroke-linecap="round" y1="86.4144" x1="64.8" y2="88.2144" stroke-width="0.576" x2="63"/>
    <line  stroke="white" stroke-linecap="round" y1="88.2144" x1="59.4" y2="86.4144" stroke-width="0.576" x2="57.6"/>
    <line  stroke="white" stroke-linecap="round" y1="86.4144" x1="57.6" y2="82.8144" stroke-width="0.576" x2="57.6"/>
    <line  stroke="white" stroke-linecap="round" y1="82.8144" x1="57.6" y2="81.0144" stroke-width="0.576" x2="59.4"/>
    <line  stroke="white" stroke-linecap="round" y1="68.4142" x1="64.8" y2="72.0144" stroke-width="0.576" x2="64.8"/>
    <line  stroke="white" stroke-linecap="round" y1="72.0144" x1="64.8" y2="73.8144" stroke-width="0.576" x2="63"/>
    <line  stroke="white" stroke-linecap="round" y1="73.8144" x1="59.4" y2="72.0144" stroke-width="0.576" x2="57.6"/>
    <line  stroke="white" stroke-linecap="round" y1="73.8144" x1="63" y2="75.6144" stroke-width="0.576" x2="64.8"/>
    <line  stroke="white" stroke-linecap="round" y1="75.6144" x1="64.8" y2="79.2144" stroke-width="0.576" x2="64.8"/>
    <line  stroke="white" stroke-linecap="round" y1="79.2144" x1="64.8" y2="81.0144" stroke-width="0.576" x2="63"/>
    <line  stroke="white" stroke-linecap="round" y1="81.0144" x1="59.4" y2="79.2144" stroke-width="0.576" x2="57.6"/>
    <line  stroke="white" stroke-linecap="round" y1="79.2144" x1="57.6" y2="75.6144" stroke-width="0.576" x2="57.6"/>
    <line  stroke="white" stroke-linecap="round" y1="75.6144" x1="57.6" y2="73.8144" stroke-width="0.576" x2="59.4"/>
    <line  stroke="white" stroke-linecap="round" y1="66.6142" x1="63" y2="66.6142" stroke-width="0.576" x2="59.4"/>
    <line  stroke="white" stroke-linecap="round" y1="68.4142" x1="64.8" y2="66.6142" stroke-width="0.576" x2="63"/>
    <line  stroke="white" stroke-linecap="round" y1="66.6142" x1="59.4" y2="68.4142" stroke-width="0.576" x2="57.6"/>
    <line  stroke="white" stroke-linecap="round" y1="72.0144" x1="57.6" y2="68.4142" stroke-width="0.576" x2="57.6"/>
    <line  stroke="white" stroke-linecap="round" y1="88.2144" x1="63" y2="88.2144" stroke-width="0.576" x2="59.4"/>
   </g>
  </g>
  <g >
   <title >element:JP2</title>
   <g >
    <title >package:1X03</title>
    <line  stroke="white" stroke-linecap="round" y1="81.0144" x1="48.6" y2="82.8144" stroke-width="0.576" x2="50.4"/>
    <line  stroke="white" stroke-linecap="round" y1="82.8144" x1="50.4" y2="86.4144" stroke-width="0.576" x2="50.4"/>
    <line  stroke="white" stroke-linecap="round" y1="86.4144" x1="50.4" y2="88.2144" stroke-width="0.576" x2="48.6"/>
    <line  stroke="white" stroke-linecap="round" y1="88.2144" x1="45" y2="86.4144" stroke-width="0.576" x2="43.2"/>
    <line  stroke="white" stroke-linecap="round" y1="86.4144" x1="43.2" y2="82.8144" stroke-width="0.576" x2="43.2"/>
    <line  stroke="white" stroke-linecap="round" y1="82.8144" x1="43.2" y2="81.0144" stroke-width="0.576" x2="45"/>
    <line  stroke="white" stroke-linecap="round" y1="68.4142" x1="50.4" y2="72.0144" stroke-width="0.576" x2="50.4"/>
    <line  stroke="white" stroke-linecap="round" y1="72.0144" x1="50.4" y2="73.8144" stroke-width="0.576" x2="48.6"/>
    <line  stroke="white" stroke-linecap="round" y1="73.8144" x1="45" y2="72.0144" stroke-width="0.576" x2="43.2"/>
    <line  stroke="white" stroke-linecap="round" y1="73.8144" x1="48.6" y2="75.6144" stroke-width="0.576" x2="50.4"/>
    <line  stroke="white" stroke-linecap="round" y1="75.6144" x1="50.4" y2="79.2144" stroke-width="0.576" x2="50.4"/>
    <line  stroke="white" stroke-linecap="round" y1="79.2144" x1="50.4" y2="81.0144" stroke-width="0.576" x2="48.6"/>
    <line  stroke="white" stroke-linecap="round" y1="81.0144" x1="45" y2="79.2144" stroke-width="0.576" x2="43.2"/>
    <line  stroke="white" stroke-linecap="round" y1="79.2144" x1="43.2" y2="75.6144" stroke-width="0.576" x2="43.2"/>
    <line  stroke="white" stroke-linecap="round" y1="75.6144" x1="43.2" y2="73.8144" stroke-width="0.576" x2="45"/>
    <line  stroke="white" stroke-linecap="round" y1="66.6142" x1="48.6" y2="66.6142" stroke-width="0.576" x2="45"/>
    <line  stroke="white" stroke-linecap="round" y1="68.4142" x1="50.4" y2="66.6142" stroke-width="0.576" x2="48.6"/>
    <line  stroke="white" stroke-linecap="round" y1="66.6142" x1="45" y2="68.4142" stroke-width="0.576" x2="43.2"/>
    <line  stroke="white" stroke-linecap="round" y1="72.0144" x1="43.2" y2="68.4142" stroke-width="0.576" x2="43.2"/>
    <line  stroke="white" stroke-linecap="round" y1="88.2144" x1="48.6" y2="88.2144" stroke-width="0.576" x2="45"/>
   </g>
  </g>
  <g >
   <title >element:JP3</title>
   <g >
    <title >package:1X03</title>
    <line  stroke="white" stroke-linecap="round" y1="81.0144" x1="34.2" y2="82.8144" stroke-width="0.576" x2="36"/>
    <line  stroke="white" stroke-linecap="round" y1="82.8144" x1="36" y2="86.4144" stroke-width="0.576" x2="36"/>
    <line  stroke="white" stroke-linecap="round" y1="86.4144" x1="36" y2="88.2144" stroke-width="0.576" x2="34.2"/>
    <line  stroke="white" stroke-linecap="round" y1="88.2144" x1="30.6" y2="86.4144" stroke-width="0.576" x2="28.8"/>
    <line  stroke="white" stroke-linecap="round" y1="86.4144" x1="28.8" y2="82.8144" stroke-width="0.576" x2="28.8"/>
    <line  stroke="white" stroke-linecap="round" y1="82.8144" x1="28.8" y2="81.0144" stroke-width="0.576" x2="30.6"/>
    <line  stroke="white" stroke-linecap="round" y1="68.4142" x1="36" y2="72.0144" stroke-width="0.576" x2="36"/>
    <line  stroke="white" stroke-linecap="round" y1="72.0144" x1="36" y2="73.8144" stroke-width="0.576" x2="34.2"/>
    <line  stroke="white" stroke-linecap="round" y1="73.8144" x1="30.6" y2="72.0144" stroke-width="0.576" x2="28.8"/>
    <line  stroke="white" stroke-linecap="round" y1="73.8144" x1="34.2" y2="75.6144" stroke-width="0.576" x2="36"/>
    <line  stroke="white" stroke-linecap="round" y1="75.6144" x1="36" y2="79.2144" stroke-width="0.576" x2="36"/>
    <line  stroke="white" stroke-linecap="round" y1="79.2144" x1="36" y2="81.0144" stroke-width="0.576" x2="34.2"/>
    <line  stroke="white" stroke-linecap="round" y1="81.0144" x1="30.6" y2="79.2144" stroke-width="0.576" x2="28.8"/>
    <line  stroke="white" stroke-linecap="round" y1="79.2144" x1="28.8" y2="75.6144" stroke-width="0.576" x2="28.8"/>
    <line  stroke="white" stroke-linecap="round" y1="75.6144" x1="28.8" y2="73.8144" stroke-width="0.576" x2="30.6"/>
    <line  stroke="white" stroke-linecap="round" y1="66.6142" x1="34.2" y2="66.6142" stroke-width="0.576" x2="30.6"/>
    <line  stroke="white" stroke-linecap="round" y1="68.4142" x1="36" y2="66.6142" stroke-width="0.576" x2="34.2"/>
    <line  stroke="white" stroke-linecap="round" y1="66.6142" x1="30.6" y2="68.4142" stroke-width="0.576" x2="28.8"/>
    <line  stroke="white" stroke-linecap="round" y1="72.0144" x1="28.8" y2="68.4142" stroke-width="0.576" x2="28.8"/>
    <line  stroke="white" stroke-linecap="round" y1="88.2144" x1="34.2" y2="88.2144" stroke-width="0.576" x2="30.6"/>
   </g>
  </g>
  <g >
   <title >element:JP4</title>
   <g >
    <title >package:1X03</title>
    <line  stroke="white" stroke-linecap="round" y1="81.0144" x1="19.8" y2="82.8144" stroke-width="0.576" x2="21.6"/>
    <line  stroke="white" stroke-linecap="round" y1="82.8144" x1="21.6" y2="86.4144" stroke-width="0.576" x2="21.6"/>
    <line  stroke="white" stroke-linecap="round" y1="86.4144" x1="21.6" y2="88.2144" stroke-width="0.576" x2="19.8"/>
    <line  stroke="white" stroke-linecap="round" y1="88.2144" x1="16.2" y2="86.4144" stroke-width="0.576" x2="14.4"/>
    <line  stroke="white" stroke-linecap="round" y1="86.4144" x1="14.4" y2="82.8144" stroke-width="0.576" x2="14.4"/>
    <line  stroke="white" stroke-linecap="round" y1="82.8144" x1="14.4" y2="81.0144" stroke-width="0.576" x2="16.2"/>
    <line  stroke="white" stroke-linecap="round" y1="68.4142" x1="21.6" y2="72.0144" stroke-width="0.576" x2="21.6"/>
    <line  stroke="white" stroke-linecap="round" y1="72.0144" x1="21.6" y2="73.8144" stroke-width="0.576" x2="19.8"/>
    <line  stroke="white" stroke-linecap="round" y1="73.8144" x1="16.2" y2="72.0144" stroke-width="0.576" x2="14.4"/>
    <line  stroke="white" stroke-linecap="round" y1="73.8144" x1="19.8" y2="75.6144" stroke-width="0.576" x2="21.6"/>
    <line  stroke="white" stroke-linecap="round" y1="75.6144" x1="21.6" y2="79.2144" stroke-width="0.576" x2="21.6"/>
    <line  stroke="white" stroke-linecap="round" y1="79.2144" x1="21.6" y2="81.0144" stroke-width="0.576" x2="19.8"/>
    <line  stroke="white" stroke-linecap="round" y1="81.0144" x1="16.2" y2="79.2144" stroke-width="0.576" x2="14.4"/>
    <line  stroke="white" stroke-linecap="round" y1="79.2144" x1="14.4" y2="75.6144" stroke-width="0.576" x2="14.4"/>
    <line  stroke="white" stroke-linecap="round" y1="75.6144" x1="14.4" y2="73.8144" stroke-width="0.576" x2="16.2"/>
    <line  stroke="white" stroke-linecap="round" y1="66.6142" x1="19.8" y2="66.6142" stroke-width="0.576" x2="16.2"/>
    <line  stroke="white" stroke-linecap="round" y1="68.4142" x1="21.6" y2="66.6142" stroke-width="0.576" x2="19.8"/>
    <line  stroke="white" stroke-linecap="round" y1="66.6142" x1="16.2" y2="68.4142" stroke-width="0.576" x2="14.4"/>
    <line  stroke="white" stroke-linecap="round" y1="72.0144" x1="14.4" y2="68.4142" stroke-width="0.576" x2="14.4"/>
    <line  stroke="white" stroke-linecap="round" y1="88.2144" x1="19.8" y2="88.2144" stroke-width="0.576" x2="16.2"/>
   </g>
  </g>
  <g >
   <title >element:JP5</title>
   <g >
    <title >package:1X05</title>
    <line  stroke="white" stroke-linecap="round" y1="109.814" x1="34.2" y2="109.814" stroke-width="0.576" x2="30.6"/>
    <line  stroke="white" stroke-linecap="round" y1="109.814" x1="30.6" y2="108.014" stroke-width="0.576" x2="28.8"/>
    <line  stroke="white" stroke-linecap="round" y1="104.414" x1="28.8" y2="102.614" stroke-width="0.576" x2="30.6"/>
    <line  stroke="white" stroke-linecap="round" y1="108.014" x1="28.8" y2="109.814" stroke-width="0.576" x2="27"/>
    <line  stroke="white" stroke-linecap="round" y1="109.814" x1="27" y2="109.814" stroke-width="0.576" x2="23.4"/>
    <line  stroke="white" stroke-linecap="round" y1="109.814" x1="23.4" y2="108.014" stroke-width="0.576" x2="21.6"/>
    <line  stroke="white" stroke-linecap="round" y1="104.414" x1="21.6" y2="102.614" stroke-width="0.576" x2="23.4"/>
    <line  stroke="white" stroke-linecap="round" y1="102.614" x1="23.4" y2="102.614" stroke-width="0.576" x2="27"/>
    <line  stroke="white" stroke-linecap="round" y1="102.614" x1="27" y2="104.414" stroke-width="0.576" x2="28.8"/>
    <line  stroke="white" stroke-linecap="round" y1="108.014" x1="43.2" y2="109.814" stroke-width="0.576" x2="41.4"/>
    <line  stroke="white" stroke-linecap="round" y1="109.814" x1="41.4" y2="109.814" stroke-width="0.576" x2="37.8"/>
    <line  stroke="white" stroke-linecap="round" y1="109.814" x1="37.8" y2="108.014" stroke-width="0.576" x2="36"/>
    <line  stroke="white" stroke-linecap="round" y1="104.414" x1="36" y2="102.614" stroke-width="0.576" x2="37.8"/>
    <line  stroke="white" stroke-linecap="round" y1="102.614" x1="37.8" y2="102.614" stroke-width="0.576" x2="41.4"/>
    <line  stroke="white" stroke-linecap="round" y1="102.614" x1="41.4" y2="104.414" stroke-width="0.576" x2="43.2"/>
    <line  stroke="white" stroke-linecap="round" y1="109.814" x1="34.2" y2="108.014" stroke-width="0.576" x2="36"/>
    <line  stroke="white" stroke-linecap="round" y1="104.414" x1="36" y2="102.614" stroke-width="0.576" x2="34.2"/>
    <line  stroke="white" stroke-linecap="round" y1="102.614" x1="30.6" y2="102.614" stroke-width="0.576" x2="34.2"/>
    <line  stroke="white" stroke-linecap="round" y1="109.814" x1="55.8" y2="109.814" stroke-width="0.576" x2="52.2"/>
    <line  stroke="white" stroke-linecap="round" y1="109.814" x1="52.2" y2="108.014" stroke-width="0.576" x2="50.4"/>
    <line  stroke="white" stroke-linecap="round" y1="104.414" x1="50.4" y2="102.614" stroke-width="0.576" x2="52.2"/>
    <line  stroke="white" stroke-linecap="round" y1="108.014" x1="50.4" y2="109.814" stroke-width="0.576" x2="48.6"/>
    <line  stroke="white" stroke-linecap="round" y1="109.814" x1="48.6" y2="109.814" stroke-width="0.576" x2="45"/>
    <line  stroke="white" stroke-linecap="round" y1="109.814" x1="45" y2="108.014" stroke-width="0.576" x2="43.2"/>
    <line  stroke="white" stroke-linecap="round" y1="104.414" x1="43.2" y2="102.614" stroke-width="0.576" x2="45"/>
    <line  stroke="white" stroke-linecap="round" y1="102.614" x1="45" y2="102.614" stroke-width="0.576" x2="48.6"/>
    <line  stroke="white" stroke-linecap="round" y1="102.614" x1="48.6" y2="104.414" stroke-width="0.576" x2="50.4"/>
    <line  stroke="white" stroke-linecap="round" y1="108.014" x1="57.6" y2="104.414" stroke-width="0.576" x2="57.6"/>
    <line  stroke="white" stroke-linecap="round" y1="109.814" x1="55.8" y2="108.014" stroke-width="0.576" x2="57.6"/>
    <line  stroke="white" stroke-linecap="round" y1="104.414" x1="57.6" y2="102.614" stroke-width="0.576" x2="55.8"/>
    <line  stroke="white" stroke-linecap="round" y1="102.614" x1="52.2" y2="102.614" stroke-width="0.576" x2="55.8"/>
    <line  stroke="white" stroke-linecap="round" y1="108.014" x1="21.6" y2="104.414" stroke-width="0.576" x2="21.6"/>
   </g>
  </g>
  <g >
   <title >element:JP6</title>
   <g >
    <title >package:RJ45-8</title>
    <line  stroke="white" stroke-linecap="round" y1="58.9607" x1="61.2" y2="58.9607" stroke-width="0.576" x2="18"/>
    <line  stroke="white" stroke-linecap="round" y1="22.1103" x1="61.2" y2="58.9607" stroke-width="0.576" x2="61.2"/>
    <line  stroke="white" stroke-linecap="round" y1="22.1103" x1="61.2" y2="22.1103" stroke-width="0.576" x2="18"/>
    <line  stroke="white" stroke-linecap="round" y1="58.9607" x1="18" y2="22.1103" stroke-width="0.576" x2="18"/>
   </g>
  </g>
  <g >
   <title >element:JP7</title>
   <g >
    <title >package:1X03</title>
    <line  stroke="white" stroke-linecap="round" y1="52.2142" x1="77.4" y2="54.0142" stroke-width="0.576" x2="79.2"/>
    <line  stroke="white" stroke-linecap="round" y1="54.0142" x1="79.2" y2="57.6142" stroke-width="0.576" x2="79.2"/>
    <line  stroke="white" stroke-linecap="round" y1="57.6142" x1="79.2" y2="59.4142" stroke-width="0.576" x2="77.4"/>
    <line  stroke="white" stroke-linecap="round" y1="59.4142" x1="73.8" y2="57.6142" stroke-width="0.576" x2="72"/>
    <line  stroke="white" stroke-linecap="round" y1="57.6142" x1="72" y2="54.0142" stroke-width="0.576" x2="72"/>
    <line  stroke="white" stroke-linecap="round" y1="54.0142" x1="72" y2="52.2142" stroke-width="0.576" x2="73.8"/>
    <line  stroke="white" stroke-linecap="round" y1="39.6142" x1="79.2" y2="43.2142" stroke-width="0.576" x2="79.2"/>
    <line  stroke="white" stroke-linecap="round" y1="43.2142" x1="79.2" y2="45.0142" stroke-width="0.576" x2="77.4"/>
    <line  stroke="white" stroke-linecap="round" y1="45.0142" x1="73.8" y2="43.2142" stroke-width="0.576" x2="72"/>
    <line  stroke="white" stroke-linecap="round" y1="45.0142" x1="77.4" y2="46.8142" stroke-width="0.576" x2="79.2"/>
    <line  stroke="white" stroke-linecap="round" y1="46.8142" x1="79.2" y2="50.4142" stroke-width="0.576" x2="79.2"/>
    <line  stroke="white" stroke-linecap="round" y1="50.4142" x1="79.2" y2="52.2142" stroke-width="0.576" x2="77.4"/>
    <line  stroke="white" stroke-linecap="round" y1="52.2142" x1="73.8" y2="50.4142" stroke-width="0.576" x2="72"/>
    <line  stroke="white" stroke-linecap="round" y1="50.4142" x1="72" y2="46.8142" stroke-width="0.576" x2="72"/>
    <line  stroke="white" stroke-linecap="round" y1="46.8142" x1="72" y2="45.0142" stroke-width="0.576" x2="73.8"/>
    <line  stroke="white" stroke-linecap="round" y1="37.8142" x1="77.4" y2="37.8142" stroke-width="0.576" x2="73.8"/>
    <line  stroke="white" stroke-linecap="round" y1="39.6142" x1="79.2" y2="37.8142" stroke-width="0.576" x2="77.4"/>
    <line  stroke="white" stroke-linecap="round" y1="37.8142" x1="73.8" y2="39.6142" stroke-width="0.576" x2="72"/>
    <line  stroke="white" stroke-linecap="round" y1="43.2142" x1="72" y2="39.6142" stroke-width="0.576" x2="72"/>
    <line  stroke="white" stroke-linecap="round" y1="59.4142" x1="77.4" y2="59.4142" stroke-width="0.576" x2="73.8"/>
   </g>
  </g>
  <line  fill="none" stroke="white" fill-opacity="1" y1="0.288" x1="18" y2="0.288" stroke-width="0.576" x2="61.2"/>
  <line  fill="none" stroke="white" fill-opacity="1" y1="23.4142" x1="18" y2="0.288" stroke-width="0.576" x2="18"/>
  <line  fill="none" stroke="white" fill-opacity="1" y1="23.4142" x1="61.2" y2="0.288" stroke-width="0.576" x2="61.2"/>
 </g>
 <g  id="copper1">
  <g  id="copper0">
   <circle  fill="none" cx="61.2" cy="77.4144" connectorname="2" stroke="#F7BD13" r="2.052" id="connector1pad" stroke-width="1.224"/>
   <circle  fill="none" cx="75.6" cy="41.4142" connectorname="GND" stroke="#F7BD13" r="2.052" id="connector25pad" stroke-width="1.224"/>
   <circle  fill="none" cx="61.2" cy="84.6144" connectorname="E-" stroke="#F7BD13" r="2.052" id="connector2pad" stroke-width="1.224"/>
   <circle  fill="none" cx="46.8" cy="70.2142" connectorname="N$1" stroke="#F7BD13" r="2.052" id="connector3pad" stroke-width="1.224"/>
   <circle  fill="none" cx="32.4" cy="106.214" connectorname="A+" stroke="#F7BD13" r="2.052" id="connector15pad" stroke-width="1.224"/>
   <circle  fill="none" cx="46.8" cy="77.4144" connectorname="2" stroke="#F7BD13" r="2.052" id="connector4pad" stroke-width="1.224"/>
   <circle  fill="none" cx="46.8" cy="84.6144" connectorname="A-" stroke="#F7BD13" r="2.052" id="connector5pad" stroke-width="1.224"/>
   <circle  fill="none" cx="32.4" cy="70.2142" connectorname="1" stroke="#F7BD13" r="2.052" id="connector6pad" stroke-width="1.224"/>
   <circle  fill="none" cx="75.6" cy="55.8142" connectorname="5V" stroke="#F7BD13" r="2.052" id="connector27pad" stroke-width="1.224"/>
   <circle  fill="none" cx="32.4" cy="77.4144" connectorname="2" stroke="#F7BD13" r="2.052" id="connector7pad" stroke-width="1.224"/>
   <circle  fill="none" cx="25.2" cy="106.214" connectorname="5" stroke="#F7BD13" r="2.052" id="connector16pad" stroke-width="1.224"/>
   <circle  fill="none" cx="32.4" cy="84.6144" connectorname="A+" stroke="#F7BD13" r="2.052" id="connector8pad" stroke-width="1.224"/>
   <circle  fill="none" cx="18" cy="70.2142" connectorname="N$1" stroke="#F7BD13" r="2.052" id="connector9pad" stroke-width="1.224"/>
   <circle  fill="none" cx="18" cy="77.4144" connectorname="2" stroke="#F7BD13" r="2.052" id="connector10pad" stroke-width="1.224"/>
   <circle  fill="none" cx="18" cy="84.6144" connectorname="E+" stroke="#F7BD13" r="2.052" id="connector11pad" stroke-width="1.224"/>
   <circle  fill="none" cx="54" cy="106.214" connectorname="E+" stroke="#F7BD13" r="2.052" id="connector12pad" stroke-width="1.224"/>
   <circle  fill="none" cx="75.6" cy="48.6142" connectorname="TEMP_DAT" stroke="#F7BD13" r="2.052" id="connector26pad" stroke-width="1.224"/>
   <circle  fill="none" cx="46.8" cy="106.214" connectorname="E-" stroke="#F7BD13" r="2.052" id="connector13pad" stroke-width="1.224"/>
   <circle  fill="none" cx="39.6" cy="106.214" connectorname="A-" stroke="#F7BD13" r="2.052" id="connector14pad" stroke-width="1.224"/>
   <circle  fill="none" cx="61.2" cy="70.2142" connectorname="1" stroke="#F7BD13" r="2.052" id="connector0pad" stroke-width="1.224"/>
  </g>
 </g>
</svg>
