<?xml version="1.0" encoding="utf-8"?>
<!-- Generator: Adobe Illustrator 16.0.0, SVG Export Plug-In . SVG Version: 6.00 Build 0)  -->
<svg version="1.2" baseProfile="tiny" xmlns="http://www.w3.org/2000/svg" xmlns:xlink="http://www.w3.org/1999/xlink" x="0px"
	 y="0px" width="44.682px" height="56.346px" viewBox="0 0 44.682 56.346" xml:space="preserve">
<g>
	<polygon fill="#C8C6C7" points="36.365,12.24 39.062,12.24 39.718,5.865 37.312,5.868 	"/>
	<polygon fill="#818080" points="36.365,12.24 39.062,12.24 39.718,5.865 39.904,6.273 39.247,12.648 36.551,12.648 	"/>
	<polygon fill="#C8C6C7" points="36.365,44.106 39.062,44.106 39.718,50.481 37.312,50.477 	"/>
	<polygon fill="#818080" points="36.365,44.106 39.062,44.106 39.718,50.481 39.904,50.073 39.247,43.698 36.551,43.698 	"/>
	<path fill="#818080" d="M42.381,13.507c-0.192,0.033-0.416,0.206-0.496,0.383l-0.987,2.166c-0.08,0.177-0.306,0.322-0.501,0.322
		h-2.948c-0.195,0-0.354,0.16-0.354,0.354v1.708c0,0.195,0.159,0.354,0.354,0.354h5.791c0.195,0,0.386-0.156,0.425-0.347
		l1.011-5.002c0.039-0.191-0.087-0.32-0.279-0.287L42.381,13.507z"/>
	<path fill="#C8C6C7" d="M42.047,13.099c0,0-0.082,0.145-0.162,0.322l-0.987,2.166c-0.08,0.177-0.306,0.322-0.501,0.322h-2.948
		c-0.195,0-0.354,0.16-0.354,0.354v1.708c0,0.195,0.159,0.354,0.354,0.354h5.791c0.195,0,0.389-0.156,0.431-0.346l0.999-4.535
		l0.013-0.346H42.047z"/>
	<path fill="#818080" d="M42.381,42.787c-0.192-0.033-0.416-0.205-0.496-0.383l-0.987-2.166c-0.08-0.178-0.306-0.322-0.501-0.322
		h-2.948c-0.195,0-0.354-0.16-0.354-0.355v-1.707c0-0.195,0.159-0.355,0.354-0.355h5.791c0.195,0,0.386,0.156,0.425,0.348
		l1.011,5.002c0.039,0.191-0.087,0.32-0.279,0.287L42.381,42.787z"/>
	<path fill="#C8C6C7" d="M42.047,43.196c0,0-0.082-0.145-0.162-0.322l-0.987-2.166c-0.08-0.178-0.306-0.322-0.501-0.322h-2.948
		c-0.195,0-0.354-0.16-0.354-0.355v-1.707c0-0.195,0.159-0.355,0.354-0.355h5.791c0.195,0,0.389,0.156,0.431,0.348l0.999,4.535
		l0.013,0.346H42.047z"/>
	<polygon fill="#232323" points="34.569,2.135 34.569,54.203 1.336,54.207 1.336,2.138 	"/>
	<rect x="1.94" y="2.663" fill="#494949" width="32.197" height="1.513"/>
	<rect x="1.94" y="4.178" fill="#3D3D3D" width="32.195" height="4.939"/>
	<rect x="0.905" y="52.24" width="33.232" height="1.488"/>
	<rect x="0.905" y="46.927" fill="#0F0F0F" width="33.232" height="5.357"/>
	<rect x="33.975" y="2.136" width="0.592" height="52.065"/>
	<rect x="1.608" y="25.139" fill="#1C191A" width="32.958" height="6.064"/>
	<rect x="5.974" y="25.139" fill="#2D2C2C" width="28.592" height="6.064"/>
	<rect x="1.608" y="24.662" fill="#2D2C2C" width="32.958" height="0.477"/>
	<rect x="5.974" y="24.662" fill="#53504F" width="28.592" height="0.477"/>
	<rect x="1.608" y="25.139" width="32.958" height="0.238"/>
	<rect x="5.974" y="25.139" width="28.592" height="0.238"/>
	<rect x="1.608" y="31.203" fill="#2D2C2C" width="32.958" height="0.477"/>
	<rect x="5.974" y="31.203" fill="#53504F" width="28.592" height="0.477"/>
	<rect x="31.633" y="2.254" width="0.25" height="50.731"/>
	<rect x="1.608" y="0.884" width="1.287" height="54.623"/>
	<rect x="0" y="0" fill="#232323" width="2.615" height="56.346"/>
	<rect x="34.69" y="9.547" fill="#B59C7D" width="3.537" height="37.243"/>
	<rect x="34.567" y="6.89" fill="#A48769" width="0.975" height="42.56"/>
	<rect x="0.696" y="0.399" fill="#494949" width="1.195" height="1.012"/>
	<rect x="0.696" y="54.981" width="1.195" height="1.012"/>
	<rect x="38.227" y="23.172" fill="#1C191A" width="0.835" height="10"/>
	<polygon fill="#2D2C2C" points="42.189,30.951 38.645,33.172 38.645,23.172 42.189,25.393 	"/>
</g>
</svg>
