<?xml version='1.0' encoding='UTF-8' standalone='no'?>
<!-- Created with Fritzing (http://www.fritzing.org/) -->
<svg xmlns="http://www.w3.org/2000/svg"  width="1.1in" x="0in" version="1.2" y="0in" height="1.5252in" viewBox="0 0 79.2 109.814" baseProfile="tiny">
 <desc >Fritzing breadboard generated by brd2svg</desc>
 <g  id="breadboard">
  <g  id="icon">
   <path  fill="#C62717" stroke="none" stroke-width="0" d="M79.2,109.814L0,109.814L0,23.4142L79.2,23.4142L79.2,109.814M51.2646,30.6142a4.53543,4.53543,0,1,0,9.07085,0,4.53543,4.53543,0,1,0,-9.07085,0zM18.8646,30.6142a4.53543,4.53543,0,1,0,9.07085,0,4.53543,4.53543,0,1,0,-9.07085,0zM67.32,30.6142a4.68,4.68,0,1,0,9.36,0,4.68,4.68,0,1,0,-9.36,0zM2.52,30.6142a4.68,4.68,0,1,0,9.36,0,4.68,4.68,0,1,0,-9.36,0zM67.32,102.614a4.68,4.68,0,1,0,9.36,0,4.68,4.68,0,1,0,-9.36,0zM2.52,102.614a4.68,4.68,0,1,0,9.36,0,4.68,4.68,0,1,0,-9.36,0zM59.76,70.2142a1.44,1.44,0,1,0,2.88,0,1.44,1.44,0,1,0,-2.88,0zM59.76,77.4144a1.44,1.44,0,1,0,2.88,0,1.44,1.44,0,1,0,-2.88,0zM59.76,84.6144a1.44,1.44,0,1,0,2.88,0,1.44,1.44,0,1,0,-2.88,0zM45.36,70.2142a1.44,1.44,0,1,0,2.88,0,1.44,1.44,0,1,0,-2.88,0zM45.36,77.4144a1.44,1.44,0,1,0,2.88,0,1.44,1.44,0,1,0,-2.88,0zM45.36,84.6144a1.44,1.44,0,1,0,2.88,0,1.44,1.44,0,1,0,-2.88,0zM30.96,70.2142a1.44,1.44,0,1,0,2.88,0,1.44,1.44,0,1,0,-2.88,0zM30.96,77.4144a1.44,1.44,0,1,0,2.88,0,1.44,1.44,0,1,0,-2.88,0zM30.96,84.6144a1.44,1.44,0,1,0,2.88,0,1.44,1.44,0,1,0,-2.88,0zM16.56,70.2142a1.44,1.44,0,1,0,2.88,0,1.44,1.44,0,1,0,-2.88,0zM16.56,77.4144a1.44,1.44,0,1,0,2.88,0,1.44,1.44,0,1,0,-2.88,0zM16.56,84.6144a1.44,1.44,0,1,0,2.88,0,1.44,1.44,0,1,0,-2.88,0zM52.56,106.214a1.44,1.44,0,1,0,2.88,0,1.44,1.44,0,1,0,-2.88,0zM45.36,106.214a1.44,1.44,0,1,0,2.88,0,1.44,1.44,0,1,0,-2.88,0zM38.16,106.214a1.44,1.44,0,1,0,2.88,0,1.44,1.44,0,1,0,-2.88,0zM30.96,106.214a1.44,1.44,0,1,0,2.88,0,1.44,1.44,0,1,0,-2.88,0zM23.76,106.214a1.44,1.44,0,1,0,2.88,0,1.44,1.44,0,1,0,-2.88,0zM74.16,41.4142a1.44,1.44,0,1,0,2.88,0,1.44,1.44,0,1,0,-2.88,0zM74.16,48.6142a1.44,1.44,0,1,0,2.88,0,1.44,1.44,0,1,0,-2.88,0zM74.16,55.8142a1.44,1.44,0,1,0,2.88,0,1.44,1.44,0,1,0,-2.88,0z"/>
   <g >
    <title >layer 21</title>
    <g >
     <title >text:GRN</title>
     <g  transform="matrix(1, 0, 0, 1, 34.776, 91.4544)">
      <g  transform="rotate(-90)">
       <text  x="0" y="0" font-family="OCRA" fill="#ffffff" text-anchor="end" stroke="none" stroke-width="0" font-size="4.176">GRN</text>
      </g>
     </g>
    </g>
    <g >
     <title >text:BLK</title>
     <g  transform="matrix(1, 0, 0, 1, 49.176, 91.4544)">
      <g  transform="rotate(-90)">
       <text  x="0" y="0" font-family="OCRA" fill="#ffffff" text-anchor="end" stroke="none" stroke-width="0" font-size="4.176">BLK</text>
      </g>
     </g>
    </g>
    <g >
     <title >text:WHT</title>
     <g  transform="matrix(1, 0, 0, 1, 41.976, 91.4544)">
      <g  transform="rotate(-90)">
       <text  x="0" y="0" font-family="OCRA" fill="#ffffff" text-anchor="end" stroke="none" stroke-width="0" font-size="4.176">WHT</text>
      </g>
     </g>
    </g>
    <g >
     <title >text:RED</title>
     <g  transform="matrix(1, 0, 0, 1, 56.376, 91.4544)">
      <g  transform="rotate(-90)">
       <text  x="0" y="0" font-family="OCRA" fill="#ffffff" text-anchor="end" stroke="none" stroke-width="0" font-size="4.176">RED</text>
      </g>
     </g>
    </g>
    <g >
     <title >text:UL</title>
     <text  x="58.32" y="65.1742" font-family="OCRA" fill="#ffffff" text-anchor="start" stroke="none" stroke-width="0" font-size="4.176">UL</text>
    </g>
    <g >
     <title >text:UR</title>
     <text  x="43.92" y="65.1742" font-family="OCRA" fill="#ffffff" text-anchor="start" stroke="none" stroke-width="0" font-size="4.176">UR</text>
    </g>
    <g >
     <title >text:LL</title>
     <text  x="29.52" y="65.1742" font-family="OCRA" fill="#ffffff" text-anchor="start" stroke="none" stroke-width="0" font-size="4.176">LL</text>
    </g>
    <g >
     <title >text:LR</title>
     <text  x="15.12" y="65.1742" font-family="OCRA" fill="#ffffff" text-anchor="start" stroke="none" stroke-width="0" font-size="4.176">LR</text>
    </g>
    <g >
     <title >text:Load</title>
     <g  transform="matrix(1, 0, 0, 1, 71.856, 70.2142)">
      <g  transform="rotate(-90)">
       <text  x="0" y="0" font-family="OCRA" fill="#ffffff" text-anchor="end" stroke="none" stroke-width="0" font-size="4.176">Load</text>
      </g>
     </g>
    </g>
    <g >
     <title >text:Sensors</title>
     <g  transform="matrix(1, 0, 0, 1, 76.896, 65.5342)">
      <g  transform="rotate(-90)">
       <text  x="0" y="0" font-family="OCRA" fill="#ffffff" text-anchor="end" stroke="none" stroke-width="0" font-size="4.176">Sensors</text>
      </g>
     </g>
    </g>
    <g >
     <title >text:B</title>
     <text  x="28.08" y="73.5408" font-family="OCRA" fill="#ffffff" text-anchor="end" stroke="none" stroke-width="0" font-size="5.8464">B</text>
    </g>
    <g >
     <title >text:W</title>
     <text  x="28.08" y="80.7408" font-family="OCRA" fill="#ffffff" text-anchor="end" stroke="none" stroke-width="0" font-size="5.8464">W</text>
    </g>
    <g >
     <title >text:R</title>
     <text  x="28.08" y="87.9408" font-family="OCRA" fill="#ffffff" text-anchor="end" stroke="none" stroke-width="0" font-size="5.8464">R</text>
    </g>
    <g >
     <title >text:B</title>
     <text  x="42.48" y="73.5408" font-family="OCRA" fill="#ffffff" text-anchor="end" stroke="none" stroke-width="0" font-size="5.8464">B</text>
    </g>
    <g >
     <title >text:W</title>
     <text  x="42.48" y="80.7408" font-family="OCRA" fill="#ffffff" text-anchor="end" stroke="none" stroke-width="0" font-size="5.8464">W</text>
    </g>
    <g >
     <title >text:R</title>
     <text  x="42.48" y="87.9408" font-family="OCRA" fill="#ffffff" text-anchor="end" stroke="none" stroke-width="0" font-size="5.8464">R</text>
    </g>
    <g >
     <title >text:B</title>
     <text  x="56.88" y="73.5408" font-family="OCRA" fill="#ffffff" text-anchor="end" stroke="none" stroke-width="0" font-size="5.8464">B</text>
    </g>
    <g >
     <title >text:W</title>
     <text  x="56.88" y="80.7408" font-family="OCRA" fill="#ffffff" text-anchor="end" stroke="none" stroke-width="0" font-size="5.8464">W</text>
    </g>
    <g >
     <title >text:R</title>
     <text  x="56.88" y="87.9408" font-family="OCRA" fill="#ffffff" text-anchor="end" stroke="none" stroke-width="0" font-size="5.8464">R</text>
    </g>
    <g >
     <title >text:YLW</title>
     <g  transform="matrix(1, 0, 0, 1, 27.576, 91.4544)">
      <g  transform="rotate(-90)">
       <text  x="0" y="0" font-family="OCRA" fill="#ffffff" text-anchor="end" stroke="none" stroke-width="0" font-size="4.176">YLW</text>
      </g>
     </g>
    </g>
    <g >
     <title >text:RJ45</title>
     <text  x="30.96" y="40.3342" font-family="OCRA" fill="#ffffff" text-anchor="start" stroke="none" stroke-width="0" font-size="5.8464">RJ45</text>
    </g>
    <g >
     <title >text:Load Combinator</title>
     <g  transform="matrix(1, 0, 0, 1, 8.64, 94.3344)">
      <g  transform="rotate(270)">
       <text  x="0" y="0" font-family="OCRA" fill="#ffffff" text-anchor="start" stroke="none" stroke-width="0" font-size="5.0112">Load Combinator</text>
      </g>
     </g>
    </g>
    <g >
     <title >text:GND</title>
     <text  x="71.64" y="43.7902" font-family="OCRA" fill="#ffffff" text-anchor="end" stroke="none" stroke-width="0" font-size="4.176">GND</text>
    </g>
    <g >
     <title >text:SIG</title>
     <text  x="71.64" y="50.9902" font-family="OCRA" fill="#ffffff" text-anchor="end" stroke="none" stroke-width="0" font-size="4.176">SIG</text>
    </g>
    <g >
     <title >text:5V</title>
     <text  x="71.64" y="58.1902" font-family="OCRA" fill="#ffffff" text-anchor="end" stroke="none" stroke-width="0" font-size="4.176">5V</text>
    </g>
    <g >
     <title >element:JP1</title>
     <g >
      <title >package:1X03</title>
      <line  stroke="white" stroke-linecap="round" y1="81.0144" x1="63" y2="82.8144" stroke-width="0.576" x2="64.8"/>
      <line  stroke="white" stroke-linecap="round" y1="82.8144" x1="64.8" y2="86.4144" stroke-width="0.576" x2="64.8"/>
      <line  stroke="white" stroke-linecap="round" y1="86.4144" x1="64.8" y2="88.2144" stroke-width="0.576" x2="63"/>
      <line  stroke="white" stroke-linecap="round" y1="88.2144" x1="59.4" y2="86.4144" stroke-width="0.576" x2="57.6"/>
      <line  stroke="white" stroke-linecap="round" y1="86.4144" x1="57.6" y2="82.8144" stroke-width="0.576" x2="57.6"/>
      <line  stroke="white" stroke-linecap="round" y1="82.8144" x1="57.6" y2="81.0144" stroke-width="0.576" x2="59.4"/>
      <line  stroke="white" stroke-linecap="round" y1="68.4142" x1="64.8" y2="72.0144" stroke-width="0.576" x2="64.8"/>
      <line  stroke="white" stroke-linecap="round" y1="72.0144" x1="64.8" y2="73.8144" stroke-width="0.576" x2="63"/>
      <line  stroke="white" stroke-linecap="round" y1="73.8144" x1="59.4" y2="72.0144" stroke-width="0.576" x2="57.6"/>
      <line  stroke="white" stroke-linecap="round" y1="73.8144" x1="63" y2="75.6144" stroke-width="0.576" x2="64.8"/>
      <line  stroke="white" stroke-linecap="round" y1="75.6144" x1="64.8" y2="79.2144" stroke-width="0.576" x2="64.8"/>
      <line  stroke="white" stroke-linecap="round" y1="79.2144" x1="64.8" y2="81.0144" stroke-width="0.576" x2="63"/>
      <line  stroke="white" stroke-linecap="round" y1="81.0144" x1="59.4" y2="79.2144" stroke-width="0.576" x2="57.6"/>
      <line  stroke="white" stroke-linecap="round" y1="79.2144" x1="57.6" y2="75.6144" stroke-width="0.576" x2="57.6"/>
      <line  stroke="white" stroke-linecap="round" y1="75.6144" x1="57.6" y2="73.8144" stroke-width="0.576" x2="59.4"/>
      <line  stroke="white" stroke-linecap="round" y1="66.6142" x1="63" y2="66.6142" stroke-width="0.576" x2="59.4"/>
      <line  stroke="white" stroke-linecap="round" y1="68.4142" x1="64.8" y2="66.6142" stroke-width="0.576" x2="63"/>
      <line  stroke="white" stroke-linecap="round" y1="66.6142" x1="59.4" y2="68.4142" stroke-width="0.576" x2="57.6"/>
      <line  stroke="white" stroke-linecap="round" y1="72.0144" x1="57.6" y2="68.4142" stroke-width="0.576" x2="57.6"/>
      <line  stroke="white" stroke-linecap="round" y1="88.2144" x1="63" y2="88.2144" stroke-width="0.576" x2="59.4"/>
     </g>
    </g>
    <g >
     <title >element:JP2</title>
     <g >
      <title >package:1X03</title>
      <line  stroke="white" stroke-linecap="round" y1="81.0144" x1="48.6" y2="82.8144" stroke-width="0.576" x2="50.4"/>
      <line  stroke="white" stroke-linecap="round" y1="82.8144" x1="50.4" y2="86.4144" stroke-width="0.576" x2="50.4"/>
      <line  stroke="white" stroke-linecap="round" y1="86.4144" x1="50.4" y2="88.2144" stroke-width="0.576" x2="48.6"/>
      <line  stroke="white" stroke-linecap="round" y1="88.2144" x1="45" y2="86.4144" stroke-width="0.576" x2="43.2"/>
      <line  stroke="white" stroke-linecap="round" y1="86.4144" x1="43.2" y2="82.8144" stroke-width="0.576" x2="43.2"/>
      <line  stroke="white" stroke-linecap="round" y1="82.8144" x1="43.2" y2="81.0144" stroke-width="0.576" x2="45"/>
      <line  stroke="white" stroke-linecap="round" y1="68.4142" x1="50.4" y2="72.0144" stroke-width="0.576" x2="50.4"/>
      <line  stroke="white" stroke-linecap="round" y1="72.0144" x1="50.4" y2="73.8144" stroke-width="0.576" x2="48.6"/>
      <line  stroke="white" stroke-linecap="round" y1="73.8144" x1="45" y2="72.0144" stroke-width="0.576" x2="43.2"/>
      <line  stroke="white" stroke-linecap="round" y1="73.8144" x1="48.6" y2="75.6144" stroke-width="0.576" x2="50.4"/>
      <line  stroke="white" stroke-linecap="round" y1="75.6144" x1="50.4" y2="79.2144" stroke-width="0.576" x2="50.4"/>
      <line  stroke="white" stroke-linecap="round" y1="79.2144" x1="50.4" y2="81.0144" stroke-width="0.576" x2="48.6"/>
      <line  stroke="white" stroke-linecap="round" y1="81.0144" x1="45" y2="79.2144" stroke-width="0.576" x2="43.2"/>
      <line  stroke="white" stroke-linecap="round" y1="79.2144" x1="43.2" y2="75.6144" stroke-width="0.576" x2="43.2"/>
      <line  stroke="white" stroke-linecap="round" y1="75.6144" x1="43.2" y2="73.8144" stroke-width="0.576" x2="45"/>
      <line  stroke="white" stroke-linecap="round" y1="66.6142" x1="48.6" y2="66.6142" stroke-width="0.576" x2="45"/>
      <line  stroke="white" stroke-linecap="round" y1="68.4142" x1="50.4" y2="66.6142" stroke-width="0.576" x2="48.6"/>
      <line  stroke="white" stroke-linecap="round" y1="66.6142" x1="45" y2="68.4142" stroke-width="0.576" x2="43.2"/>
      <line  stroke="white" stroke-linecap="round" y1="72.0144" x1="43.2" y2="68.4142" stroke-width="0.576" x2="43.2"/>
      <line  stroke="white" stroke-linecap="round" y1="88.2144" x1="48.6" y2="88.2144" stroke-width="0.576" x2="45"/>
     </g>
    </g>
    <g >
     <title >element:JP3</title>
     <g >
      <title >package:1X03</title>
      <line  stroke="white" stroke-linecap="round" y1="81.0144" x1="34.2" y2="82.8144" stroke-width="0.576" x2="36"/>
      <line  stroke="white" stroke-linecap="round" y1="82.8144" x1="36" y2="86.4144" stroke-width="0.576" x2="36"/>
      <line  stroke="white" stroke-linecap="round" y1="86.4144" x1="36" y2="88.2144" stroke-width="0.576" x2="34.2"/>
      <line  stroke="white" stroke-linecap="round" y1="88.2144" x1="30.6" y2="86.4144" stroke-width="0.576" x2="28.8"/>
      <line  stroke="white" stroke-linecap="round" y1="86.4144" x1="28.8" y2="82.8144" stroke-width="0.576" x2="28.8"/>
      <line  stroke="white" stroke-linecap="round" y1="82.8144" x1="28.8" y2="81.0144" stroke-width="0.576" x2="30.6"/>
      <line  stroke="white" stroke-linecap="round" y1="68.4142" x1="36" y2="72.0144" stroke-width="0.576" x2="36"/>
      <line  stroke="white" stroke-linecap="round" y1="72.0144" x1="36" y2="73.8144" stroke-width="0.576" x2="34.2"/>
      <line  stroke="white" stroke-linecap="round" y1="73.8144" x1="30.6" y2="72.0144" stroke-width="0.576" x2="28.8"/>
      <line  stroke="white" stroke-linecap="round" y1="73.8144" x1="34.2" y2="75.6144" stroke-width="0.576" x2="36"/>
      <line  stroke="white" stroke-linecap="round" y1="75.6144" x1="36" y2="79.2144" stroke-width="0.576" x2="36"/>
      <line  stroke="white" stroke-linecap="round" y1="79.2144" x1="36" y2="81.0144" stroke-width="0.576" x2="34.2"/>
      <line  stroke="white" stroke-linecap="round" y1="81.0144" x1="30.6" y2="79.2144" stroke-width="0.576" x2="28.8"/>
      <line  stroke="white" stroke-linecap="round" y1="79.2144" x1="28.8" y2="75.6144" stroke-width="0.576" x2="28.8"/>
      <line  stroke="white" stroke-linecap="round" y1="75.6144" x1="28.8" y2="73.8144" stroke-width="0.576" x2="30.6"/>
      <line  stroke="white" stroke-linecap="round" y1="66.6142" x1="34.2" y2="66.6142" stroke-width="0.576" x2="30.6"/>
      <line  stroke="white" stroke-linecap="round" y1="68.4142" x1="36" y2="66.6142" stroke-width="0.576" x2="34.2"/>
      <line  stroke="white" stroke-linecap="round" y1="66.6142" x1="30.6" y2="68.4142" stroke-width="0.576" x2="28.8"/>
      <line  stroke="white" stroke-linecap="round" y1="72.0144" x1="28.8" y2="68.4142" stroke-width="0.576" x2="28.8"/>
      <line  stroke="white" stroke-linecap="round" y1="88.2144" x1="34.2" y2="88.2144" stroke-width="0.576" x2="30.6"/>
     </g>
    </g>
    <g >
     <title >element:JP4</title>
     <g >
      <title >package:1X03</title>
      <line  stroke="white" stroke-linecap="round" y1="81.0144" x1="19.8" y2="82.8144" stroke-width="0.576" x2="21.6"/>
      <line  stroke="white" stroke-linecap="round" y1="82.8144" x1="21.6" y2="86.4144" stroke-width="0.576" x2="21.6"/>
      <line  stroke="white" stroke-linecap="round" y1="86.4144" x1="21.6" y2="88.2144" stroke-width="0.576" x2="19.8"/>
      <line  stroke="white" stroke-linecap="round" y1="88.2144" x1="16.2" y2="86.4144" stroke-width="0.576" x2="14.4"/>
      <line  stroke="white" stroke-linecap="round" y1="86.4144" x1="14.4" y2="82.8144" stroke-width="0.576" x2="14.4"/>
      <line  stroke="white" stroke-linecap="round" y1="82.8144" x1="14.4" y2="81.0144" stroke-width="0.576" x2="16.2"/>
      <line  stroke="white" stroke-linecap="round" y1="68.4142" x1="21.6" y2="72.0144" stroke-width="0.576" x2="21.6"/>
      <line  stroke="white" stroke-linecap="round" y1="72.0144" x1="21.6" y2="73.8144" stroke-width="0.576" x2="19.8"/>
      <line  stroke="white" stroke-linecap="round" y1="73.8144" x1="16.2" y2="72.0144" stroke-width="0.576" x2="14.4"/>
      <line  stroke="white" stroke-linecap="round" y1="73.8144" x1="19.8" y2="75.6144" stroke-width="0.576" x2="21.6"/>
      <line  stroke="white" stroke-linecap="round" y1="75.6144" x1="21.6" y2="79.2144" stroke-width="0.576" x2="21.6"/>
      <line  stroke="white" stroke-linecap="round" y1="79.2144" x1="21.6" y2="81.0144" stroke-width="0.576" x2="19.8"/>
      <line  stroke="white" stroke-linecap="round" y1="81.0144" x1="16.2" y2="79.2144" stroke-width="0.576" x2="14.4"/>
      <line  stroke="white" stroke-linecap="round" y1="79.2144" x1="14.4" y2="75.6144" stroke-width="0.576" x2="14.4"/>
      <line  stroke="white" stroke-linecap="round" y1="75.6144" x1="14.4" y2="73.8144" stroke-width="0.576" x2="16.2"/>
      <line  stroke="white" stroke-linecap="round" y1="66.6142" x1="19.8" y2="66.6142" stroke-width="0.576" x2="16.2"/>
      <line  stroke="white" stroke-linecap="round" y1="68.4142" x1="21.6" y2="66.6142" stroke-width="0.576" x2="19.8"/>
      <line  stroke="white" stroke-linecap="round" y1="66.6142" x1="16.2" y2="68.4142" stroke-width="0.576" x2="14.4"/>
      <line  stroke="white" stroke-linecap="round" y1="72.0144" x1="14.4" y2="68.4142" stroke-width="0.576" x2="14.4"/>
      <line  stroke="white" stroke-linecap="round" y1="88.2144" x1="19.8" y2="88.2144" stroke-width="0.576" x2="16.2"/>
     </g>
    </g>
    <g >
     <title >element:JP5</title>
     <g >
      <title >package:1X05</title>
      <line  stroke="white" stroke-linecap="round" y1="109.814" x1="34.2" y2="109.814" stroke-width="0.576" x2="30.6"/>
      <line  stroke="white" stroke-linecap="round" y1="109.814" x1="30.6" y2="108.014" stroke-width="0.576" x2="28.8"/>
      <line  stroke="white" stroke-linecap="round" y1="104.414" x1="28.8" y2="102.614" stroke-width="0.576" x2="30.6"/>
      <line  stroke="white" stroke-linecap="round" y1="108.014" x1="28.8" y2="109.814" stroke-width="0.576" x2="27"/>
      <line  stroke="white" stroke-linecap="round" y1="109.814" x1="27" y2="109.814" stroke-width="0.576" x2="23.4"/>
      <line  stroke="white" stroke-linecap="round" y1="109.814" x1="23.4" y2="108.014" stroke-width="0.576" x2="21.6"/>
      <line  stroke="white" stroke-linecap="round" y1="104.414" x1="21.6" y2="102.614" stroke-width="0.576" x2="23.4"/>
      <line  stroke="white" stroke-linecap="round" y1="102.614" x1="23.4" y2="102.614" stroke-width="0.576" x2="27"/>
      <line  stroke="white" stroke-linecap="round" y1="102.614" x1="27" y2="104.414" stroke-width="0.576" x2="28.8"/>
      <line  stroke="white" stroke-linecap="round" y1="108.014" x1="43.2" y2="109.814" stroke-width="0.576" x2="41.4"/>
      <line  stroke="white" stroke-linecap="round" y1="109.814" x1="41.4" y2="109.814" stroke-width="0.576" x2="37.8"/>
      <line  stroke="white" stroke-linecap="round" y1="109.814" x1="37.8" y2="108.014" stroke-width="0.576" x2="36"/>
      <line  stroke="white" stroke-linecap="round" y1="104.414" x1="36" y2="102.614" stroke-width="0.576" x2="37.8"/>
      <line  stroke="white" stroke-linecap="round" y1="102.614" x1="37.8" y2="102.614" stroke-width="0.576" x2="41.4"/>
      <line  stroke="white" stroke-linecap="round" y1="102.614" x1="41.4" y2="104.414" stroke-width="0.576" x2="43.2"/>
      <line  stroke="white" stroke-linecap="round" y1="109.814" x1="34.2" y2="108.014" stroke-width="0.576" x2="36"/>
      <line  stroke="white" stroke-linecap="round" y1="104.414" x1="36" y2="102.614" stroke-width="0.576" x2="34.2"/>
      <line  stroke="white" stroke-linecap="round" y1="102.614" x1="30.6" y2="102.614" stroke-width="0.576" x2="34.2"/>
      <line  stroke="white" stroke-linecap="round" y1="109.814" x1="55.8" y2="109.814" stroke-width="0.576" x2="52.2"/>
      <line  stroke="white" stroke-linecap="round" y1="109.814" x1="52.2" y2="108.014" stroke-width="0.576" x2="50.4"/>
      <line  stroke="white" stroke-linecap="round" y1="104.414" x1="50.4" y2="102.614" stroke-width="0.576" x2="52.2"/>
      <line  stroke="white" stroke-linecap="round" y1="108.014" x1="50.4" y2="109.814" stroke-width="0.576" x2="48.6"/>
      <line  stroke="white" stroke-linecap="round" y1="109.814" x1="48.6" y2="109.814" stroke-width="0.576" x2="45"/>
      <line  stroke="white" stroke-linecap="round" y1="109.814" x1="45" y2="108.014" stroke-width="0.576" x2="43.2"/>
      <line  stroke="white" stroke-linecap="round" y1="104.414" x1="43.2" y2="102.614" stroke-width="0.576" x2="45"/>
      <line  stroke="white" stroke-linecap="round" y1="102.614" x1="45" y2="102.614" stroke-width="0.576" x2="48.6"/>
      <line  stroke="white" stroke-linecap="round" y1="102.614" x1="48.6" y2="104.414" stroke-width="0.576" x2="50.4"/>
      <line  stroke="white" stroke-linecap="round" y1="108.014" x1="57.6" y2="104.414" stroke-width="0.576" x2="57.6"/>
      <line  stroke="white" stroke-linecap="round" y1="109.814" x1="55.8" y2="108.014" stroke-width="0.576" x2="57.6"/>
      <line  stroke="white" stroke-linecap="round" y1="104.414" x1="57.6" y2="102.614" stroke-width="0.576" x2="55.8"/>
      <line  stroke="white" stroke-linecap="round" y1="102.614" x1="52.2" y2="102.614" stroke-width="0.576" x2="55.8"/>
      <line  stroke="white" stroke-linecap="round" y1="108.014" x1="21.6" y2="104.414" stroke-width="0.576" x2="21.6"/>
     </g>
    </g>
    <g >
     <title >element:JP6</title>
     <g >
      <title >package:RJ45-8</title>
      <line  stroke="white" stroke-linecap="round" y1="58.9607" x1="61.2" y2="58.9607" stroke-width="0.576" x2="18"/>
      <line  stroke="white" stroke-linecap="round" y1="22.1103" x1="61.2" y2="58.9607" stroke-width="0.576" x2="61.2"/>
      <line  stroke="white" stroke-linecap="round" y1="22.1103" x1="61.2" y2="22.1103" stroke-width="0.576" x2="18"/>
      <line  stroke="white" stroke-linecap="round" y1="58.9607" x1="18" y2="22.1103" stroke-width="0.576" x2="18"/>
     </g>
    </g>
    <g >
     <title >element:JP7</title>
     <g >
      <title >package:1X03</title>
      <line  stroke="white" stroke-linecap="round" y1="52.2142" x1="77.4" y2="54.0142" stroke-width="0.576" x2="79.2"/>
      <line  stroke="white" stroke-linecap="round" y1="54.0142" x1="79.2" y2="57.6142" stroke-width="0.576" x2="79.2"/>
      <line  stroke="white" stroke-linecap="round" y1="57.6142" x1="79.2" y2="59.4142" stroke-width="0.576" x2="77.4"/>
      <line  stroke="white" stroke-linecap="round" y1="59.4142" x1="73.8" y2="57.6142" stroke-width="0.576" x2="72"/>
      <line  stroke="white" stroke-linecap="round" y1="57.6142" x1="72" y2="54.0142" stroke-width="0.576" x2="72"/>
      <line  stroke="white" stroke-linecap="round" y1="54.0142" x1="72" y2="52.2142" stroke-width="0.576" x2="73.8"/>
      <line  stroke="white" stroke-linecap="round" y1="39.6142" x1="79.2" y2="43.2142" stroke-width="0.576" x2="79.2"/>
      <line  stroke="white" stroke-linecap="round" y1="43.2142" x1="79.2" y2="45.0142" stroke-width="0.576" x2="77.4"/>
      <line  stroke="white" stroke-linecap="round" y1="45.0142" x1="73.8" y2="43.2142" stroke-width="0.576" x2="72"/>
      <line  stroke="white" stroke-linecap="round" y1="45.0142" x1="77.4" y2="46.8142" stroke-width="0.576" x2="79.2"/>
      <line  stroke="white" stroke-linecap="round" y1="46.8142" x1="79.2" y2="50.4142" stroke-width="0.576" x2="79.2"/>
      <line  stroke="white" stroke-linecap="round" y1="50.4142" x1="79.2" y2="52.2142" stroke-width="0.576" x2="77.4"/>
      <line  stroke="white" stroke-linecap="round" y1="52.2142" x1="73.8" y2="50.4142" stroke-width="0.576" x2="72"/>
      <line  stroke="white" stroke-linecap="round" y1="50.4142" x1="72" y2="46.8142" stroke-width="0.576" x2="72"/>
      <line  stroke="white" stroke-linecap="round" y1="46.8142" x1="72" y2="45.0142" stroke-width="0.576" x2="73.8"/>
      <line  stroke="white" stroke-linecap="round" y1="37.8142" x1="77.4" y2="37.8142" stroke-width="0.576" x2="73.8"/>
      <line  stroke="white" stroke-linecap="round" y1="39.6142" x1="79.2" y2="37.8142" stroke-width="0.576" x2="77.4"/>
      <line  stroke="white" stroke-linecap="round" y1="37.8142" x1="73.8" y2="39.6142" stroke-width="0.576" x2="72"/>
      <line  stroke="white" stroke-linecap="round" y1="43.2142" x1="72" y2="39.6142" stroke-width="0.576" x2="72"/>
      <line  stroke="white" stroke-linecap="round" y1="59.4142" x1="77.4" y2="59.4142" stroke-width="0.576" x2="73.8"/>
     </g>
    </g>
    <g >
     <title >element:LOGO3</title>
     <g >
      <title >package:SFE_LOGO_FLAME_.1</title>
      <g >
       <title >polygon</title>
       <path  fill="none" stroke="white" stroke-linecap="round" stroke-width="0.0283465" d="M18.4989,99.1562L18.4989,99.4111M18.4989,99.4111L18.4705,99.4961M18.4705,99.4961L18.4422,99.553M18.4422,99.553L18.3572,99.6379M18.3572,99.6379L18.2722,99.666M18.2722,99.666L18.1871,99.666M18.1871,99.666L17.9603,99.6091M17.9603,99.6091L17.8469,99.553M17.8469,99.553L17.7619,99.4961M17.7619,99.4961L17.6485,99.4111M17.6485,99.4111L17.4784,99.2412M17.4784,99.2412L17.365,99.0706M17.365,99.0706L17.3367,98.9575M17.3367,98.9575L17.3367,98.7876M17.3367,98.7876L17.365,98.7026M17.365,98.7026L17.3934,98.6458M17.3934,98.6458L17.4501,98.5608M17.4501,98.5608L17.5635,98.4758M17.5635,98.4758L17.6769,98.419M17.6769,98.419L17.8186,98.3909M17.8186,98.3909L17.932,98.3621M17.932,98.3621L18.102,98.3621M18.102,98.3621L18.1588,98.3909M18.1588,98.3909L18.1871,98.3909M18.1871,98.3909L18.1588,98.3621M18.1588,98.3621L18.0454,98.2771M18.0454,98.2771L17.6485,98.0784M17.6485,98.0784L17.3934,98.0222M17.3934,98.0222L17.1099,98.0222M17.1099,98.0222L16.7981,98.0784M16.7981,98.0784L16.4863,98.249M16.4863,98.249L16.2312,98.447M16.2312,98.447L16.0895,98.6738M16.0895,98.6738L16.0044,98.9294M16.0044,98.9294L16.0044,99.1562M16.0044,99.1562L16.0611,99.4111M16.0611,99.4111L16.2028,99.666M16.2028,99.666L16.4012,99.8928M16.4012,99.8928L16.628,100.148M16.628,100.148L16.8265,100.346M16.8265,100.346L16.9115,100.573M16.9115,100.573L16.9115,100.772M16.9115,100.772L16.8548,100.942M16.8548,100.942L16.7414,101.084M16.7414,101.084L16.5713,101.197M16.5713,101.197L16.3446,101.254M16.3446,101.254L16.1178,101.254M16.1178,101.254L15.9761,101.226M15.9761,101.226L15.8343,101.169M15.8343,101.169L15.6642,100.999M15.6642,100.999L15.6076,100.913M15.6076,100.913L15.5792,100.828M15.5792,100.828L15.5792,100.715M15.5792,100.715L15.6076,100.63M15.6076,100.63L15.7776,100.46M15.7776,100.46L15.8627,100.431M15.8627,100.431L15.9761,100.374M15.9761,100.374L16.0044,100.346M16.0044,100.346L15.891,100.29M15.891,100.29L15.5508,100.29M15.5508,100.29L15.3808,100.318M15.3808,100.318L15.2391,100.346M15.2391,100.346L15.0973,100.403M15.0973,100.403L14.9839,100.488M14.9839,100.488L14.8422,100.601M14.8422,100.601L14.6722,100.885M14.6722,100.885L14.6154,101.084M14.6154,101.084L14.5871,101.31M14.5871,101.31L14.5871,105.193M14.5871,105.193L14.7288,105.052M14.7288,105.052L14.8139,104.91M14.8139,104.91L14.9556,104.769M14.9556,104.769L15.0973,104.599M15.0973,104.599L15.4374,104.258M15.4374,104.258L15.7776,103.861M15.7776,103.861L16.0611,103.578M16.0611,103.578L16.3446,103.408M16.3446,103.408L16.5146,103.38M16.5146,103.38L17.0532,103.38M17.0532,103.38L17.3934,103.323M17.3934,103.323L17.7052,103.238M17.7052,103.238L17.9887,103.124M17.9887,103.124L18.2722,102.954M18.2722,102.954L18.4989,102.756M18.4989,102.756L18.7257,102.529M18.7257,102.529L18.9241,102.274M18.9241,102.274L19.2076,101.764M19.2076,101.764L19.3493,101.226M19.3493,101.226L19.3776,100.743M19.3776,100.743L19.2926,100.29M19.2926,100.29L19.1508,99.8647M19.1508,99.8647L18.9524,99.553M18.9524,99.553L18.7257,99.2974M18.7257,99.2974L18.4989,99.1562M14.5871,105.165L14.6154,105.165M14.5871,105.137L14.6438,105.137M14.5871,105.108L14.6722,105.108M14.5871,105.08L14.7005,105.08M14.5871,105.052L14.7288,105.052M14.5871,105.024L14.7458,105.024M14.5871,104.995L14.7628,104.995M14.5871,104.967L14.7799,104.967M14.5871,104.939L14.7969,104.939M14.5871,104.91L14.8139,104.91M14.5871,104.882L14.8422,104.882M14.5871,104.854L14.8705,104.854M14.5871,104.826L14.8989,104.826M14.5871,104.797L14.9273,104.797M14.5871,104.769L14.9556,104.769M14.5871,104.74L14.9792,104.74M14.5871,104.712L15.0029,104.712M14.5871,104.684L15.0265,104.684M14.5871,104.655L15.0501,104.655M14.5871,104.627L15.0737,104.627M14.5871,104.599L15.0973,104.599M14.5871,104.57L15.1257,104.57M14.5871,104.542L15.154,104.542M14.5871,104.513L15.1824,104.513M14.5871,104.485L15.2107,104.485M14.5871,104.457L15.2391,104.457M14.5871,104.428L15.2674,104.428M14.5871,104.4L15.2958,104.4M14.5871,104.372L15.3241,104.372M14.5871,104.343L15.3524,104.343M14.5871,104.315L15.3808,104.315M14.5871,104.287L15.4092,104.287M14.5871,104.258L15.4374,104.258M14.5871,104.23L15.4618,104.23M14.5871,104.201L15.486,104.201M14.5871,104.173L15.5104,104.173M14.5871,104.145L15.5346,104.145M14.5871,104.116L15.559,104.116M14.5871,104.088L15.5832,104.088M14.5871,104.06L15.6076,104.06M14.5871,104.031L15.6318,104.031M14.5871,104.003L15.6561,104.003M14.5871,103.974L15.6804,103.974M14.5871,103.946L15.7047,103.946M14.5871,103.918L15.729,103.918M14.5871,103.89L15.7533,103.89M14.5871,103.861L15.7776,103.861M14.5871,103.833L15.806,103.833M14.5871,103.805L15.8343,103.805M14.5871,103.776L15.8627,103.776M14.5871,103.748L15.891,103.748M14.5871,103.72L15.9193,103.72M14.5871,103.692L15.9477,103.692M14.5871,103.663L15.9761,103.663M14.5871,103.635L16.0044,103.635M14.5871,103.607L16.0327,103.607M14.5871,103.578L16.0611,103.578M14.5871,103.55L16.1083,103.55M14.5871,103.522L16.1556,103.522M14.5871,103.493L16.2028,103.493M14.5871,103.465L16.25,103.465M14.5871,103.436L16.2973,103.436M14.5871,103.408L16.3446,103.408M14.5871,103.38L17.0532,103.38M14.5871,103.351L17.2233,103.351M14.5871,103.323L17.3934,103.323M14.5871,103.295L17.4973,103.295M14.5871,103.266L17.6013,103.266M14.5871,103.238L17.7052,103.238M14.5871,103.209L17.7761,103.209M14.5871,103.181L17.8469,103.181M14.5871,103.153L17.9178,103.153M14.5871,103.124L17.9887,103.124M14.5871,103.096L18.0359,103.096M14.5871,103.068L18.0832,103.068M14.5871,103.039L18.1304,103.039M14.5871,103.011L18.1776,103.011M14.5871,102.982L18.2249,102.982M14.5871,102.954L18.2722,102.954M14.5871,102.926L18.3045,102.926M14.5871,102.897L18.3369,102.897M14.5871,102.869L18.3693,102.869M14.5871,102.841L18.4017,102.841M14.5871,102.812L18.4341,102.812M14.5871,102.784L18.4665,102.784M14.5871,102.756L18.4989,102.756M14.5871,102.727L18.5273,102.727M14.5871,102.699L18.5556,102.699M14.5871,102.671L18.5839,102.671M14.5871,102.642L18.6123,102.642M14.5871,102.614L18.6407,102.614M14.5871,102.586L18.669,102.586M14.5871,102.558L18.6973,102.558M14.5871,102.529L18.7257,102.529M14.5871,102.501L18.7477,102.501M14.5871,102.473L18.7698,102.473M14.5871,102.444L18.7918,102.444M14.5871,102.416L18.8139,102.416M14.5871,102.388L18.8359,102.388M14.5871,102.359L18.858,102.359M14.5871,102.331L18.88,102.331M14.5871,102.303L18.902,102.303M14.5871,102.274L18.9241,102.274M14.5871,102.246L18.9398,102.246M14.5871,102.218L18.9556,102.218M14.5871,102.189L18.9714,102.189M14.5871,102.161L18.9871,102.161M14.5871,102.132L19.0028,102.132M14.5871,102.104L19.0186,102.104M14.5871,102.076L19.0344,102.076M14.5871,102.047L19.05,102.047M14.5871,102.019L19.0658,102.019M14.5871,101.991L19.0816,101.991M14.5871,101.962L19.0974,101.962M14.5871,101.934L19.113,101.934M14.5871,101.905L19.1288,101.905M14.5871,101.877L19.1446,101.877M14.5871,101.849L19.1603,101.849M14.5871,101.82L19.176,101.82M14.5871,101.792L19.1918,101.792M14.5871,101.764L19.2076,101.764M14.5871,101.735L19.215,101.735M14.5871,101.707L19.2225,101.707M14.5871,101.678L19.2299,101.678M14.5871,101.65L19.2374,101.65M14.5871,101.622L19.2449,101.622M14.5871,101.593L19.2523,101.593M14.5871,101.565L19.2598,101.565M14.5871,101.537L19.2672,101.537M14.5871,101.508L19.2747,101.508M14.5871,101.48L19.2822,101.48M14.5871,101.452L19.2896,101.452M14.5871,101.424L19.2971,101.424M14.5871,101.395L19.3045,101.395M14.5871,101.367L19.312,101.367M14.5871,101.339L19.3195,101.339M14.5871,101.31L19.3269,101.31M14.5907,101.282L19.3344,101.282M14.5942,101.254L16.1178,101.254M16.3446,101.254L19.3418,101.254M14.5977,101.226L15.9761,101.226M16.458,101.226L19.3493,101.226M14.6012,101.197L15.9052,101.197M16.5713,101.197L19.3509,101.197M14.6048,101.169L15.8343,101.169M16.6139,101.169L19.3526,101.169M14.6084,101.14L15.806,101.14M16.6564,101.14L19.3543,101.14M14.6119,101.112L15.7776,101.112M16.6989,101.112L19.356,101.112M14.6154,101.084L15.7493,101.084M16.7414,101.084L19.3576,101.084M14.6236,101.055L15.7209,101.055M16.7641,101.055L19.3593,101.055M14.6316,101.027L15.6926,101.027M16.7868,101.027L19.3609,101.027M14.6398,100.999L15.6642,100.999M16.8095,100.999L19.3626,100.999M14.6478,100.97L15.6454,100.97M16.8322,100.97L19.3643,100.97M14.656,100.942L15.6264,100.942M16.8548,100.942L19.366,100.942M14.664,100.913L15.6076,100.913M16.8643,100.913L19.3676,100.913M14.6722,100.885L15.5982,100.885M16.8737,100.885L19.3693,100.885M14.6892,100.857L15.5886,100.857M16.8831,100.857L19.371,100.857M14.7061,100.828L15.5792,100.828M16.8926,100.828L19.3726,100.828M14.7231,100.8L15.5792,100.8M16.9021,100.8L19.3743,100.8M14.7401,100.772L15.5792,100.772M16.9115,100.772L19.376,100.772M14.7572,100.743L15.5792,100.743M16.9115,100.743L19.3776,100.743M14.7742,100.715L15.5792,100.715M16.9115,100.715L19.3723,100.715M14.7912,100.687L15.5886,100.687M16.9115,100.687L19.367,100.687M14.8082,100.658L15.5981,100.658M16.9115,100.658L19.3617,100.658M14.8252,100.63L15.6076,100.63M16.9115,100.63L19.3564,100.63M14.8422,100.601L15.6359,100.601M16.9115,100.601L19.3511,100.601M14.8776,100.573L15.6642,100.573M16.9115,100.573L19.3458,100.573M14.9131,100.545L15.6926,100.545M16.9008,100.545L19.3404,100.545M14.9485,100.516L15.7209,100.516M16.8903,100.516L19.3351,100.516M14.9839,100.488L15.7493,100.488M16.8796,100.488L19.3298,100.488M15.0217,100.46L15.7776,100.46M16.869,100.46L19.3245,100.46M15.0595,100.431L15.8627,100.431M16.8584,100.431L19.3192,100.431M15.0973,100.403L15.9193,100.403M16.8477,100.403L19.3139,100.403M15.1682,100.374L15.9761,100.374M16.8371,100.374L19.3085,100.374M15.2391,100.346L16.0044,100.346M16.8265,100.346L19.3032,100.346M15.3808,100.318L15.9477,100.318M16.7981,100.318L19.2979,100.318M16.7697,100.29L19.2926,100.29M16.7414,100.261L19.2832,100.261M16.7131,100.233L19.2737,100.233M16.6847,100.205L19.2642,100.205M16.6564,100.176L19.2548,100.176M16.628,100.148L19.2454,100.148M16.6028,100.12L19.2359,100.12M16.5776,100.092L19.2264,100.092M16.5524,100.063L19.217,100.063M16.5272,100.035L19.2076,100.035M16.502,100.007L19.1982,100.007M16.4768,99.9778L19.1886,99.9778M16.4516,99.9497L19.1792,99.9497M16.4264,99.9216L19.1698,99.9216M16.4012,99.8928L19.1604,99.8928M16.3765,99.8647L19.1508,99.8647M16.3516,99.8359L19.1328,99.8359M16.3269,99.8078L19.1148,99.8078M16.302,99.7798L19.0968,99.7798M16.2773,99.751L19.0787,99.751M16.2524,99.7229L19.0607,99.7229M16.2276,99.6948L19.0426,99.6948M16.2028,99.666L18.1871,99.666M18.2722,99.666L19.0246,99.666M16.1871,99.6379L18.0737,99.6379M18.3572,99.6379L19.0066,99.6379M16.1713,99.6091L17.9603,99.6091M18.3855,99.6091L18.9885,99.6091M16.1556,99.581L17.9036,99.581M18.4139,99.581L18.9705,99.581M16.1398,99.553L17.8469,99.553M18.4422,99.553L18.9524,99.553M16.1241,99.5242L17.8044,99.5242M18.4564,99.5242L18.9272,99.5242M16.1083,99.4961L17.7619,99.4961M18.4705,99.4961L18.9021,99.4961M16.0926,99.468L17.7241,99.468M18.48,99.468L18.8769,99.468M16.0768,99.4392L17.6863,99.4392M18.4895,99.4392L18.8517,99.4392M16.0611,99.4111L17.6485,99.4111M18.4989,99.4111L18.8265,99.4111M16.0548,99.3823L17.6201,99.3823M18.4989,99.3823L18.8013,99.3823M16.0485,99.3542L17.5918,99.3542M18.4989,99.3542L18.7761,99.3542M16.0422,99.3262L17.5635,99.3262M18.4989,99.3262L18.7509,99.3262M16.0359,99.2974L17.5351,99.2974M18.4989,99.2974L18.7257,99.2974M16.0296,99.2693L17.5068,99.2693M18.4989,99.2693L18.6803,99.2693M16.0233,99.2412L17.4784,99.2412M18.4989,99.2412L18.635,99.2412M16.017,99.2124L17.4595,99.2124M18.4989,99.2124L18.5896,99.2124M16.0107,99.1843L17.4406,99.1843M18.4989,99.1843L18.5442,99.1843M16.0044,99.1562L17.4218,99.1562M16.0044,99.1274L17.4028,99.1274M16.0044,99.0994L17.384,99.0994M16.0044,99.0706L17.365,99.0706M16.0044,99.0425L17.358,99.0425M16.0044,99.0144L17.3508,99.0144M16.0044,98.9856L17.3438,98.9856M16.0044,98.9575L17.3367,98.9575M16.0044,98.9294L17.3367,98.9294M16.0139,98.9006L17.3367,98.9006M16.0233,98.8726L17.3367,98.8726M16.0327,98.8438L17.3367,98.8438M16.0422,98.8157L17.3367,98.8157M16.0517,98.7876L17.3367,98.7876M16.0611,98.7588L17.3462,98.7588M16.0705,98.7307L17.3556,98.7307M16.08,98.7026L17.365,98.7026M16.0895,98.6738L17.3792,98.6738M16.1072,98.6458L17.3934,98.6458M16.1249,98.6177L17.4123,98.6177M16.1426,98.5889L17.4312,98.5889M16.1603,98.5608L17.4501,98.5608M16.178,98.532L17.4879,98.532M16.1958,98.5039L17.5257,98.5039M16.2135,98.4758L17.5635,98.4758M16.2312,98.447L17.6201,98.447M16.2676,98.419L17.6769,98.419M16.304,98.3909L17.8186,98.3909M18.1588,98.3909L18.1871,98.3909M16.3405,98.3621L18.1588,98.3621M16.377,98.334L18.121,98.334M16.4134,98.3052L18.0832,98.3052M16.4498,98.2771L18.0454,98.2771M16.4863,98.249L17.9887,98.249M16.5383,98.2202L17.932,98.2202M16.5902,98.1922L17.8753,98.1922M16.6422,98.1641L17.8186,98.1641M16.6942,98.1353L17.7619,98.1353M16.7461,98.1072L17.7052,98.1072M16.7981,98.0784L17.6485,98.0784M16.954,98.0503L17.5209,98.0503"/>
      </g>
     </g>
    </g>
    <g >
     <title >element:STANDOFF1</title>
     <g >
      <title >package:STAND-OFF</title>
     </g>
    </g>
    <g >
     <title >element:STANDOFF2</title>
     <g >
      <title >package:STAND-OFF</title>
     </g>
    </g>
    <g >
     <title >element:STANDOFF3</title>
     <g >
      <title >package:STAND-OFF</title>
     </g>
    </g>
    <g >
     <title >element:STANDOFF4</title>
     <g >
      <title >package:STAND-OFF</title>
     </g>
    </g>
    <g >
     <title >element:U$7</title>
     <g >
      <title >package:OSHW-LOGO-S</title>
     </g>
    </g>
   </g>
   <rect  width="43.2" x="18" y="0" fill="#ffffff" height="58.9607" stroke="none" fill-opacity="0.15" stroke-width="0"/>
   <circle  fill="none" cx="61.2" cy="70.2142" connectorname="1" stroke="#9A916C" r="2.052" id="connector0pin" stroke-width="1.224"/>
   <circle  fill="none" cx="61.2" cy="77.4144" connectorname="2" stroke="#9A916C" r="2.052" id="connector1pin" stroke-width="1.224"/>
   <circle  fill="none" cx="61.2" cy="84.6144" connectorname="E-" stroke="#9A916C" r="2.052" id="connector2pin" stroke-width="1.224"/>
   <circle  fill="none" cx="46.8" cy="70.2142" connectorname="N$1" stroke="#9A916C" r="2.052" id="connector3pin" stroke-width="1.224"/>
   <circle  fill="none" cx="46.8" cy="77.4144" connectorname="2" stroke="#9A916C" r="2.052" id="connector4pin" stroke-width="1.224"/>
   <circle  fill="none" cx="46.8" cy="84.6144" connectorname="A-" stroke="#9A916C" r="2.052" id="connector5pin" stroke-width="1.224"/>
   <circle  fill="none" cx="32.4" cy="70.2142" connectorname="1" stroke="#9A916C" r="2.052" id="connector6pin" stroke-width="1.224"/>
   <circle  fill="none" cx="32.4" cy="77.4144" connectorname="2" stroke="#9A916C" r="2.052" id="connector7pin" stroke-width="1.224"/>
   <circle  fill="none" cx="32.4" cy="84.6144" connectorname="A+" stroke="#9A916C" r="2.052" id="connector8pin" stroke-width="1.224"/>
   <circle  fill="none" cx="18" cy="70.2142" connectorname="N$1" stroke="#9A916C" r="2.052" id="connector9pin" stroke-width="1.224"/>
   <circle  fill="none" cx="18" cy="77.4144" connectorname="2" stroke="#9A916C" r="2.052" id="connector10pin" stroke-width="1.224"/>
   <circle  fill="none" cx="18" cy="84.6144" connectorname="E+" stroke="#9A916C" r="2.052" id="connector11pin" stroke-width="1.224"/>
   <circle  fill="none" cx="54" cy="106.214" connectorname="E+" stroke="#9A916C" r="2.052" id="connector12pin" stroke-width="1.224"/>
   <circle  fill="none" cx="46.8" cy="106.214" connectorname="E-" stroke="#9A916C" r="2.052" id="connector13pin" stroke-width="1.224"/>
   <circle  fill="none" cx="39.6" cy="106.214" connectorname="A-" stroke="#9A916C" r="2.052" id="connector14pin" stroke-width="1.224"/>
   <circle  fill="none" cx="32.4" cy="106.214" connectorname="A+" stroke="#9A916C" r="2.052" id="connector15pin" stroke-width="1.224"/>
   <circle  fill="none" cx="25.2" cy="106.214" connectorname="5" stroke="#9A916C" r="2.052" id="connector16pin" stroke-width="1.224"/>
   <circle  fill="none" cx="75.6" cy="41.4142" connectorname="GND" stroke="#9A916C" r="2.052" id="connector25pin" stroke-width="1.224"/>
   <circle  fill="none" cx="75.6" cy="48.6142" connectorname="TEMP_DAT" stroke="#9A916C" r="2.052" id="connector26pin" stroke-width="1.224"/>
   <circle  fill="none" cx="75.6" cy="55.8142" connectorname="5V" stroke="#9A916C" r="2.052" id="connector27pin" stroke-width="1.224"/>
  </g>
 </g>
</svg>
