<?xml version='1.0' encoding='UTF-8' standalone='no'?>
<!-- Created with Fritzing (http://www.fritzing.org/) -->
<svg xmlns="http://www.w3.org/2000/svg"  width="0.9in" x="0in" version="1.2" y="0in" height="2.40073in" viewBox="0 0 64.8 172.853" baseProfile="tiny">
 <desc >Fritzing breadboard generated by brd2svg</desc>
 <g  id="breadboard">
  <g  id="icon">
   <path  fill="#C62717" stroke="none" stroke-width="0" d="M7.2,0.0527244A7.2,7.2,0,0,0,0,7.2527L0,151.253L7.2,172.853L14.4,172.853L21.6,151.253L21.6,46.8527A3.6,3.6,0,0,1,25.2,43.2527L39.6,43.2527A3.6,3.6,0,0,1,43.2,46.8527L43.2,151.253L50.4,172.853L57.6,172.853L64.8,151.253L64.8,7.2527A7.2,7.2,0,0,0,57.6,0.0527244L7.2,0.0527244M2.52,7.2527a4.68,4.68,0,1,1,9.36,0,4.68,4.68,0,1,1,-9.36,0zM52.92,7.2527a4.68,4.68,0,1,1,9.36,0,4.68,4.68,0,1,1,-9.36,0zM23.76,18.0527a1.44,1.44,0,1,1,2.88,0,1.44,1.44,0,1,1,-2.88,0zM30.96,18.0527a1.44,1.44,0,1,1,2.88,0,1.44,1.44,0,1,1,-2.88,0zM38.16,18.0527a1.44,1.44,0,1,1,2.88,0,1.44,1.44,0,1,1,-2.88,0zM41.0672,10.2047a1.70078,1.70078,0,1,1,3.40158,0,1.70078,1.70078,0,1,1,-3.40158,0zM30.642,10.2047a1.70078,1.70078,0,1,1,3.40158,0,1.70078,1.70078,0,1,1,-3.40158,0zM20.2167,10.2047a1.70078,1.70078,0,1,1,3.40158,0,1.70078,1.70078,0,1,1,-3.40158,0z"/>
   <g >
    <title >layer 21</title>
    <g >
     <title >text:GND</title>
     <text  x="35.64" y="5.89337" font-family="OCRA" fill="#ffffff" text-anchor="end" stroke="none" stroke-width="0" font-size="2.67264">GND</text>
    </g>
    <g >
     <title >text:SIG</title>
     <text  x="45.216" y="5.96537" font-family="OCRA" fill="#ffffff" text-anchor="end" stroke="none" stroke-width="0" font-size="2.67264">SIG</text>
    </g>
    <g >
     <title >text:VCC</title>
     <text  x="25.632" y="5.89337" font-family="OCRA" fill="#ffffff" text-anchor="end" stroke="none" stroke-width="0" font-size="2.67264">VCC</text>
    </g>
    <g >
     <title >text:Soil Moisture Sensor</title>
     <text  x="2.88" y="41.4527" font-family="OCRA" fill="#ffffff" text-anchor="start" stroke="none" stroke-width="0" font-size="4.176">Soil Moisture Sensor</text>
    </g>
    <g >
     <title >element:FID1</title>
     <g >
      <title >package:FIDUCIAL-1X2</title>
     </g>
    </g>
    <g >
     <title >element:FID2</title>
     <g >
      <title >package:FIDUCIAL-1X2</title>
     </g>
    </g>
    <g >
     <title >element:JP1</title>
     <g >
      <title >package:MOLEX-1X3</title>
      <line  stroke="white" stroke-linecap="round" y1="9.4127" x1="21.6" y2="25.2527" stroke-width="0.36" x2="21.6"/>
      <line  stroke="white" stroke-linecap="round" y1="9.4127" x1="43.2" y2="25.2527" stroke-width="0.36" x2="43.2"/>
      <line  stroke="white" stroke-linecap="round" y1="9.4127" x1="43.2" y2="9.4127" stroke-width="0.36" x2="21.6"/>
      <line  stroke="white" stroke-linecap="round" y1="25.2527" x1="43.2" y2="25.2527" stroke-width="0.36" x2="39.6"/>
      <line  stroke="white" stroke-linecap="round" y1="25.2527" x1="39.6" y2="25.2527" stroke-width="0.36" x2="25.2"/>
      <line  stroke="white" stroke-linecap="round" y1="25.2527" x1="25.2" y2="25.2527" stroke-width="0.36" x2="21.6"/>
      <line  stroke="white" stroke-linecap="round" y1="25.2527" x1="25.2" y2="21.6527" stroke-width="0.36" x2="25.2"/>
      <line  stroke="white" stroke-linecap="round" y1="21.6527" x1="25.2" y2="21.6527" stroke-width="0.36" x2="39.6"/>
      <line  stroke="white" stroke-linecap="round" y1="21.6527" x1="39.6" y2="25.2527" stroke-width="0.36" x2="39.6"/>
     </g>
    </g>
    <g >
     <title >element:JP2</title>
     <g >
      <title >package:SCREWTERMINAL-3.5MM-3_LOCK.007S</title>
      <line  stroke="white" stroke-linecap="round" y1="19.8426" x1="48.7837" y2="19.8426" stroke-width="0.576" x2="15.9018"/>
      <line  stroke="white" stroke-linecap="round" y1="19.8426" x1="15.9018" y2="2.26772" stroke-width="0.576" x2="15.9018"/>
      <line  stroke="white" stroke-linecap="round" y1="2.26772" x1="15.9018" y2="0" stroke-width="0.576" x2="15.9018"/>
      <line  stroke="white" stroke-linecap="round" y1="0" x1="15.9018" y2="0" stroke-width="0.576" x2="48.7837"/>
      <line  stroke="white" stroke-linecap="round" y1="0" x1="48.7837" y2="2.26772" stroke-width="0.576" x2="48.7837"/>
      <line  stroke="white" stroke-linecap="round" y1="2.26772" x1="48.7837" y2="19.8426" stroke-width="0.576" x2="48.7837"/>
      <line  stroke="white" stroke-linecap="round" y1="2.26772" x1="15.9018" y2="2.26772" stroke-width="0.576" x2="48.7837"/>
     </g>
    </g>
    <g >
     <title >element:LOGO1</title>
     <g >
      <title >package:SFE_LOGO_NAME_FLAME_.1</title>
     </g>
    </g>
    <g >
     <title >element:LOGO2</title>
     <g >
      <title >package:OSHW-LOGO-S</title>
     </g>
    </g>
    <g >
     <title >element:Q1</title>
     <g >
      <title >package:SOT23-3</title>
      <line  stroke="white" stroke-linecap="round" y1="30.4685" x1="30.1323" y2="30.4685" stroke-width="0.576" x2="28.4315"/>
      <line  stroke="white" stroke-linecap="round" y1="30.4685" x1="28.4315" y2="32.7362" stroke-width="0.576" x2="28.4315"/>
      <line  stroke="white" stroke-linecap="round" y1="30.4685" x1="34.6677" y2="30.4685" stroke-width="0.576" x2="36.3685"/>
      <line  stroke="white" stroke-linecap="round" y1="30.4685" x1="36.3685" y2="32.7362" stroke-width="0.576" x2="36.3685"/>
     </g>
    </g>
    <g >
     <title >element:R1</title>
     <g >
      <title >package:0603-RES</title>
      <rect  width="1.296" x="38.952" y="33.5327" fill="white" height="2.16" stroke="none" stroke-width="0"/>
     </g>
    </g>
    <g >
     <title >element:R2</title>
     <g >
      <title >package:0603-RES</title>
      <rect  width="1.296" x="24.552" y="33.5327" fill="white" height="2.16" stroke="none" stroke-width="0"/>
     </g>
    </g>
    <g >
     <title >element:STANDOFF1</title>
     <g >
      <title >package:STAND-OFF</title>
     </g>
    </g>
    <g >
     <title >element:STANDOFF2</title>
     <g >
      <title >package:STAND-OFF</title>
     </g>
    </g>
    <g >
     <title >element:U$4</title>
     <g >
      <title >package:SFE_LOGO_FLAME_.2</title>
      <g >
       <title >polygon</title>
       <path  fill="none" stroke="white" stroke-linecap="round" stroke-width="0.0144035" d="M59.2441,19.5834L59.2441,19.7252M59.2441,19.7252L59.2724,19.8669M59.2724,19.8669L59.2441,20.037M59.2441,20.037L59.2158,20.2071M59.2158,20.2071L59.1307,20.3488M59.1307,20.3488L58.989,20.4906M58.989,20.4906L58.7905,20.5756M58.7905,20.5756L58.5922,20.5756M58.5922,20.5756L58.3937,20.5188M58.3937,20.5188L58.1953,20.4622M58.1953,20.4622L57.9685,20.3488M57.9685,20.3488L57.7701,20.2071M57.7701,20.2071L57.5716,20.0653M57.5716,20.0653L57.3732,19.8953M57.3732,19.8953L57.2315,19.7535M57.2315,19.7535L57.0897,19.5268M57.0897,19.5268L56.9764,19.3567M56.9764,19.3567L56.9197,19.1583M56.9197,19.1583L56.8913,18.9881M56.8913,18.9881L56.9197,18.8181M56.9197,18.8181L56.9764,18.6764M56.9764,18.6764L57.0614,18.5062M57.0614,18.5062L57.1748,18.3645M57.1748,18.3645L57.4016,18.1661M57.4016,18.1661L57.6284,18.0527M57.6284,18.0527L57.8551,17.996M57.8551,17.996L58.1103,17.9677M58.1103,17.9677L58.4788,17.9677M58.4788,17.9677L58.5922,17.996M58.5922,17.996L58.6205,17.996M58.6205,17.996L58.5354,17.9393M58.5354,17.9393L58.337,17.7976M58.337,17.7976L57.9969,17.5992M57.9969,17.5992L57.5716,17.4291M57.5716,17.4291L57.0614,17.2873M57.0614,17.2873L56.4945,17.259M56.4945,17.259L55.8708,17.4007M55.8708,17.4007L55.2189,17.7409M55.2189,17.7409L54.737,18.1377M54.737,18.1377L54.4252,18.5913M54.4252,18.5913L54.2551,19.0732M54.2551,19.0732L54.2551,19.5551M54.2551,19.5551L54.3969,20.037M54.3969,20.037L54.652,20.5472M54.652,20.5472L55.0205,21.0291M55.0205,21.0291L55.5024,21.511M55.5024,21.511L55.8708,21.9362M55.8708,21.9362L56.0693,22.3614M56.0693,22.3614L56.0693,22.7583M56.0693,22.7583L55.9559,23.1268M55.9559,23.1268L55.7008,23.4102M55.7008,23.4102L55.3607,23.637M55.3607,23.637L54.9638,23.7504M54.9638,23.7504L54.5103,23.7504M54.5103,23.7504L54.1984,23.6653M54.1984,23.6653L53.9433,23.5803M53.9433,23.5803L53.7449,23.4102M53.7449,23.4102L53.5748,23.2402M53.5748,23.2402L53.4897,23.07M53.4897,23.07L53.4331,22.8716M53.4331,22.8716L53.4331,22.6732M53.4331,22.6732L53.4897,22.5031M53.4897,22.5031L53.5748,22.3898M53.5748,22.3898L53.6882,22.2764M53.6882,22.2764L53.8299,22.163M53.8299,22.163L53.9433,22.0779M53.9433,22.0779L54.085,22.0212M54.085,22.0212L54.1984,21.9645M54.1984,21.9645L54.2551,21.9362M54.2551,21.9362L54.2835,21.9079M54.2835,21.9079L54.2551,21.9079M54.2551,21.9079L54.1701,21.8795M54.1701,21.8795L54.0284,21.8228M54.0284,21.8228L53.8299,21.7945M53.8299,21.7945L53.3197,21.7945M53.3197,21.7945L53.0362,21.8511M53.0362,21.8511L52.7244,21.9362M52.7244,21.9362L52.4409,22.0496M52.4409,22.0496L52.1858,22.2196M52.1858,22.2196L51.9591,22.4464M51.9591,22.4464L51.7607,22.7015M51.7607,22.7015L51.5905,23.0134M51.5905,23.0134L51.4772,23.4102M51.4772,23.4102L51.4205,23.8638M51.4205,23.8638L51.3922,24.4023M51.3922,24.4023L51.3922,31.6873M51.3922,31.6873L51.4205,31.6307M51.4205,31.6307L51.5339,31.5173M51.5339,31.5173L51.7039,31.3188M51.7039,31.3188L51.9024,31.0638M51.9024,31.0638L52.1574,30.7803M52.1574,30.7803L52.4409,30.4402M52.4409,30.4402L52.7527,30.1M52.7527,30.1L53.0929,29.7315M53.0929,29.7315L53.4614,29.3346M53.4614,29.3346L53.7732,28.9661M53.7732,28.9661L54.085,28.6543M54.085,28.6543L54.3685,28.3992M54.3685,28.3992L54.652,28.2007M54.652,28.2007L54.9638,28.059M54.9638,28.059L55.2756,27.974M55.2756,27.974L56.3811,27.974M56.3811,27.974L57.0614,27.8889M57.0614,27.8889L57.685,27.7188M57.685,27.7188L58.252,27.4638M58.252,27.4638L58.7905,27.1236M58.7905,27.1236L59.2724,26.7551M59.2724,26.7551L59.6976,26.3015M59.6976,26.3015L60.0945,25.7913M60.0945,25.7913L60.6331,24.7425M60.6331,24.7425L60.9165,23.722M60.9165,23.722L60.9732,22.7299M60.9732,22.7299L60.8315,21.7945M60.8315,21.7945L60.548,21.0007M60.548,21.0007L60.1795,20.3204M60.1795,20.3204L59.6976,19.8385M59.6976,19.8385L59.2441,19.5551M59.2441,19.5551L59.2441,19.5834M51.3922,31.675L51.3984,31.675M51.3922,31.6606L51.4056,31.6606M51.3922,31.6462L51.4128,31.6462M51.3922,31.6317L51.42,31.6317M51.3922,31.6173L51.4338,31.6173M51.3922,31.6029L51.4482,31.6029M51.3922,31.5885L51.4626,31.5885M51.3922,31.5741L51.477,31.5741M51.3922,31.5597L51.4914,31.5597M51.3922,31.5453L51.5058,31.5453M51.3922,31.5309L51.5202,31.5309M51.3922,31.5165L51.5346,31.5165M51.3922,31.5021L51.5469,31.5021M51.3922,31.4877L51.5592,31.4877M51.3922,31.4733L51.5716,31.4733M51.3922,31.4589L51.5839,31.4589M51.3922,31.4445L51.5963,31.4445M51.3922,31.4301L51.6086,31.4301M51.3922,31.4157L51.621,31.4157M51.3922,31.4013L51.6333,31.4013M51.3922,31.3869L51.6457,31.3869M51.3922,31.3725L51.658,31.3725M51.3922,31.3581L51.6704,31.3581M51.3922,31.3436L51.6827,31.3436M51.3922,31.3292L51.6951,31.3292M51.3922,31.3148L51.7071,31.3148M51.3922,31.3004L51.7182,31.3004M51.3922,31.286L51.7295,31.286M51.3922,31.2716L51.7406,31.2716M51.3922,31.2572L51.7519,31.2572M51.3922,31.2428L51.7631,31.2428M51.3922,31.2284L51.7743,31.2284M51.3922,31.214L51.7855,31.214M51.3922,31.1996L51.7967,31.1996M51.3922,31.1852L51.8079,31.1852M51.3922,31.1708L51.8191,31.1708M51.3922,31.1564L51.8303,31.1564M51.3922,31.142L51.8415,31.142M51.3922,31.1276L51.8527,31.1276M51.3922,31.1132L51.8639,31.1132M51.3922,31.0988L51.8751,31.0988M51.3922,31.0844L51.8863,31.0844M51.3922,31.07L51.8975,31.07M51.3922,31.0556L51.9097,31.0556M51.3922,31.0411L51.9227,31.0411M51.3922,31.0267L51.9356,31.0267M51.3922,31.0123L51.9486,31.0123M51.3922,30.9979L51.9615,30.9979M51.3922,30.9835L51.9745,30.9835M51.3922,30.9691L51.9875,30.9691M51.3922,30.9547L52.0004,30.9547M51.3922,30.9403L52.0134,30.9403M51.3922,30.9259L52.0264,30.9259M51.3922,30.9115L52.0394,30.9115M51.3922,30.8971L52.0523,30.8971M51.3922,30.8827L52.0653,30.8827M51.3922,30.8683L52.0782,30.8683M51.3922,30.8539L52.0912,30.8539M51.3922,30.8395L52.1042,30.8395M51.3922,30.8251L52.1171,30.8251M51.3922,30.8107L52.1301,30.8107M51.3922,30.7963L52.143,30.7963M51.3922,30.7819L52.156,30.7819M51.3922,30.7675L52.1681,30.7675M51.3922,30.7531L52.1801,30.7531M51.3922,30.7387L52.1922,30.7387M51.3922,30.7243L52.2041,30.7243M51.3922,30.7099L52.2161,30.7099M51.3922,30.6955L52.2282,30.6955M51.3922,30.6811L52.2401,30.6811M51.3922,30.6667L52.2521,30.6667M51.3922,30.6523L52.2642,30.6523M51.3922,30.6379L52.2762,30.6379M51.3922,30.6235L52.2881,30.6235M51.3922,30.6091L52.3002,30.6091M51.3922,30.5947L52.3122,30.5947M51.3922,30.5803L52.3241,30.5803M51.3922,30.5659L52.3362,30.5659M51.3922,30.5515L52.3482,30.5515M51.3922,30.5371L52.3602,30.5371M51.3922,30.5227L52.3722,30.5227M51.3922,30.5083L52.3842,30.5083M51.3922,30.4939L52.3962,30.4939M51.3922,30.4795L52.4082,30.4795M51.3922,30.465L52.4202,30.465M51.3922,30.4506L52.4322,30.4506M51.3922,30.4362L52.4445,30.4362M51.3922,30.4218L52.4577,30.4218M51.3922,30.4074L52.4709,30.4074M51.3922,30.393L52.4841,30.393M51.3922,30.3786L52.4974,30.3786M51.3922,30.3642L52.5105,30.3642M51.3922,30.3498L52.5237,30.3498M51.3922,30.3354L52.537,30.3354M51.3922,30.321L52.5501,30.321M51.3922,30.3066L52.5633,30.3066M51.3922,30.2922L52.5766,30.2922M51.3922,30.2778L52.5897,30.2778M51.3922,30.2634L52.603,30.2634M51.3922,30.249L52.6162,30.249M51.3922,30.2346L52.6293,30.2346M51.3922,30.2202L52.6426,30.2202M51.3922,30.2058L52.6558,30.2058M51.3922,30.1914L52.6689,30.1914M51.3922,30.177L52.6822,30.177M51.3922,30.1625L52.6954,30.1625M51.3922,30.1481L52.7086,30.1481M51.3922,30.1337L52.7218,30.1337M51.3922,30.1193L52.735,30.1193M51.3922,30.1049L52.7482,30.1049M51.3922,30.0905L52.7615,30.0905M51.3922,30.0761L52.7748,30.0761M51.3922,30.0617L52.788,30.0617M51.3922,30.0473L52.8013,30.0473M51.3922,30.0329L52.8147,30.0329M51.3922,30.0185L52.8279,30.0185M51.3922,30.0041L52.8412,30.0041M51.3922,29.9897L52.8546,29.9897M51.3922,29.9753L52.8678,29.9753M51.3922,29.9609L52.8811,29.9609M51.3922,29.9465L52.8944,29.9465M51.3922,29.9321L52.9077,29.9321M51.3922,29.9177L52.921,29.9177M51.3922,29.9033L52.9343,29.9033M51.3922,29.8889L52.9476,29.8889M51.3922,29.8745L52.9609,29.8745M51.3922,29.8601L52.9741,29.8601M51.3922,29.8457L52.9875,29.8457M51.3922,29.8313L53.0008,29.8313M51.3922,29.8169L53.014,29.8169M51.3922,29.8025L53.0274,29.8025M51.3922,29.7881L53.0407,29.7881M51.3922,29.7737L53.0539,29.7737M51.3922,29.7593L53.0672,29.7593M51.3922,29.7449L53.0806,29.7449M51.3922,29.7305L53.0938,29.7305M51.3922,29.7161L53.1072,29.7161M51.3922,29.7017L53.1206,29.7017M51.3922,29.6873L53.134,29.6873M51.3922,29.6729L53.1474,29.6729M51.3922,29.6585L53.1607,29.6585M51.3922,29.6441L53.1741,29.6441M51.3922,29.6297L53.1875,29.6297M51.3922,29.6153L53.2009,29.6153M51.3922,29.6009L53.2142,29.6009M51.3922,29.5864L53.2276,29.5864M51.3922,29.572L53.241,29.572M51.3922,29.5576L53.2544,29.5576M51.3922,29.5432L53.2677,29.5432M51.3922,29.5288L53.2811,29.5288M51.3922,29.5144L53.2945,29.5144M51.3922,29.5L53.3079,29.5M51.3922,29.4856L53.3212,29.4856M51.3922,29.4712L53.3346,29.4712M51.3922,29.4568L53.348,29.4568M51.3922,29.4424L53.3614,29.4424M51.3922,29.428L53.3747,29.428M51.3922,29.4136L53.3881,29.4136M51.3922,29.3992L53.4015,29.3992M51.3922,29.3848L53.4149,29.3848M51.3922,29.3704L53.4282,29.3704M51.3922,29.356L53.4416,29.356M51.3922,29.3416L53.455,29.3416M51.3922,29.3272L53.4677,29.3272M51.3922,29.3128L53.4799,29.3128M51.3922,29.2984L53.4921,29.2984M51.3922,29.2839L53.5043,29.2839M51.3922,29.2695L53.5164,29.2695M51.3922,29.2551L53.5287,29.2551M51.3922,29.2407L53.5409,29.2407M51.3922,29.2263L53.553,29.2263M51.3922,29.2119L53.5652,29.2119M51.3922,29.1975L53.5774,29.1975M51.3922,29.1831L53.5896,29.1831M51.3922,29.1687L53.6018,29.1687M51.3922,29.1543L53.614,29.1543M51.3922,29.1399L53.6262,29.1399M51.3922,29.1255L53.6383,29.1255M51.3922,29.1111L53.6505,29.1111M51.3922,29.0967L53.6628,29.0967M51.3922,29.0823L53.6749,29.0823M51.3922,29.0679L53.6871,29.0679M51.3922,29.0535L53.6993,29.0535M51.3922,29.0391L53.7115,29.0391M51.3922,29.0247L53.7237,29.0247M51.3922,29.0103L53.7358,29.0103M51.3922,28.9958L53.748,28.9958M51.3922,28.9814L53.7602,28.9814M51.3922,28.967L53.7724,28.967M51.3922,28.9526L53.7867,28.9526M51.3922,28.9382L53.8011,28.9382M51.3922,28.9238L53.8155,28.9238M51.3922,28.9094L53.8299,28.9094M51.3922,28.895L53.8443,28.895M51.3922,28.8806L53.8587,28.8806M51.3922,28.8662L53.8731,28.8662M51.3922,28.8518L53.8875,28.8518M51.3922,28.8374L53.9019,28.8374M51.3922,28.823L53.9163,28.823M51.3922,28.8086L53.9307,28.8086M51.3922,28.7942L53.9451,28.7942M51.3922,28.7798L53.9595,28.7798M51.3922,28.7654L53.9739,28.7654M51.3922,28.751L53.9883,28.751M51.3922,28.7366L54.0027,28.7366M51.3922,28.7222L54.0171,28.7222M51.3922,28.7078L54.0315,28.7078M51.3922,28.6934L54.0459,28.6934M51.3922,28.679L54.0603,28.679M51.3922,28.6646L54.0747,28.6646M51.3922,28.6502L54.0896,28.6502M51.3922,28.6358L54.1056,28.6358M51.3922,28.6214L54.1216,28.6214M51.3922,28.607L54.1376,28.607M51.3922,28.5926L54.1536,28.5926M51.3922,28.5782L54.1696,28.5782M51.3922,28.5638L54.1856,28.5638M51.3922,28.5494L54.2016,28.5494M51.3922,28.535L54.2177,28.535M51.3922,28.5206L54.2336,28.5206M51.3922,28.5062L54.2496,28.5062M51.3922,28.4918L54.2656,28.4918M51.3922,28.4774L54.2817,28.4774M51.3922,28.463L54.2976,28.463M51.3922,28.4486L54.3136,28.4486M51.3922,28.4342L54.3297,28.4342M51.3922,28.4198L54.3457,28.4198M51.3922,28.4053L54.3617,28.4053M51.3922,28.3909L54.3803,28.3909M51.3922,28.3765L54.4009,28.3765M51.3922,28.3621L54.4214,28.3621M51.3922,28.3477L54.442,28.3477M51.3922,28.3333L54.4626,28.3333M51.3922,28.3189L54.4832,28.3189M51.3922,28.3045L54.5038,28.3045M51.3922,28.2901L54.5243,28.2901M51.3922,28.2757L54.5449,28.2757M51.3922,28.2613L54.5655,28.2613M51.3922,28.2469L54.5861,28.2469M51.3922,28.2325L54.6066,28.2325M51.3922,28.2181L54.6272,28.2181M51.3922,28.2037L54.6478,28.2037M51.3922,28.1893L54.6772,28.1893M51.3922,28.1749L54.7089,28.1749M51.3922,28.1605L54.7406,28.1605M51.3922,28.1461L54.7723,28.1461M51.3922,28.1317L54.804,28.1317M51.3922,28.1172L54.8356,28.1172M51.3922,28.1028L54.8674,28.1028M51.3922,28.0884L54.8991,28.0884M51.3922,28.074L54.9307,28.074M51.3922,28.0596L54.9624,28.0596M51.3922,28.0452L55.0143,28.0452M51.3922,28.0308L55.0671,28.0308M51.3922,28.0164L55.12,28.0164M51.3922,28.002L55.1727,28.002M51.3922,27.9876L55.2256,27.9876M51.3922,27.9732L56.3872,27.9732M51.3922,27.9588L56.5024,27.9588M51.3922,27.9444L56.6176,27.9444M51.3922,27.93L56.7329,27.93M51.3922,27.9156L56.8481,27.9156M51.3922,27.9012L56.9633,27.9012M51.3922,27.8868L57.0693,27.8868M51.3922,27.8724L57.1221,27.8724M51.3922,27.858L57.1749,27.858M51.3922,27.8436L57.2277,27.8436M51.3922,27.8292L57.2805,27.8292M51.3922,27.8148L57.3333,27.8148M51.3922,27.8004L57.3862,27.8004M51.3922,27.786L57.4389,27.786M51.3922,27.7716L57.4918,27.7716M51.3922,27.7572L57.5446,27.7572M51.3922,27.7428L57.5974,27.7428M51.3922,27.7284L57.6502,27.7284M51.3922,27.714L57.696,27.714M51.3922,27.6996L57.7279,27.6996M51.3922,27.6852L57.76,27.6852M51.3922,27.6708L57.792,27.6708M51.3922,27.6564L57.824,27.6564M51.3922,27.642L57.856,27.642M51.3922,27.6276L57.888,27.6276M51.3922,27.6132L57.92,27.6132M51.3922,27.5988L57.952,27.5988M51.3922,27.5844L57.984,27.5844M51.3922,27.57L58.016,27.57M51.3922,27.5556L58.0481,27.5556M51.3922,27.5412L58.08,27.5412M51.3922,27.5267L58.1121,27.5267M51.3922,27.5123L58.144,27.5123M51.3922,27.4979L58.1761,27.4979M51.3922,27.4835L58.208,27.4835M51.3922,27.4691L58.2401,27.4691M51.3922,27.4547L58.2663,27.4547M51.3922,27.4403L58.2891,27.4403M51.3922,27.4259L58.3119,27.4259M51.3922,27.4115L58.3347,27.4115M51.3922,27.3971L58.3575,27.3971M51.3922,27.3827L58.3803,27.3827M51.3922,27.3683L58.4032,27.3683M51.3922,27.3539L58.4259,27.3539M51.3922,27.3395L58.4487,27.3395M51.3922,27.3251L58.4716,27.3251M51.3922,27.3107L58.4944,27.3107M51.3922,27.2963L58.5171,27.2963M51.3922,27.2819L58.54,27.2819M51.3922,27.2675L58.5628,27.2675M51.3922,27.2531L58.5856,27.2531M51.3922,27.2386L58.6084,27.2386M51.3922,27.2242L58.6312,27.2242M51.3922,27.2098L58.654,27.2098M51.3922,27.1954L58.6768,27.1954M51.3922,27.181L58.6996,27.181M51.3922,27.1666L58.7224,27.1666M51.3922,27.1522L58.7452,27.1522M51.3922,27.1378L58.7681,27.1378M51.3922,27.1234L58.7908,27.1234M51.3922,27.109L58.8096,27.109M51.3922,27.0946L58.8285,27.0946M51.3922,27.0802L58.8473,27.0802M51.3922,27.0658L58.8661,27.0658M51.3922,27.0514L58.885,27.0514M51.3922,27.037L58.9038,27.037M51.3922,27.0226L58.9226,27.0226M51.3922,27.0082L58.9414,27.0082M51.3922,26.9938L58.9603,26.9938M51.3922,26.9794L58.9792,26.9794M51.3922,26.965L58.998,26.965M51.3922,26.9505L59.0168,26.9505M51.3922,26.9361L59.0356,26.9361M51.3922,26.9217L59.0545,26.9217M51.3922,26.9073L59.0733,26.9073M51.3922,26.8929L59.0921,26.8929M51.3922,26.8785L59.111,26.8785M51.3922,26.8641L59.1298,26.8641M51.3922,26.8497L59.1486,26.8497M51.3922,26.8353L59.1675,26.8353M51.3922,26.8209L59.1863,26.8209M51.3922,26.8065L59.2052,26.8065M51.3922,26.7921L59.224,26.7921M51.3922,26.7777L59.2428,26.7777M51.3922,26.7633L59.2617,26.7633M51.3922,26.7489L59.2782,26.7489M51.3922,26.7345L59.2917,26.7345M51.3922,26.7201L59.3052,26.7201M51.3922,26.7057L59.3187,26.7057M51.3922,26.6913L59.3322,26.6913M51.3922,26.6769L59.3457,26.6769M51.3922,26.6625L59.3592,26.6625M51.3922,26.6481L59.3727,26.6481M51.3922,26.6337L59.3862,26.6337M51.3922,26.6193L59.3997,26.6193M51.3922,26.6049L59.4132,26.6049M51.3922,26.5905L59.4268,26.5905M51.3922,26.5761L59.4402,26.5761M51.3922,26.5617L59.4538,26.5617M51.3922,26.5473L59.4672,26.5473M51.3922,26.5329L59.4808,26.5329M51.3922,26.5185L59.4942,26.5185M51.3922,26.5041L59.5078,26.5041M51.3922,26.4897L59.5212,26.4897M51.3922,26.4753L59.5348,26.4753M51.3922,26.4609L59.5483,26.4609M51.3922,26.4465L59.5618,26.4465M51.3922,26.4321L59.5753,26.4321M51.3922,26.4177L59.5888,26.4177M51.3922,26.4033L59.6023,26.4033M51.3922,26.3889L59.6158,26.3889M51.3922,26.3745L59.6293,26.3745M51.3922,26.36L59.6428,26.36M51.3922,26.3456L59.6563,26.3456M51.3922,26.3312L59.6698,26.3312M51.3922,26.3168L59.6833,26.3168M51.3922,26.3024L59.6969,26.3024M51.3922,26.288L59.7082,26.288M51.3922,26.2736L59.7194,26.2736M51.3922,26.2592L59.7306,26.2592M51.3922,26.2448L59.7418,26.2448M51.3922,26.2304L59.7529,26.2304M51.3922,26.216L59.7642,26.216M51.3922,26.2016L59.7754,26.2016M51.3922,26.1872L59.7866,26.1872M51.3922,26.1728L59.7978,26.1728M51.3922,26.1584L59.809,26.1584M51.3922,26.144L59.8202,26.144M51.3922,26.1296L59.8314,26.1296M51.3922,26.1152L59.8426,26.1152M51.3922,26.1008L59.8538,26.1008M51.3922,26.0864L59.865,26.0864M51.3922,26.0719L59.8762,26.0719M51.3922,26.0575L59.8874,26.0575M51.3922,26.0431L59.8986,26.0431M51.3922,26.0287L59.9098,26.0287M51.3922,26.0143L59.921,26.0143M51.3922,25.9999L59.9322,25.9999M51.3922,25.9855L59.9434,25.9855M51.3922,25.9711L59.9546,25.9711M51.3922,25.9567L59.9658,25.9567M51.3922,25.9423L59.977,25.9423M51.3922,25.9279L59.9882,25.9279M51.3922,25.9135L59.9994,25.9135M51.3922,25.8991L60.0106,25.8991M51.3922,25.8847L60.0219,25.8847M51.3922,25.8703L60.033,25.8703M51.3922,25.8559L60.0443,25.8559M51.3922,25.8415L60.0554,25.8415M51.3922,25.8271L60.0666,25.8271M51.3922,25.8127L60.0779,25.8127M51.3922,25.7983L60.089,25.7983M51.3922,25.7838L60.0983,25.7838M51.3922,25.7694L60.1057,25.7694M51.3922,25.755L60.1131,25.755M51.3922,25.7406L60.1205,25.7406M51.3922,25.7262L60.1278,25.7262M51.3922,25.7118L60.1353,25.7118M51.3922,25.6974L60.1427,25.6974M51.3922,25.683L60.1501,25.683M51.3922,25.6686L60.1574,25.6686M51.3922,25.6542L60.1649,25.6542M51.3922,25.6398L60.1723,25.6398M51.3922,25.6254L60.1797,25.6254M51.3922,25.611L60.187,25.611M51.3922,25.5966L60.1944,25.5966M51.3922,25.5822L60.2019,25.5822M51.3922,25.5678L60.2092,25.5678M51.3922,25.5534L60.2166,25.5534M51.3922,25.539L60.224,25.539M51.3922,25.5246L60.2315,25.5246M51.3922,25.5102L60.2388,25.5102M51.3922,25.4958L60.2462,25.4958M51.3922,25.4814L60.2536,25.4814M51.3922,25.467L60.261,25.467M51.3922,25.4526L60.2684,25.4526M51.3922,25.4382L60.2758,25.4382M51.3922,25.4238L60.2832,25.4238M51.3922,25.4094L60.2906,25.4094M51.3922,25.395L60.298,25.395M51.3922,25.3806L60.3054,25.3806M51.3922,25.3662L60.3128,25.3662M51.3922,25.3518L60.3202,25.3518M51.3922,25.3374L60.3276,25.3374M51.3922,25.323L60.335,25.323M51.3922,25.3086L60.3424,25.3086M51.3922,25.2942L60.3498,25.2942M51.3922,25.2798L60.3572,25.2798M51.3922,25.2654L60.3646,25.2654M51.3922,25.251L60.372,25.251M51.3922,25.2366L60.3793,25.2366M51.3922,25.2222L60.3868,25.2222M51.3922,25.2078L60.3942,25.2078M51.3922,25.1933L60.4015,25.1933M51.3922,25.1789L60.4089,25.1789M51.3922,25.1645L60.4164,25.1645M51.3922,25.1501L60.4238,25.1501M51.3922,25.1357L60.4311,25.1357M51.3922,25.1213L60.4385,25.1213M51.3922,25.1069L60.4459,25.1069M51.3922,25.0925L60.4534,25.0925M51.3922,25.0781L60.4607,25.0781M51.3922,25.0637L60.4681,25.0637M51.3922,25.0493L60.4755,25.0493M51.3922,25.0349L60.4829,25.0349M51.3922,25.0205L60.4903,25.0205M51.3922,25.0061L60.4977,25.0061M51.3922,24.9917L60.5051,24.9917M51.3922,24.9773L60.5125,24.9773M51.3922,24.9629L60.5199,24.9629M51.3922,24.9485L60.5273,24.9485M51.3922,24.9341L60.5346,24.9341M51.3922,24.9197L60.5421,24.9197M51.3922,24.9052L60.5495,24.9052M51.3922,24.8908L60.5569,24.8908M51.3922,24.8764L60.5642,24.8764M51.3922,24.862L60.5717,24.862M51.3922,24.8476L60.5791,24.8476M51.3922,24.8332L60.5865,24.8332M51.3922,24.8188L60.5938,24.8188M51.3922,24.8044L60.6012,24.8044M51.3922,24.79L60.6087,24.79M51.3922,24.7756L60.6161,24.7756M51.3922,24.7612L60.6234,24.7612M51.3922,24.7468L60.6308,24.7468M51.3922,24.7324L60.6359,24.7324M51.3922,24.718L60.6398,24.718M51.3922,24.7036L60.6439,24.7036M51.3922,24.6892L60.6478,24.6892M51.3922,24.6748L60.6519,24.6748M51.3922,24.6604L60.6559,24.6604M51.3922,24.646L60.6599,24.646M51.3922,24.6316L60.6639,24.6316M51.3922,24.6172L60.6678,24.6172M51.3922,24.6028L60.6719,24.6028M51.3922,24.5884L60.6758,24.5884M51.3922,24.574L60.6799,24.574M51.3922,24.5596L60.6839,24.5596M51.3922,24.5452L60.6879,24.5452M51.3922,24.5308L60.6919,24.5308M51.3922,24.5164L60.6959,24.5164M51.3922,24.502L60.6999,24.502M51.3922,24.4876L60.7038,24.4876M51.3922,24.4732L60.7079,24.4732M51.3922,24.4588L60.7119,24.4588M51.3922,24.4444L60.7159,24.4444M51.3922,24.43L60.7199,24.43M51.3922,24.4156L60.7239,24.4156M51.3922,24.4012L60.7279,24.4012M51.393,24.3868L60.7319,24.3868M51.3937,24.3724L60.7359,24.3724M51.3945,24.358L60.7398,24.358M51.3953,24.3436L60.7439,24.3436M51.396,24.3292L60.7479,24.3292M51.3968,24.3147L60.7519,24.3147M51.3975,24.3003L60.7559,24.3003M51.3983,24.2859L60.7599,24.2859M51.399,24.2715L60.7639,24.2715M51.3998,24.2571L60.7679,24.2571M51.4005,24.2427L60.7719,24.2427M51.4013,24.2283L60.7759,24.2283M51.402,24.2139L60.7799,24.2139M51.4028,24.1995L60.7839,24.1995M51.4035,24.1851L60.7879,24.1851M51.4043,24.1707L60.7919,24.1707M51.405,24.1563L60.7959,24.1563M51.4058,24.1419L60.7999,24.1419M51.4066,24.1275L60.8039,24.1275M51.4074,24.1131L60.8079,24.1131M51.4081,24.0987L60.8119,24.0987M51.4089,24.0843L60.8159,24.0843M51.4097,24.0699L60.8199,24.0699M51.4104,24.0555L60.8239,24.0555M51.4112,24.0411L60.8279,24.0411M51.4119,24.0266L60.8319,24.0266M51.4127,24.0122L60.8359,24.0122M51.4134,23.9978L60.8399,23.9978M51.4142,23.9834L60.8439,23.9834M51.4149,23.969L60.8479,23.969M51.4157,23.9546L60.8519,23.9546M51.4164,23.9402L60.8559,23.9402M51.4172,23.9258L60.8599,23.9258M51.4179,23.9114L60.8639,23.9114M51.4187,23.897L60.8679,23.897M51.4194,23.8826L60.8719,23.8826M51.4202,23.8682L60.8759,23.8682M51.4218,23.8538L60.88,23.8538M51.4236,23.8394L60.8839,23.8394M51.4254,23.825L60.888,23.825M51.4272,23.8106L60.8919,23.8106M51.429,23.7962L60.8959,23.7962M51.4308,23.7818L60.8999,23.7818M51.4326,23.7674L60.9039,23.7674M51.4344,23.753L60.9079,23.753M51.4362,23.7386L54.4671,23.7386M55.005,23.7386L60.9119,23.7386M51.438,23.7241L54.4142,23.7241M55.0554,23.7241L60.916,23.7241M51.4398,23.7097L54.3614,23.7097M55.1058,23.7097L60.9173,23.7097M51.4416,23.6953L54.3086,23.6953M55.1562,23.6953L60.918,23.6953M51.4434,23.6809L54.2558,23.6809M55.2066,23.6809L60.9188,23.6809M51.4452,23.6665L54.203,23.6665M55.257,23.6665L60.9197,23.6665M51.447,23.6521L54.1589,23.6521M55.3075,23.6521L60.9205,23.6521M51.4488,23.6377L54.1157,23.6377M55.3579,23.6377L60.9214,23.6377M51.4506,23.6233L54.0725,23.6233M55.381,23.6233L60.9222,23.6233M51.4524,23.6089L54.0293,23.6089M55.4027,23.6089L60.923,23.6089M51.4542,23.5945L53.9861,23.5945M55.4243,23.5945L60.9238,23.5945M51.456,23.5801L53.9431,23.5801M55.4459,23.5801L60.9247,23.5801M51.4578,23.5657L53.9263,23.5657M55.4675,23.5657L60.9255,23.5657M51.4596,23.5513L53.9096,23.5513M55.4891,23.5513L60.9263,23.5513M51.4614,23.5369L53.8927,23.5369M55.5107,23.5369L60.9271,23.5369M51.4632,23.5225L53.8759,23.5225M55.5323,23.5225L60.9279,23.5225M51.465,23.5081L53.8591,23.5081M55.5539,23.5081L60.9288,23.5081M51.4668,23.4937L53.8423,23.4937M55.5755,23.4937L60.9296,23.4937M51.4686,23.4793L53.8255,23.4793M55.5971,23.4793L60.9304,23.4793M51.4704,23.4649L53.8087,23.4649M55.6187,23.4649L60.9312,23.4649M51.4722,23.4505L53.7919,23.4505M55.6403,23.4505L60.932,23.4505M51.474,23.4361L53.7751,23.4361M55.6619,23.4361L60.9329,23.4361M51.4758,23.4217L53.7583,23.4217M55.6836,23.4217L60.9337,23.4217M51.478,23.4073L53.742,23.4073M55.7034,23.4073L60.9345,23.4073M51.4821,23.3929L53.7276,23.3929M55.7163,23.3929L60.9353,23.3929M51.4862,23.3785L53.7132,23.3785M55.7293,23.3785L60.9362,23.3785M51.4904,23.3641L53.6988,23.3641M55.7423,23.3641L60.937,23.3641M51.4945,23.3497L53.6844,23.3497M55.7553,23.3497L60.9378,23.3497M51.4986,23.3353L53.67,23.3353M55.7682,23.3353L60.9386,23.3353M51.5027,23.3209L53.6556,23.3209M55.7812,23.3209L60.9394,23.3209M51.5068,23.3065L53.6412,23.3065M55.7942,23.3065L60.9403,23.3065M51.511,23.2921L53.6268,23.2921M55.8071,23.2921L60.9411,23.2921M51.5151,23.2777L53.6124,23.2777M55.8201,23.2777L60.942,23.2777M51.5192,23.2633L53.598,23.2633M55.833,23.2633L60.9427,23.2633M51.5233,23.2489L53.5836,23.2489M55.846,23.2489L60.9435,23.2489M51.5274,23.2345L53.572,23.2345M55.859,23.2345L60.9444,23.2345M51.5315,23.2201L53.5648,23.2201M55.8719,23.2201L60.9452,23.2201M51.5356,23.2057L53.5576,23.2057M55.8849,23.2057L60.9461,23.2057M51.5398,23.1913L53.5504,23.1913M55.8978,23.1913L60.9468,23.1913M51.5439,23.1769L53.5432,23.1769M55.9108,23.1769L60.9477,23.1769M51.548,23.1625L53.536,23.1625M55.9238,23.1625L60.9485,23.1625M51.5521,23.148L53.5288,23.148M55.9367,23.148L60.9493,23.148M51.5562,23.1336L53.5216,23.1336M55.9497,23.1336L60.9502,23.1336M51.5603,23.1192L53.5144,23.1192M55.9582,23.1192L60.951,23.1192M51.5644,23.1048L53.5072,23.1048M55.9626,23.1048L60.9518,23.1048M51.5686,23.0904L53.5,23.0904M55.9671,23.0904L60.9526,23.0904M51.5727,23.076L53.4928,23.076M55.9715,23.076L60.9535,23.076M51.5768,23.0616L53.4874,23.0616M55.976,23.0616L60.9543,23.0616M51.5809,23.0472L53.4833,23.0472M55.9804,23.0472L60.9551,23.0472M51.585,23.0328L53.4792,23.0328M55.9848,23.0328L60.9559,23.0328M51.5892,23.0184L53.475,23.0184M55.9892,23.0184L60.9567,23.0184M51.5956,23.004L53.4709,23.004M55.9937,23.004L60.9576,23.004M51.6035,22.9896L53.4668,22.9896M55.9981,22.9896L60.9584,22.9896M51.6114,22.9752L53.4627,22.9752M56.0025,22.9752L60.9592,22.9752M51.6192,22.9608L53.4586,22.9608M56.007,22.9608L60.96,22.9608M51.6271,22.9464L53.4545,22.9464M56.0114,22.9464L60.9609,22.9464M51.6349,22.932L53.4504,22.932M56.0159,22.932L60.9617,22.932M51.6428,22.9176L53.4462,22.9176M56.0202,22.9176L60.9625,22.9176M51.6506,22.9032L53.4421,22.9032M56.0247,22.9032L60.9633,22.9032M51.6585,22.8888L53.438,22.8888M56.0291,22.8888L60.9641,22.8888M51.6663,22.8744L53.4339,22.8744M56.0336,22.8744L60.965,22.8744M51.6743,22.86L53.4331,22.86M56.038,22.86L60.9658,22.86M51.6821,22.8455L53.4331,22.8455M56.0424,22.8455L60.9666,22.8455M51.69,22.8311L53.4331,22.8311M56.0469,22.8311L60.9674,22.8311M51.6978,22.8167L53.4331,22.8167M56.0513,22.8167L60.9682,22.8167M51.7056,22.8023L53.4331,22.8023M56.0557,22.8023L60.9691,22.8023M51.7135,22.7879L53.4331,22.7879M56.0601,22.7879L60.9699,22.7879M51.7213,22.7735L53.4331,22.7735M56.0646,22.7735L60.9708,22.7735M51.7292,22.7591L53.4331,22.7591M56.069,22.7591L60.9715,22.7591M51.737,22.7447L53.4331,22.7447M56.0693,22.7447L60.9724,22.7447M51.745,22.7303L53.4331,22.7303M56.0693,22.7303L60.9732,22.7303M51.7528,22.7159L53.4331,22.7159M56.0693,22.7159L60.9711,22.7159M51.7607,22.7015L53.4331,22.7015M56.0693,22.7015L60.969,22.7015M51.7719,22.6871L53.4331,22.6871M56.0693,22.6871L60.9667,22.6871M51.783,22.6727L53.4332,22.6727M56.0693,22.6727L60.9646,22.6727M51.7943,22.6583L53.438,22.6583M56.0693,22.6583L60.9624,22.6583M51.8054,22.6439L53.4429,22.6439M56.0693,22.6439L60.9602,22.6439M51.8167,22.6295L53.4476,22.6295M56.0693,22.6295L60.958,22.6295M51.8278,22.6151L53.4524,22.6151M56.0693,22.6151L60.9558,22.6151M51.8391,22.6007L53.4573,22.6007M56.0693,22.6007L60.9537,22.6007M51.8503,22.5863L53.462,22.5863M56.0693,22.5863L60.9515,22.5863M51.8615,22.5719L53.4668,22.5719M56.0693,22.5719L60.9493,22.5719M51.8727,22.5575L53.4717,22.5575M56.0693,22.5575L60.9471,22.5575M51.8838,22.5431L53.4764,22.5431M56.0693,22.5431L60.9449,22.5431M51.8951,22.5287L53.4812,22.5287M56.0693,22.5287L60.9427,22.5287M51.9063,22.5143L53.4861,22.5143M56.0693,22.5143L60.9406,22.5143M51.9175,22.4999L53.4922,22.4999M56.0693,22.4999L60.9384,22.4999M51.9287,22.4855L53.503,22.4855M56.0693,22.4855L60.9362,22.4855M51.9399,22.4711L53.5138,22.4711M56.0693,22.4711L60.934,22.4711M51.9511,22.4567L53.5246,22.4567M56.0693,22.4567L60.9318,22.4567M51.9632,22.4423L53.5354,22.4423M56.0693,22.4423L60.9296,22.4423M51.9776,22.4279L53.5462,22.4279M56.0693,22.4279L60.9275,22.4279M51.992,22.4135L53.557,22.4135M56.0693,22.4135L60.9253,22.4135M52.0065,22.3991L53.5678,22.3991M56.0693,22.3991L60.9231,22.3991M52.0209,22.3847L53.5799,22.3847M56.0693,22.3847L60.9209,22.3847M52.0353,22.3703L53.5943,22.3703M56.0693,22.3703L60.9188,22.3703M52.0497,22.3559L53.6087,22.3559M56.0667,22.3559L60.9165,22.3559M52.0641,22.3415L53.6231,22.3415M56.06,22.3415L60.9144,22.3415M52.0785,22.3271L53.6375,22.3271M56.0532,22.3271L60.9122,22.3271M52.0929,22.3127L53.6519,22.3127M56.0465,22.3127L60.91,22.3127M52.1073,22.2983L53.6663,22.2983M56.0398,22.2983L60.9078,22.2983M52.1217,22.2839L53.6807,22.2839M56.0331,22.2839L60.9057,22.2839M52.1361,22.2694L53.6968,22.2694M56.0264,22.2694L60.9034,22.2694M52.1505,22.255L53.7149,22.255M56.0197,22.255L60.9013,22.255M52.1649,22.2406L53.7329,22.2406M56.0129,22.2406L60.8991,22.2406M52.1793,22.2262L53.7509,22.2262M56.0062,22.2262L60.8969,22.2262M52.1976,22.2118L53.7689,22.2118M55.9995,22.2118L60.8947,22.2118M52.2192,22.1974L53.7869,22.1974M55.9927,22.1974L60.8926,22.1974M52.2408,22.183L53.8049,22.183M55.986,22.183L60.8904,22.183M52.2624,22.1686L53.8229,22.1686M55.9794,22.1686L60.8882,22.1686M52.284,22.1542L53.8416,22.1542M55.9726,22.1542L60.886,22.1542M52.3056,22.1398L53.8608,22.1398M55.9659,22.1398L60.8838,22.1398M52.3272,22.1254L53.88,22.1254M55.9592,22.1254L60.8816,22.1254M52.3488,22.111L53.8992,22.111M55.9524,22.111L60.8795,22.111M52.3704,22.0966L53.9184,22.0966M55.9457,22.0966L60.8773,22.0966M52.392,22.0822L53.9376,22.0822M55.939,22.0822L60.8751,22.0822M52.4136,22.0678L53.9687,22.0678M55.9323,22.0678L60.8729,22.0678M52.4352,22.0534L54.0047,22.0534M55.9256,22.0534L60.8707,22.0534M52.4675,22.039L54.0407,22.039M55.9188,22.039L60.8686,22.039M52.5035,22.0246L54.0767,22.0246M55.9121,22.0246L60.8664,22.0246M52.5395,22.0102L54.1072,22.0102M55.9054,22.0102L60.8642,22.0102M52.5755,21.9958L54.136,21.9958M55.8986,21.9958L60.862,21.9958M52.6115,21.9814L54.1648,21.9814M55.8919,21.9814L60.8598,21.9814M52.6476,21.9669L54.1936,21.9669M55.8852,21.9669L60.8576,21.9669M52.6836,21.9525L54.2224,21.9525M55.8785,21.9525L60.8555,21.9525M52.7196,21.9381L54.2512,21.9381M55.8718,21.9381L60.8532,21.9381M52.7701,21.9237L54.2676,21.9237M55.86,21.9237L60.8511,21.9237M52.8229,21.9093L54.282,21.9093M55.8476,21.9093L60.8489,21.9093M52.8757,21.8949L54.2164,21.8949M55.8351,21.8949L60.8467,21.8949M52.9285,21.8805L54.1732,21.8805M55.8226,21.8805L60.8445,21.8805M52.9813,21.8661L54.1367,21.8661M55.8102,21.8661L60.8424,21.8661M53.0341,21.8517L54.1007,21.8517M55.7976,21.8517L60.8401,21.8517M53.1054,21.8373L54.0647,21.8373M55.7852,21.8373L60.838,21.8373M53.1774,21.8229L54.0286,21.8229M55.7727,21.8229L60.8358,21.8229M53.2495,21.8085L53.9283,21.8085M55.7602,21.8085L60.8337,21.8085M55.7477,21.7941L60.8314,21.7941M55.7353,21.7797L60.8262,21.7797M55.7227,21.7653L60.8211,21.7653M55.7103,21.7509L60.816,21.7509M55.6978,21.7365L60.8108,21.7365M55.6853,21.7221L60.8057,21.7221M55.6728,21.7077L60.8005,21.7077M55.6603,21.6933L60.7954,21.6933M55.6479,21.6788L60.7902,21.6788M55.6353,21.6644L60.7851,21.6644M55.6229,21.65L60.78,21.65M55.6104,21.6356L60.7748,21.6356M55.5979,21.6212L60.7697,21.6212M55.5854,21.6068L60.7645,21.6068M55.573,21.5924L60.7594,21.5924M55.5605,21.578L60.7542,21.578M55.548,21.5636L60.7491,21.5636M55.5355,21.5492L60.744,21.5492M55.523,21.5348L60.7388,21.5348M55.5106,21.5204L60.7337,21.5204M55.4974,21.506L60.7285,21.506M55.483,21.4916L60.7234,21.4916M55.4686,21.4772L60.7182,21.4772M55.4542,21.4628L60.7131,21.4628M55.4398,21.4484L60.7079,21.4484M55.4254,21.434L60.7028,21.434M55.411,21.4196L60.6977,21.4196M55.3966,21.4052L60.6925,21.4052M55.3822,21.3908L60.6874,21.3908M55.3678,21.3764L60.6822,21.3764M55.3534,21.362L60.6771,21.362M55.339,21.3476L60.6719,21.3476M55.3246,21.3332L60.6668,21.3332M55.3102,21.3188L60.6617,21.3188M55.2958,21.3044L60.6565,21.3044M55.2814,21.29L60.6514,21.29M55.2669,21.2756L60.6462,21.2756M55.2525,21.2612L60.6411,21.2612M55.2381,21.2468L60.6359,21.2468M55.2237,21.2324L60.6308,21.2324M55.2093,21.218L60.6256,21.218M55.1949,21.2036L60.6205,21.2036M55.1805,21.1892L60.6153,21.1892M55.1661,21.1748L60.6102,21.1748M55.1517,21.1604L60.6051,21.1604M55.1373,21.146L60.5999,21.146M55.1229,21.1316L60.5948,21.1316M55.1085,21.1172L60.5896,21.1172M55.0941,21.1028L60.5845,21.1028M55.0797,21.0883L60.5793,21.0883M55.0653,21.0739L60.5742,21.0739M55.0509,21.0595L60.569,21.0595M55.0365,21.0451L60.5639,21.0451M55.0221,21.0307L60.5588,21.0307M55.0107,21.0163L60.5536,21.0163M54.9996,21.0019L60.5485,21.0019M54.9886,20.9875L60.5408,20.9875M54.9776,20.9731L60.5331,20.9731M54.9666,20.9587L60.5253,20.9587M54.9556,20.9443L60.5174,20.9443M54.9446,20.9299L60.5097,20.9299M54.9336,20.9155L60.5018,20.9155M54.9225,20.9011L60.494,20.9011M54.9116,20.8867L60.4863,20.8867M54.9006,20.8723L60.4784,20.8723M54.8896,20.8579L60.4706,20.8579M54.8785,20.8435L60.4629,20.8435M54.8675,20.8291L60.455,20.8291M54.8565,20.8147L60.4472,20.8147M54.8455,20.8002L60.4395,20.8002M54.8345,20.7858L60.4316,20.7858M54.8235,20.7714L60.4238,20.7714M54.8124,20.757L60.416,20.757M54.8014,20.7426L60.4082,20.7426M54.7904,20.7282L60.4004,20.7282M54.7794,20.7138L60.3926,20.7138M54.7684,20.6994L60.3848,20.6994M54.7574,20.685L60.377,20.685M54.7464,20.6706L60.3692,20.6706M54.7353,20.6562L60.3614,20.6562M54.7243,20.6418L60.3536,20.6418M54.7133,20.6274L60.3458,20.6274M54.7023,20.613L60.338,20.613M54.6913,20.5986L60.3302,20.5986M54.6803,20.5842L60.3224,20.5842M54.6692,20.5698L58.572,20.5698M58.804,20.5698L60.3146,20.5698M54.6582,20.5554L58.5215,20.5554M58.8376,20.5554L60.3068,20.5554M54.6489,20.541L58.4711,20.541M58.8712,20.541L60.299,20.541M54.6417,20.5266L58.4207,20.5266M58.9048,20.5266L60.2912,20.5266M54.6345,20.5122L58.3703,20.5122M58.9384,20.5122L60.2834,20.5122M54.6273,20.4978L58.3199,20.4978M58.972,20.4978L60.2756,20.4978M54.6201,20.4834L58.2695,20.4834M58.9962,20.4834L60.2678,20.4834M54.6129,20.469L58.2191,20.469M59.0106,20.469L60.26,20.469M54.6057,20.4546L58.1801,20.4546M59.025,20.4546L60.2522,20.4546M54.5985,20.4402L58.1512,20.4402M59.0394,20.4402L60.2444,20.4402M54.5913,20.4258L58.1224,20.4258M59.0538,20.4258L60.2366,20.4258M54.5841,20.4114L58.0936,20.4114M59.0682,20.4114L60.2288,20.4114M54.5769,20.397L58.0648,20.397M59.0826,20.397L60.2209,20.397M54.5697,20.3826L58.036,20.3826M59.097,20.3826L60.2132,20.3826M54.5625,20.3682L58.0072,20.3682M59.1114,20.3682L60.2054,20.3682M54.5553,20.3538L57.9784,20.3538M59.1258,20.3538L60.1975,20.3538M54.5481,20.3394L57.9553,20.3394M59.1364,20.3394L60.1898,20.3394M54.5409,20.325L57.9352,20.325M59.145,20.325L60.182,20.325M54.5337,20.3106L57.9149,20.3106M59.1537,20.3106L60.1696,20.3106M54.5265,20.2962L57.8948,20.2962M59.1623,20.2962L60.1552,20.2962M54.5192,20.2818L57.8746,20.2818M59.171,20.2818L60.1408,20.2818M54.512,20.2674L57.8544,20.2674M59.1796,20.2674L60.1264,20.2674M54.5048,20.253L57.8343,20.253M59.1882,20.253L60.112,20.253M54.4976,20.2386L57.8141,20.2386M59.1969,20.2386L60.0976,20.2386M54.4904,20.2242L57.794,20.2242M59.2055,20.2242L60.0832,20.2242M54.4832,20.2097L57.7738,20.2097M59.2142,20.2097L60.0688,20.2097M54.476,20.1953L57.7536,20.1953M59.2177,20.1953L60.0544,20.1953M54.4688,20.1809L57.7335,20.1809M59.2201,20.1809L60.04,20.1809M54.4616,20.1665L57.7133,20.1665M59.2225,20.1665L60.0256,20.1665M54.4544,20.1521L57.6932,20.1521M59.2249,20.1521L60.0112,20.1521M54.4472,20.1377L57.673,20.1377M59.2273,20.1377L59.9968,20.1377M54.44,20.1233L57.6528,20.1233M59.2297,20.1233L59.9824,20.1233M54.4328,20.1089L57.6326,20.1089M59.2321,20.1089L59.968,20.1089M54.4256,20.0945L57.6125,20.0945M59.2345,20.0945L59.9535,20.0945M54.4184,20.0801L57.5923,20.0801M59.2369,20.0801L59.9391,20.0801M54.4112,20.0657L57.5721,20.0657M59.2393,20.0657L59.9247,20.0657M54.404,20.0513L57.5553,20.0513M59.2417,20.0513L59.9103,20.0513M54.3968,20.0369L57.5384,20.0369M59.2441,20.0369L59.8959,20.0369M54.3926,20.0225L57.5217,20.0225M59.2465,20.0225L59.8815,20.0225M54.3884,20.0081L57.5049,20.0081M59.2489,20.0081L59.8671,20.0081M54.3841,19.9937L57.488,19.9937M59.2513,19.9937L59.8527,19.9937M54.3799,19.9793L57.4713,19.9793M59.2537,19.9793L59.8383,19.9793M54.3756,19.9649L57.4544,19.9649M59.2561,19.9649L59.8239,19.9649M54.3714,19.9505L57.4376,19.9505M59.2585,19.9505L59.8095,19.9505M54.3671,19.9361L57.4209,19.9361M59.2609,19.9361L59.7951,19.9361M54.363,19.9216L57.404,19.9216M59.2633,19.9216L59.7807,19.9216M54.3587,19.9072L57.3872,19.9072M59.2657,19.9072L59.7663,19.9072M54.3545,19.8928L57.3708,19.8928M59.2681,19.8928L59.7519,19.8928M54.3502,19.8784L57.3564,19.8784M59.2705,19.8784L59.7375,19.8784M54.346,19.864L57.342,19.864M59.2718,19.864L59.7231,19.864M54.3417,19.8496L57.3276,19.8496M59.269,19.8496L59.7087,19.8496M54.3375,19.8352L57.3132,19.8352M59.2661,19.8352L59.6923,19.8352M54.3333,19.8208L57.2988,19.8208M59.2632,19.8208L59.6693,19.8208M54.329,19.8064L57.2844,19.8064M59.2603,19.8064L59.6462,19.8064M54.3248,19.792L57.27,19.792M59.2574,19.792L59.6232,19.792M54.3205,19.7776L57.2556,19.7776M59.2546,19.7776L59.6002,19.7776M54.3163,19.7632L57.2412,19.7632M59.2517,19.7632L59.5771,19.7632M54.3121,19.7488L57.2286,19.7488M59.2488,19.7488L59.554,19.7488M54.3079,19.7344L57.2196,19.7344M59.2459,19.7344L59.531,19.7344M54.3036,19.72L57.2106,19.72M59.2441,19.72L59.5079,19.72M54.2994,19.7056L57.2016,19.7056M59.2441,19.7056L59.4849,19.7056M54.2951,19.6912L57.1926,19.6912M59.2441,19.6912L59.4618,19.6912M54.2909,19.6768L57.1836,19.6768M59.2441,19.6768L59.4388,19.6768M54.2867,19.6624L57.1746,19.6624M59.2441,19.6624L59.4158,19.6624M54.2825,19.648L57.1656,19.648M59.2441,19.648L59.3927,19.648M54.2782,19.6335L57.1566,19.6335M59.2441,19.6335L59.3697,19.6335M54.274,19.6191L57.1476,19.6191M59.2441,19.6191L59.3466,19.6191M54.2697,19.6047L57.1386,19.6047M59.2441,19.6047L59.3236,19.6047M54.2655,19.5903L57.1296,19.5903M59.2441,19.5903L59.3006,19.5903M54.2612,19.5759L57.1206,19.5759M59.2441,19.5759L59.2775,19.5759M54.257,19.5615L57.1116,19.5615M59.2441,19.5615L59.2544,19.5615M54.2551,19.5471L57.1026,19.5471M54.2551,19.5327L57.0936,19.5327M54.2551,19.5183L57.0842,19.5183M54.2551,19.5039L57.0745,19.5039M54.2551,19.4895L57.065,19.4895M54.2551,19.4751L57.0554,19.4751M54.2551,19.4607L57.0457,19.4607M54.2551,19.4463L57.0362,19.4463M54.2551,19.4319L57.0265,19.4319M54.2551,19.4175L57.0169,19.4175M54.2551,19.4031L57.0074,19.4031M54.2551,19.3887L56.9977,19.3887M54.2551,19.3743L56.9881,19.3743M54.2551,19.3599L56.9786,19.3599M54.2551,19.3455L56.9732,19.3455M54.2551,19.3311L56.9691,19.3311M54.2551,19.3167L56.965,19.3167M54.2551,19.3023L56.9609,19.3023M54.2551,19.2879L56.9568,19.2879M54.2551,19.2735L56.9526,19.2735M54.2551,19.2591L56.9485,19.2591M54.2551,19.2447L56.9444,19.2447M54.2551,19.2303L56.9403,19.2303M54.2551,19.2159L56.9362,19.2159M54.2551,19.2015L56.9321,19.2015M54.2551,19.1871L56.928,19.1871M54.2551,19.1727L56.9238,19.1727M54.2551,19.1583L56.9197,19.1583M54.2551,19.1439L56.9173,19.1439M54.2551,19.1295L56.9149,19.1295M54.2551,19.1151L56.9125,19.1151M54.2551,19.1007L56.9101,19.1007M54.2551,19.0863L56.9077,19.0863M54.2556,19.0719L56.9053,19.0719M54.2607,19.0575L56.9029,19.0575M54.2658,19.043L56.9005,19.043M54.2709,19.0286L56.8981,19.0286M54.2759,19.0142L56.8957,19.0142M54.281,18.9998L56.8933,18.9998M54.2861,18.9854L56.8918,18.9854M54.2912,18.971L56.8942,18.971M54.2963,18.9566L56.8966,18.9566M54.3014,18.9422L56.899,18.9422M54.3064,18.9278L56.9014,18.9278M54.3115,18.9134L56.9038,18.9134M54.3166,18.899L56.9062,18.899M54.3217,18.8846L56.9086,18.8846M54.3268,18.8702L56.911,18.8702M54.3318,18.8558L56.9134,18.8558M54.337,18.8414L56.9158,18.8414M54.342,18.827L56.9182,18.827M54.3471,18.8126L56.9219,18.8126M54.3522,18.7982L56.9277,18.7982M54.3573,18.7838L56.9334,18.7838M54.3624,18.7694L56.9392,18.7694M54.3674,18.7549L56.9449,18.7549M54.3725,18.7405L56.9507,18.7405M54.3776,18.7261L56.9565,18.7261M54.3827,18.7117L56.9622,18.7117M54.3878,18.6973L56.968,18.6973M54.3928,18.6829L56.9737,18.6829M54.3979,18.6685L56.9803,18.6685M54.4031,18.6541L56.9875,18.6541M54.4081,18.6397L56.9947,18.6397M54.4132,18.6253L57.0019,18.6253M54.4182,18.6109L57.0091,18.6109M54.4234,18.5965L57.0163,18.5965M54.4315,18.5821L57.0235,18.5821M54.4414,18.5677L57.0307,18.5677M54.4513,18.5533L57.0379,18.5533M54.4612,18.5389L57.0451,18.5389M54.4712,18.5245L57.0523,18.5245M54.481,18.5101L57.0595,18.5101M54.491,18.4957L57.0699,18.4957M54.5008,18.4813L57.0814,18.4813M54.5108,18.4668L57.0929,18.4668M54.5206,18.4524L57.1044,18.4524M54.5306,18.438L57.1159,18.438M54.5404,18.4236L57.1275,18.4236M54.5504,18.4092L57.139,18.4092M54.5602,18.3948L57.1505,18.3948M54.5702,18.3804L57.162,18.3804M54.58,18.366L57.1736,18.366M54.59,18.3516L57.1895,18.3516M54.5998,18.3372L57.206,18.3372M54.6098,18.3228L57.2224,18.3228M54.6197,18.3084L57.2389,18.3084M54.6296,18.294L57.2553,18.294M54.6395,18.2796L57.2718,18.2796M54.6494,18.2652L57.2883,18.2652M54.6593,18.2508L57.3047,18.2508M54.6692,18.2364L57.3212,18.2364M54.6791,18.222L57.3377,18.222M54.689,18.2076L57.3541,18.2076M54.6989,18.1932L57.3706,18.1932M54.7088,18.1788L57.387,18.1788M54.7187,18.1644L57.405,18.1644M54.7286,18.15L57.4338,18.15M54.7397,18.1356L57.4626,18.1356M54.7572,18.1212L57.4914,18.1212M54.7746,18.1068L57.5202,18.1068M54.7921,18.0924L57.549,18.0924M54.8096,18.078L57.5778,18.078M54.8271,18.0636L57.6066,18.0636M54.8446,18.0492L57.6426,18.0492M54.8621,18.0348L57.7002,18.0348M54.8796,18.0204L57.7578,18.0204M54.897,18.006L57.8154,18.006M54.9145,17.9916L57.8953,17.9916M58.5742,17.9916L58.6138,17.9916M54.932,17.9772L58.0249,17.9772M58.5166,17.9772L58.5922,17.9772M54.9495,17.9628L58.5706,17.9628M54.967,17.9484L58.549,17.9484M54.9845,17.934L58.5279,17.934M55.002,17.9196L58.5077,17.9196M55.0194,17.9052L58.4875,17.9052M55.0369,17.8908L58.4674,17.8908M55.0544,17.8763L58.4472,17.8763M55.0719,17.8619L58.4271,17.8619M55.0894,17.8475L58.4069,17.8475M55.1069,17.8331L58.3867,17.8331M55.1244,17.8187L58.3666,17.8187M55.1419,17.8043L58.3464,17.8043M55.1594,17.7899L58.3238,17.7899M55.1769,17.7755L58.2991,17.7755M55.1944,17.7611L58.2744,17.7611M55.2118,17.7467L58.2497,17.7467M55.2354,17.7323L58.225,17.7323M55.263,17.7179L58.2003,17.7179M55.2906,17.7035L58.1757,17.7035M55.3182,17.6891L58.151,17.6891M55.3458,17.6747L58.1263,17.6747M55.3735,17.6603L58.1016,17.6603M55.401,17.6459L58.0769,17.6459M55.4286,17.6315L58.0522,17.6315M55.4563,17.6171L58.0275,17.6171M55.4838,17.6027L58.0028,17.6027M55.5115,17.5882L57.9696,17.5882M55.5391,17.5738L57.9336,17.5738M55.5666,17.5594L57.8976,17.5594M55.5943,17.545L57.8616,17.545M55.6219,17.5306L57.8255,17.5306M55.6495,17.5162L57.7895,17.5162M55.6771,17.5018L57.7535,17.5018M55.7047,17.4874L57.7175,17.4874M55.7323,17.473L57.6815,17.473M55.76,17.4586L57.6455,17.4586M55.7875,17.4442L57.6095,17.4442M55.8151,17.4298L57.5735,17.4298M55.8428,17.4154L57.5224,17.4154M55.8703,17.401L57.4705,17.401M55.9331,17.3866L57.4187,17.3866M55.9964,17.3722L57.3669,17.3722M56.0598,17.3578L57.315,17.3578M56.1232,17.3434L57.2632,17.3434M56.1866,17.329L57.2113,17.329M56.2499,17.3146L57.1594,17.3146M56.3134,17.3002L57.1076,17.3002M56.3767,17.2858L57.0299,17.2858M56.4401,17.2714L56.7418,17.2714"/>
      </g>
     </g>
    </g>
   </g>
   <rect  width="35.1496" x="14.7679" y="1.63709e-14" fill="#ffffff" height="19.8426" stroke="none" fill-opacity="0.15" stroke-width="0"/>
   <rect  width="7.93699" x="28.4315" y="30.4685" fill="#333333" height="2.26772" stroke="none" fill-opacity="1" stroke-width="0"/>
   <rect  width="1.296" x="38.952" y="31.3727" fill="#ffffff" height="2.16" stroke="none" fill-opacity="0.15" stroke-width="0"/>
   <rect  width="1.296" x="24.552" y="31.3727" fill="#ffffff" height="2.16" stroke="none" fill-opacity="0.15" stroke-width="0"/>
   <circle  fill="none" cx="25.2" cy="18.0527" connectorname="VCC" stroke="#9A916C" r="2.052" id="connector2pin" stroke-width="1.224"/>
   <rect  width="4.104" x="23.148" y="16.0007" fill="none" height="4.104" stroke="#9A916C" stroke-width="1.224"/>
   <circle  fill="none" cx="32.4" cy="18.0527" connectorname="GND" stroke="#9A916C" r="2.052" id="connector3pin" stroke-width="1.224"/>
   <circle  fill="none" cx="39.6" cy="18.0527" connectorname="SIG" stroke="#9A916C" r="2.052" id="connector4pin" stroke-width="1.224"/>
   <circle  fill="none" cx="42.768" cy="10.2047" connectorname="SIG" stroke="#9A916C" r="2.29039" id="connector5pin" stroke-width="1.17922"/>
   <rect  width="4.58078" x="40.4776" y="7.91431" fill="none" height="4.58078" stroke="#9A916C" stroke-width="1.17922"/>
   <circle  fill="none" cx="32.3428" cy="10.2047" connectorname="GND" stroke="#9A916C" r="2.29039" id="connector6pin" stroke-width="1.17922"/>
   <circle  fill="none" cx="21.9174" cy="10.2047" connectorname="VCC" stroke="#9A916C" r="2.29039" id="connector7pin" stroke-width="1.17922"/>
  </g>
 </g>
</svg>
