<?xml version='1.0' encoding='UTF-8' standalone='no'?>
<!-- Created with Fritzing (http://www.fritzing.org/) -->
<svg xmlns="http://www.w3.org/2000/svg"  width="1.9in" x="0in" version="1.2" y="0in" height="3.1in" viewBox="0 0 136.8 223.2" baseProfile="tiny">
 <desc >Fritzing schematic generated by brd2svg</desc>
 <g  id="schematic">
  <rect  width="107.55" x="14.4" y="14.4" fill="none" height="194.4" stroke="#000000" stroke-linejoin="round" stroke-linecap="round" stroke-width="0.9"/>
  <text  x="68.4" y="104.5" font-family="'Droid Sans'" fill="#000000" text-anchor="middle" stroke="none" id="label" font-size="3.5">Ludus</text>
  <text  x="68.4" y="108" font-family="'Droid Sans'" fill="#000000" text-anchor="middle" stroke="none" id="label" font-size="3.5">ProtoShield</text>
  <line  fill="none" stroke="#787878" stroke-linejoin="round" stroke-linecap="round" y1="64.8" stroke-width="0.699998" x1="0.349999" y2="64.8" x2="14.4"/>
  <rect  width="14.4" x="0" y="64.45" fill="none" height="0.699998" id="connector167pin" stroke-width="0" connectorName="RESET"/>
  <rect  width="0" x="0" y="64.45" fill="none" height="0.699998" id="connector167terminal" stroke-width="0"/>
  <text  x="15.8" y="65.5" font-family="'Droid Sans'" fill="#8c8c8c" text-anchor="start" stroke="none" id="label167" font-size="3.5">RESET</text>
  <line  fill="none" stroke="#787878" stroke-linejoin="round" stroke-linecap="round" y1="72" stroke-width="0.699998" x1="0.349999" y2="72" x2="14.4"/>
  <rect  width="14.4" x="0" y="71.65" fill="none" height="0.699998" id="connector56pin" stroke-width="0" connectorName="A0"/>
  <rect  width="0" x="0" y="71.65" fill="none" height="0.699998" id="connector56terminal" stroke-width="0"/>
  <text  x="15.8" y="72.6998" font-family="'Droid Sans'" fill="#8c8c8c" text-anchor="start" stroke="none" id="label56" font-size="3.5">A0</text>
  <line  fill="none" stroke="#787878" stroke-linejoin="round" stroke-linecap="round" y1="79.2" stroke-width="0.699998" x1="0.349999" y2="79.2" x2="14.4"/>
  <rect  width="14.4" x="0" y="78.8501" fill="none" height="0.699998" id="connector59pin" stroke-width="0" connectorName="A1"/>
  <rect  width="0" x="0" y="78.8501" fill="none" height="0.699998" id="connector59terminal" stroke-width="0"/>
  <text  x="15.8" y="79.8998" font-family="'Droid Sans'" fill="#8c8c8c" text-anchor="start" stroke="none" id="label59" font-size="3.5">A1</text>
  <line  fill="none" stroke="#787878" stroke-linejoin="round" stroke-linecap="round" y1="86.4" stroke-width="0.699998" x1="0.349999" y2="86.4" x2="14.4"/>
  <rect  width="14.4" x="0" y="86.0501" fill="none" height="0.699998" id="connector62pin" stroke-width="0" connectorName="A2"/>
  <rect  width="0" x="0" y="86.0501" fill="none" height="0.699998" id="connector62terminal" stroke-width="0"/>
  <text  x="15.8" y="87.0998" font-family="'Droid Sans'" fill="#8c8c8c" text-anchor="start" stroke="none" id="label62" font-size="3.5">A2</text>
  <line  fill="none" stroke="#787878" stroke-linejoin="round" stroke-linecap="round" y1="93.6" stroke-width="0.699998" x1="0.349999" y2="93.6" x2="14.4"/>
  <rect  width="14.4" x="0" y="93.2501" fill="none" height="0.699998" id="connector65pin" stroke-width="0" connectorName="A3"/>
  <rect  width="0" x="0" y="93.2501" fill="none" height="0.699998" id="connector65terminal" stroke-width="0"/>
  <text  x="15.8" y="94.2998" font-family="'Droid Sans'" fill="#8c8c8c" text-anchor="start" stroke="none" id="label65" font-size="3.5">A3</text>
  <line  fill="none" stroke="#787878" stroke-linejoin="round" stroke-linecap="round" y1="100.8" stroke-width="0.699998" x1="0.349999" y2="100.8" x2="14.4"/>
  <rect  width="14.4" x="0" y="100.45" fill="none" height="0.699998" id="connector68pin" stroke-width="0" connectorName="A4"/>
  <rect  width="0" x="0" y="100.45" fill="none" height="0.699998" id="connector68terminal" stroke-width="0"/>
  <text  x="15.8" y="101.5" font-family="'Droid Sans'" fill="#8c8c8c" text-anchor="start" stroke="none" id="label68" font-size="3.5">A4</text>
  <line  fill="none" stroke="#787878" stroke-linejoin="round" stroke-linecap="round" y1="108" stroke-width="0.699998" x1="0.349999" y2="108" x2="14.4"/>
  <rect  width="14.4" x="0" y="107.65" fill="none" height="0.699998" id="connector71pin" stroke-width="0" connectorName="A5"/>
  <rect  width="0" x="0" y="107.65" fill="none" height="0.699998" id="connector71terminal" stroke-width="0"/>
  <text  x="15.8" y="108.7" font-family="'Droid Sans'" fill="#8c8c8c" text-anchor="start" stroke="none" id="label71" font-size="3.5">A5</text>
  <line  fill="none" stroke="#787878" stroke-linejoin="round" stroke-linecap="round" y1="115.2" stroke-width="0.699998" x1="0.349999" y2="115.2" x2="14.4"/>
  <rect  width="14.4" x="0" y="114.85" fill="none" height="0.699998" id="connector26pin" stroke-width="0" connectorName="AIN1"/>
  <rect  width="0" x="0" y="114.85" fill="none" height="0.699998" id="connector26terminal" stroke-width="0"/>
  <text  x="15.8" y="115.9" font-family="'Droid Sans'" fill="#8c8c8c" text-anchor="start" stroke="none" id="label26" font-size="3.5">AIN1</text>
  <line  fill="none" stroke="#787878" stroke-linejoin="round" stroke-linecap="round" y1="122.4" stroke-width="0.699998" x1="0.349999" y2="122.4" x2="14.4"/>
  <rect  width="14.4" x="0" y="122.05" fill="none" height="0.699998" id="connector29pin" stroke-width="0" connectorName="AIN2"/>
  <rect  width="0" x="0" y="122.05" fill="none" height="0.699998" id="connector29terminal" stroke-width="0"/>
  <text  x="15.8" y="123.1" font-family="'Droid Sans'" fill="#8c8c8c" text-anchor="start" stroke="none" id="label29" font-size="3.5">AIN2</text>
  <line  fill="none" stroke="#787878" stroke-linejoin="round" stroke-linecap="round" y1="129.6" stroke-width="0.699998" x1="0.349999" y2="129.6" x2="14.4"/>
  <rect  width="14.4" x="0" y="129.25" fill="none" height="0.699998" id="connector35pin" stroke-width="0" connectorName="BIN1"/>
  <rect  width="0" x="0" y="129.25" fill="none" height="0.699998" id="connector35terminal" stroke-width="0"/>
  <text  x="15.8" y="130.3" font-family="'Droid Sans'" fill="#8c8c8c" text-anchor="start" stroke="none" id="label35" font-size="3.5">BIN1</text>
  <line  fill="none" stroke="#787878" stroke-linejoin="round" stroke-linecap="round" y1="136.8" stroke-width="0.699998" x1="0.349999" y2="136.8" x2="14.4"/>
  <rect  width="14.4" x="0" y="136.45" fill="none" height="0.699998" id="connector38pin" stroke-width="0" connectorName="BIN2"/>
  <rect  width="0" x="0" y="136.45" fill="none" height="0.699998" id="connector38terminal" stroke-width="0"/>
  <text  x="15.8" y="137.5" font-family="'Droid Sans'" fill="#8c8c8c" text-anchor="start" stroke="none" id="label38" font-size="3.5">BIN2</text>
  <line  fill="none" stroke="#787878" stroke-linejoin="round" stroke-linecap="round" y1="144" stroke-width="0.699998" x1="0.349999" y2="144" x2="14.4"/>
  <rect  width="14.4" x="0" y="143.65" fill="none" height="0.699998" id="connector149pin" stroke-width="0" connectorName="AREF"/>
  <rect  width="0" x="0" y="143.65" fill="none" height="0.699998" id="connector149terminal" stroke-width="0"/>
  <text  x="15.8" y="144.7" font-family="'Droid Sans'" fill="#8c8c8c" text-anchor="start" stroke="none" id="label149" font-size="3.5">AREF</text>
  <line  fill="none" stroke="#787878" stroke-linejoin="round" stroke-linecap="round" y1="151.2" stroke-width="0.699998" x1="0.349999" y2="151.2" x2="14.4"/>
  <rect  width="14.4" x="0" y="150.85" fill="none" height="0.699998" id="connector165pin" stroke-width="0" connectorName="IOREF"/>
  <rect  width="0" x="0" y="150.85" fill="none" height="0.699998" id="connector165terminal" stroke-width="0"/>
  <text  x="15.8" y="151.9" font-family="'Droid Sans'" fill="#8c8c8c" text-anchor="start" stroke="none" id="label165" font-size="3.5">IOREF</text>
  <line  fill="none" stroke="#787878" stroke-linejoin="round" stroke-linecap="round" y1="158.4" stroke-width="0.699998" x1="0.349999" y2="158.4" x2="14.4"/>
  <rect  width="14.4" x="0" y="158.05" fill="none" height="0.699998" id="connector172pin" stroke-width="0" connectorName="VIN"/>
  <rect  width="0" x="0" y="158.05" fill="none" height="0.699998" id="connector172terminal" stroke-width="0"/>
  <text  x="15.8" y="159.1" font-family="'Droid Sans'" fill="#8c8c8c" text-anchor="start" stroke="none" id="label172" font-size="3.5">VIN</text>
  <line  fill="none" stroke="#787878" stroke-linejoin="round" stroke-linecap="round" y1="165.6" stroke-width="0.699998" x1="0.349999" y2="165.6" x2="14.4"/>
  <rect  width="14.4" x="0" y="165.25" fill="none" height="0.699998" id="connector166pin" stroke-width="0" connectorName="NC"/>
  <rect  width="0" x="0" y="165.25" fill="none" height="0.699998" id="connector166terminal" stroke-width="0"/>
  <text  x="15.8" y="166.3" font-family="'Droid Sans'" fill="#8c8c8c" text-anchor="start" stroke="none" id="label166" font-size="3.5">NC</text>
  <line  fill="none" stroke="#787878" stroke-linejoin="round" stroke-linecap="round" y1="64.8" stroke-width="0.699998" x1="122.05" y2="64.8" x2="136.45"/>
  <rect  width="14.4" x="122.4" y="64.45" fill="none" connectorname="AOUT1" height="0.699998" id="connector79pin" stroke-width="0"/>
  <rect  width="0" x="136.8" y="64.45" fill="none" height="0.699998" id="connector79terminal" stroke-width="0"/>
  <text  x="121" y="65.5" font-family="'Droid Sans'" fill="#8c8c8c" text-anchor="end" stroke="none" id="label79" font-size="3.5">AOUT1</text>
  <line  fill="none" stroke="#787878" stroke-linejoin="round" stroke-linecap="round" y1="72" stroke-width="0.699998" x1="122.05" y2="72" x2="136.45"/>
  <rect  width="14.4" x="122.4" y="71.65" fill="none" connectorname="AOUT2" height="0.699998" id="connector78pin" stroke-width="0"/>
  <rect  width="0" x="136.8" y="71.65" fill="none" height="0.699998" id="connector78terminal" stroke-width="0"/>
  <text  x="121" y="72.6998" font-family="'Droid Sans'" fill="#8c8c8c" text-anchor="end" stroke="none" id="label78" font-size="3.5">AOUT2</text>
  <line  fill="none" stroke="#787878" stroke-linejoin="round" stroke-linecap="round" y1="79.2" stroke-width="0.699998" x1="122.05" y2="79.2" x2="136.45"/>
  <rect  width="14.4" x="122.4" y="78.8501" fill="none" connectorname="BOUT1" height="0.699998" id="connector77pin" stroke-width="0"/>
  <rect  width="0" x="136.8" y="78.8501" fill="none" height="0.699998" id="connector77terminal" stroke-width="0"/>
  <text  x="121" y="79.8998" font-family="'Droid Sans'" fill="#8c8c8c" text-anchor="end" stroke="none" id="label77" font-size="3.5">BOUT1</text>
  <line  fill="none" stroke="#787878" stroke-linejoin="round" stroke-linecap="round" y1="86.4" stroke-width="0.699998" x1="122.05" y2="86.4" x2="136.45"/>
  <rect  width="14.4" x="122.4" y="86.0501" fill="none" connectorname="BOUT2" height="0.699998" id="connector76pin" stroke-width="0"/>
  <rect  width="0" x="136.8" y="86.0501" fill="none" height="0.699998" id="connector76terminal" stroke-width="0"/>
  <text  x="121" y="87.0998" font-family="'Droid Sans'" fill="#8c8c8c" text-anchor="end" stroke="none" id="label76" font-size="3.5">BOUT2</text>
  <line  fill="none" stroke="#787878" stroke-linejoin="round" stroke-linecap="round" y1="93.6" stroke-width="0.699998" x1="122.05" y2="93.6" x2="136.45"/>
  <rect  width="14.4" x="122.4" y="93.2501" fill="none" connectorname="D0" height="0.699998" id="connector14pin" stroke-width="0"/>
  <rect  width="0" x="136.8" y="93.2501" fill="none" height="0.699998" id="connector14terminal" stroke-width="0"/>
  <text  x="121" y="94.2998" font-family="'Droid Sans'" fill="#8c8c8c" text-anchor="end" stroke="none" id="label14" font-size="3.5">D0</text>
  <line  fill="none" stroke="#787878" stroke-linejoin="round" stroke-linecap="round" y1="100.8" stroke-width="0.699998" x1="122.05" y2="100.8" x2="136.45"/>
  <rect  width="14.4" x="122.4" y="100.45" fill="none" connectorname="D1" height="0.699998" id="connector17pin" stroke-width="0"/>
  <rect  width="0" x="136.8" y="100.45" fill="none" height="0.699998" id="connector17terminal" stroke-width="0"/>
  <text  x="121" y="101.5" font-family="'Droid Sans'" fill="#8c8c8c" text-anchor="end" stroke="none" id="label17" font-size="3.5">D1</text>
  <line  fill="none" stroke="#787878" stroke-linejoin="round" stroke-linecap="round" y1="108" stroke-width="0.699998" x1="122.05" y2="108" x2="136.45"/>
  <rect  width="14.4" x="122.4" y="107.65" fill="none" connectorname="SCL" height="0.699998" id="connector169pin" stroke-width="0"/>
  <rect  width="0" x="136.8" y="107.65" fill="none" height="0.699998" id="connector169terminal" stroke-width="0"/>
  <text  x="121" y="108.7" font-family="'Droid Sans'" fill="#8c8c8c" text-anchor="end" stroke="none" id="label169" font-size="3.5">SCL</text>
  <line  fill="none" stroke="#787878" stroke-linejoin="round" stroke-linecap="round" y1="115.2" stroke-width="0.699998" x1="122.05" y2="115.2" x2="136.45"/>
  <rect  width="14.4" x="122.4" y="114.85" fill="none" connectorname="SDA" height="0.699998" id="connector170pin" stroke-width="0"/>
  <rect  width="0" x="136.8" y="114.85" fill="none" height="0.699998" id="connector170terminal" stroke-width="0"/>
  <text  x="121" y="115.9" font-family="'Droid Sans'" fill="#8c8c8c" text-anchor="end" stroke="none" id="label170" font-size="3.5">SDA</text>
  <line  fill="none" stroke="#787878" stroke-linejoin="round" stroke-linecap="round" y1="122.4" stroke-width="0.699998" x1="122.05" y2="122.4" x2="136.45"/>
  <rect  width="14.4" x="122.4" y="122.05" fill="none" connectorname="SDA_I2C_PORT" height="0.699998" id="connector74pin" stroke-width="0"/>
  <rect  width="0" x="136.8" y="122.05" fill="none" height="0.699998" id="connector74terminal" stroke-width="0"/>
  <text  x="121" y="123.1" font-family="'Droid Sans'" fill="#8c8c8c" text-anchor="end" stroke="none" id="label74" font-size="3.5">SDA_I2C_PORT</text>
  <line  fill="none" stroke="#787878" stroke-linejoin="round" stroke-linecap="round" y1="129.6" stroke-width="0.699998" x1="122.05" y2="129.6" x2="136.45"/>
  <rect  width="14.4" x="122.4" y="129.25" fill="none" connectorname="SCL_I2C_PORT" height="0.699998" id="connector75pin" stroke-width="0"/>
  <rect  width="0" x="136.8" y="129.25" fill="none" height="0.699998" id="connector75terminal" stroke-width="0"/>
  <text  x="121" y="130.3" font-family="'Droid Sans'" fill="#8c8c8c" text-anchor="end" stroke="none" id="label75" font-size="3.5">SCL_I2C_PORT</text>
  <line  fill="none" stroke="#787878" stroke-linejoin="round" stroke-linecap="round" y1="136.8" stroke-width="0.699998" x1="122.05" y2="136.8" x2="136.45"/>
  <rect  width="14.4" x="122.4" y="136.45" fill="none" connectorname="PWR_RAIL" height="0.699998" id="connector13pin" stroke-width="0"/>
  <rect  width="0" x="136.8" y="136.45" fill="none" height="0.699998" id="connector13terminal" stroke-width="0"/>
  <text  x="121" y="137.5" font-family="'Droid Sans'" fill="#8c8c8c" text-anchor="end" stroke="none" id="label13" font-size="3.5">PWR_RAIL</text>
  <line  fill="none" stroke="#787878" stroke-linejoin="round" stroke-linecap="round" y1="144" stroke-width="0.699998" x1="122.05" y2="144" x2="136.45"/>
  <rect  width="14.4" x="122.4" y="143.65" fill="none" connectorname="PWMB" height="0.699998" id="connector32pin" stroke-width="0"/>
  <rect  width="0" x="136.8" y="143.65" fill="none" height="0.699998" id="connector32terminal" stroke-width="0"/>
  <text  x="121" y="144.7" font-family="'Droid Sans'" fill="#8c8c8c" text-anchor="end" stroke="none" id="label32" font-size="3.5">PWMB</text>
  <line  fill="none" stroke="#787878" stroke-linejoin="round" stroke-linecap="round" y1="151.2" stroke-width="0.699998" x1="122.05" y2="151.2" x2="136.45"/>
  <rect  width="14.4" x="122.4" y="150.85" fill="none" connectorname="PWMA" height="0.699998" id="connector23pin" stroke-width="0"/>
  <rect  width="0" x="136.8" y="150.85" fill="none" height="0.699998" id="connector23terminal" stroke-width="0"/>
  <text  x="121" y="151.9" font-family="'Droid Sans'" fill="#8c8c8c" text-anchor="end" stroke="none" id="label23" font-size="3.5">PWMA</text>
  <line  fill="none" stroke="#787878" stroke-linejoin="round" stroke-linecap="round" y1="158.4" stroke-width="0.699998" x1="122.05" y2="158.4" x2="136.45"/>
  <rect  width="14.4" x="122.4" y="158.05" fill="none" connectorname="D9" height="0.699998" id="connector41pin" stroke-width="0"/>
  <rect  width="0" x="136.8" y="158.05" fill="none" height="0.699998" id="connector41terminal" stroke-width="0"/>
  <text  x="121" y="159.1" font-family="'Droid Sans'" fill="#8c8c8c" text-anchor="end" stroke="none" id="label41" font-size="3.5">D9</text>
  <line  fill="none" stroke="#787878" stroke-linejoin="round" stroke-linecap="round" y1="165.6" stroke-width="0.699998" x1="122.05" y2="165.6" x2="136.45"/>
  <rect  width="14.4" x="122.4" y="165.25" fill="none" connectorname="D2" height="0.699998" id="connector20pin" stroke-width="0"/>
  <rect  width="0" x="136.8" y="165.25" fill="none" height="0.699998" id="connector20terminal" stroke-width="0"/>
  <text  x="121" y="166.3" font-family="'Droid Sans'" fill="#8c8c8c" text-anchor="end" stroke="none" id="label20" font-size="3.5">D2</text>
  <line  fill="none" stroke="#787878" stroke-linejoin="round" stroke-linecap="round" y1="172.8" stroke-width="0.699998" x1="122.05" y2="172.8" x2="136.45"/>
  <rect  width="14.4" x="122.4" y="172.45" fill="none" connectorname="D13" height="0.699998" id="connector53pin" stroke-width="0"/>
  <rect  width="0" x="136.8" y="172.45" fill="none" height="0.699998" id="connector53terminal" stroke-width="0"/>
  <text  x="121" y="173.5" font-family="'Droid Sans'" fill="#8c8c8c" text-anchor="end" stroke="none" id="label53" font-size="3.5">D13</text>
  <line  fill="none" stroke="#787878" stroke-linejoin="round" stroke-linecap="round" y1="180" stroke-width="0.699998" x1="122.05" y2="180" x2="136.45"/>
  <rect  width="14.4" x="122.4" y="179.65" fill="none" connectorname="D12" height="0.699998" id="connector50pin" stroke-width="0"/>
  <rect  width="0" x="136.8" y="179.65" fill="none" height="0.699998" id="connector50terminal" stroke-width="0"/>
  <text  x="121" y="180.7" font-family="'Droid Sans'" fill="#8c8c8c" text-anchor="end" stroke="none" id="label50" font-size="3.5">D12</text>
  <line  fill="none" stroke="#787878" stroke-linejoin="round" stroke-linecap="round" y1="187.2" stroke-width="0.699998" x1="122.05" y2="187.2" x2="136.45"/>
  <rect  width="14.4" x="122.4" y="186.85" fill="none" connectorname="D11" height="0.699998" id="connector47pin" stroke-width="0"/>
  <rect  width="0" x="136.8" y="186.85" fill="none" height="0.699998" id="connector47terminal" stroke-width="0"/>
  <text  x="121" y="187.9" font-family="'Droid Sans'" fill="#8c8c8c" text-anchor="end" stroke="none" id="label47" font-size="3.5">D11</text>
  <line  fill="none" stroke="#787878" stroke-linejoin="round" stroke-linecap="round" y1="194.4" stroke-width="0.699998" x1="122.05" y2="194.4" x2="136.45"/>
  <rect  width="14.4" x="122.4" y="194.05" fill="none" connectorname="D10" height="0.699998" id="connector44pin" stroke-width="0"/>
  <rect  width="0" x="136.8" y="194.05" fill="none" height="0.699998" id="connector44terminal" stroke-width="0"/>
  <text  x="121" y="195.1" font-family="'Droid Sans'" fill="#8c8c8c" text-anchor="end" stroke="none" id="label44" font-size="3.5">D10</text>
  <line  fill="none" stroke="#787878" stroke-linejoin="round" stroke-linecap="round" y1="0.349999" stroke-width="0.699998" x1="57.6" y2="14.4" x2="57.6"/>
  <rect  width="0.699998" x="57.25" y="0" fill="none" connectorname="3.3V" height="14.4" id="connector73pin" stroke-width="0"/>
  <rect  width="0.699998" x="57.25" y="0" fill="none" height="0" id="connector73terminal" stroke-width="0"/>
  <g  transform="matrix(1, 0, 0, 1, 59, 16)">
   <g  transform="rotate(270)">
    <text  x="0" y="0" font-family="'Droid Sans'" fill="#8c8c8c" text-anchor="end" stroke="none" id="label73" font-size="3.5">3.3V</text>
   </g>
  </g>
  <line  fill="none" stroke="#787878" stroke-linejoin="round" stroke-linecap="round" y1="0.349999" stroke-width="0.699998" x1="64.8" y2="14.4" x2="64.8"/>
  <rect  width="0.699998" x="64.45" y="0" fill="none" connectorname="VCC" height="14.4" id="connector142pin" stroke-width="0"/>
  <rect  width="0.699998" x="64.45" y="0" fill="none" height="0" id="connector142terminal" stroke-width="0"/>
  <g  transform="matrix(1, 0, 0, 1, 66.2, 16)">
   <g  transform="rotate(270)">
    <text  x="0" y="0" font-family="'Droid Sans'" fill="#8c8c8c" text-anchor="end" stroke="none" id="label142" font-size="3.5">VCC</text>
   </g>
  </g>
  <line  fill="none" stroke="#787878" stroke-linejoin="round" stroke-linecap="round" y1="0.349999" stroke-width="0.699998" x1="72" y2="14.4" x2="72"/>
  <rect  width="0.699998" x="71.65" y="0" fill="none" connectorname="ANALOG_PWR_RAIL" height="14.4" id="connector55pin" stroke-width="0"/>
  <rect  width="0.699998" x="71.65" y="0" fill="none" height="0" id="connector55terminal" stroke-width="0"/>
  <g  transform="matrix(1, 0, 0, 1, 73.3997, 16)">
   <g  transform="rotate(270)">
    <text  x="0" y="0" font-family="'Droid Sans'" fill="#8c8c8c" text-anchor="end" stroke="none" id="label55" font-size="3.5">ANALOG_PWR_RAIL</text>
   </g>
  </g>
  <line  fill="none" stroke="#787878" stroke-linejoin="round" stroke-linecap="round" y1="208.8" stroke-width="0.699998" x1="64.8" y2="222.85" x2="64.8"/>
  <rect  width="0.699998" x="64.45" y="208.8" fill="none" connectorname="GND" height="14.4" id="connector12pin" stroke-width="0"/>
  <rect  width="0.699998" x="64.45" y="223.2" fill="none" height="0" id="connector12terminal" stroke-width="0"/>
  <g  transform="matrix(1, 0, 0, 1, 66.2, 207.2)">
   <g  transform="rotate(270)">
    <text  x="0" y="0" font-family="'Droid Sans'" fill="#8c8c8c" text-anchor="start" stroke="none" id="label12" font-size="3.5">GND</text>
   </g>
  </g>
  <rect  width="0.699998" x="57.25" y="0" fill="none" connectorname="3.3V" height="14.4" id="connector81pin" stroke-width="0"/>
  <rect  width="0.699998" x="57.25" y="0" fill="none" height="0" id="connector81terminal" stroke-width="0"/>
  <rect  width="0.699998" x="57.25" y="0" fill="none" connectorname="3.3V" height="14.4" id="connector141pin" stroke-width="0"/>
  <rect  width="0.699998" x="57.25" y="0" fill="none" height="0" id="connector141terminal" stroke-width="0"/>
  <rect  width="0.699998" x="71.65" y="0" fill="none" connectorname="ANALOG_PWR_RAIL" height="14.4" id="connector70pin" stroke-width="0"/>
  <rect  width="0.699998" x="71.65" y="0" fill="none" height="0" id="connector70terminal" stroke-width="0"/>
  <rect  width="0.699998" x="71.65" y="0" fill="none" connectorname="ANALOG_PWR_RAIL" height="14.4" id="connector61pin" stroke-width="0"/>
  <rect  width="0.699998" x="71.65" y="0" fill="none" height="0" id="connector61terminal" stroke-width="0"/>
  <rect  width="0.699998" x="71.65" y="0" fill="none" connectorname="ANALOG_PWR_RAIL" height="14.4" id="connector58pin" stroke-width="0"/>
  <rect  width="0.699998" x="71.65" y="0" fill="none" height="0" id="connector58terminal" stroke-width="0"/>
  <rect  width="0.699998" x="71.65" y="0" fill="none" connectorname="ANALOG_PWR_RAIL" height="14.4" id="connector67pin" stroke-width="0"/>
  <rect  width="0.699998" x="71.65" y="0" fill="none" height="0" id="connector67terminal" stroke-width="0"/>
  <rect  width="0.699998" x="71.65" y="0" fill="none" connectorname="ANALOG_PWR_RAIL" height="14.4" id="connector64pin" stroke-width="0"/>
  <rect  width="0.699998" x="71.65" y="0" fill="none" height="0" id="connector64terminal" stroke-width="0"/>
  <rect  width="0.699998" x="64.45" y="208.8" fill="none" connectorname="GND" height="14.4" id="connector15pin" stroke-width="0"/>
  <rect  width="0.699998" x="64.45" y="223.2" fill="none" height="0" id="connector15terminal" stroke-width="0"/>
  <rect  width="0.699998" x="64.45" y="208.8" fill="none" connectorname="GND" height="14.4" id="connector18pin" stroke-width="0"/>
  <rect  width="0.699998" x="64.45" y="223.2" fill="none" height="0" id="connector18terminal" stroke-width="0"/>
  <rect  width="0.699998" x="64.45" y="208.8" fill="none" connectorname="GND" height="14.4" id="connector21pin" stroke-width="0"/>
  <rect  width="0.699998" x="64.45" y="223.2" fill="none" height="0" id="connector21terminal" stroke-width="0"/>
  <rect  width="0.699998" x="64.45" y="208.8" fill="none" connectorname="GND" height="14.4" id="connector24pin" stroke-width="0"/>
  <rect  width="0.699998" x="64.45" y="223.2" fill="none" height="0" id="connector24terminal" stroke-width="0"/>
  <rect  width="0.699998" x="64.45" y="208.8" fill="none" connectorname="GND" height="14.4" id="connector27pin" stroke-width="0"/>
  <rect  width="0.699998" x="64.45" y="223.2" fill="none" height="0" id="connector27terminal" stroke-width="0"/>
  <rect  width="0.699998" x="64.45" y="208.8" fill="none" connectorname="GND" height="14.4" id="connector30pin" stroke-width="0"/>
  <rect  width="0.699998" x="64.45" y="223.2" fill="none" height="0" id="connector30terminal" stroke-width="0"/>
  <rect  width="0.699998" x="64.45" y="208.8" fill="none" connectorname="GND" height="14.4" id="connector33pin" stroke-width="0"/>
  <rect  width="0.699998" x="64.45" y="223.2" fill="none" height="0" id="connector33terminal" stroke-width="0"/>
  <rect  width="0.699998" x="64.45" y="208.8" fill="none" connectorname="GND" height="14.4" id="connector36pin" stroke-width="0"/>
  <rect  width="0.699998" x="64.45" y="223.2" fill="none" height="0" id="connector36terminal" stroke-width="0"/>
  <rect  width="0.699998" x="64.45" y="208.8" fill="none" connectorname="GND" height="14.4" id="connector39pin" stroke-width="0"/>
  <rect  width="0.699998" x="64.45" y="223.2" fill="none" height="0" id="connector39terminal" stroke-width="0"/>
  <rect  width="0.699998" x="64.45" y="208.8" fill="none" connectorname="GND" height="14.4" id="connector42pin" stroke-width="0"/>
  <rect  width="0.699998" x="64.45" y="223.2" fill="none" height="0" id="connector42terminal" stroke-width="0"/>
  <rect  width="0.699998" x="64.45" y="208.8" fill="none" connectorname="GND" height="14.4" id="connector45pin" stroke-width="0"/>
  <rect  width="0.699998" x="64.45" y="223.2" fill="none" height="0" id="connector45terminal" stroke-width="0"/>
  <rect  width="0.699998" x="64.45" y="208.8" fill="none" connectorname="GND" height="14.4" id="connector48pin" stroke-width="0"/>
  <rect  width="0.699998" x="64.45" y="223.2" fill="none" height="0" id="connector48terminal" stroke-width="0"/>
  <rect  width="0.699998" x="64.45" y="208.8" fill="none" connectorname="GND" height="14.4" id="connector51pin" stroke-width="0"/>
  <rect  width="0.699998" x="64.45" y="223.2" fill="none" height="0" id="connector51terminal" stroke-width="0"/>
  <rect  width="0.699998" x="64.45" y="208.8" fill="none" connectorname="GND" height="14.4" id="connector54pin" stroke-width="0"/>
  <rect  width="0.699998" x="64.45" y="223.2" fill="none" height="0" id="connector54terminal" stroke-width="0"/>
  <rect  width="0.699998" x="64.45" y="208.8" fill="none" connectorname="GND" height="14.4" id="connector57pin" stroke-width="0"/>
  <rect  width="0.699998" x="64.45" y="223.2" fill="none" height="0" id="connector57terminal" stroke-width="0"/>
  <rect  width="0.699998" x="64.45" y="208.8" fill="none" connectorname="GND" height="14.4" id="connector60pin" stroke-width="0"/>
  <rect  width="0.699998" x="64.45" y="223.2" fill="none" height="0" id="connector60terminal" stroke-width="0"/>
  <rect  width="0.699998" x="64.45" y="208.8" fill="none" connectorname="GND" height="14.4" id="connector63pin" stroke-width="0"/>
  <rect  width="0.699998" x="64.45" y="223.2" fill="none" height="0" id="connector63terminal" stroke-width="0"/>
  <rect  width="0.699998" x="64.45" y="208.8" fill="none" connectorname="GND" height="14.4" id="connector66pin" stroke-width="0"/>
  <rect  width="0.699998" x="64.45" y="223.2" fill="none" height="0" id="connector66terminal" stroke-width="0"/>
  <rect  width="0.699998" x="64.45" y="208.8" fill="none" connectorname="GND" height="14.4" id="connector69pin" stroke-width="0"/>
  <rect  width="0.699998" x="64.45" y="223.2" fill="none" height="0" id="connector69terminal" stroke-width="0"/>
  <rect  width="0.699998" x="64.45" y="208.8" fill="none" connectorname="GND" height="14.4" id="connector72pin" stroke-width="0"/>
  <rect  width="0.699998" x="64.45" y="223.2" fill="none" height="0" id="connector72terminal" stroke-width="0"/>
  <rect  width="0.699998" x="64.45" y="208.8" fill="none" connectorname="GND" height="14.4" id="connector80pin" stroke-width="0"/>
  <rect  width="0.699998" x="64.45" y="223.2" fill="none" height="0" id="connector80terminal" stroke-width="0"/>
  <rect  width="0.699998" x="64.45" y="208.8" fill="none" connectorname="GND" height="14.4" id="connector162pin" stroke-width="0"/>
  <rect  width="0.699998" x="64.45" y="223.2" fill="none" height="0" id="connector162terminal" stroke-width="0"/>
  <rect  width="0.699998" x="64.45" y="208.8" fill="none" connectorname="GND" height="14.4" id="connector163pin" stroke-width="0"/>
  <rect  width="0.699998" x="64.45" y="223.2" fill="none" height="0" id="connector163terminal" stroke-width="0"/>
  <rect  width="0.699998" x="64.45" y="208.8" fill="none" connectorname="GND" height="14.4" id="connector164pin" stroke-width="0"/>
  <rect  width="0.699998" x="64.45" y="223.2" fill="none" height="0" id="connector164terminal" stroke-width="0"/>
  <rect  width="14.4" x="0" y="71.65" fill="none" height="0.699998" id="connector143pin" stroke-width="0" connectorName="A0"/>
  <rect  width="0" x="0" y="71.65" fill="none" height="0.699998" id="connector143terminal" stroke-width="0"/>
  <rect  width="14.4" x="0" y="78.8501" fill="none" height="0.699998" id="connector144pin" stroke-width="0" connectorName="A1"/>
  <rect  width="0" x="0" y="78.8501" fill="none" height="0.699998" id="connector144terminal" stroke-width="0"/>
  <rect  width="14.4" x="0" y="86.0501" fill="none" height="0.699998" id="connector145pin" stroke-width="0" connectorName="A2"/>
  <rect  width="0" x="0" y="86.0501" fill="none" height="0.699998" id="connector145terminal" stroke-width="0"/>
  <rect  width="14.4" x="0" y="93.2501" fill="none" height="0.699998" id="connector146pin" stroke-width="0" connectorName="A3"/>
  <rect  width="0" x="0" y="93.2501" fill="none" height="0.699998" id="connector146terminal" stroke-width="0"/>
  <rect  width="14.4" x="0" y="100.45" fill="none" height="0.699998" id="connector147pin" stroke-width="0" connectorName="A4"/>
  <rect  width="0" x="0" y="100.45" fill="none" height="0.699998" id="connector147terminal" stroke-width="0"/>
  <rect  width="14.4" x="0" y="107.65" fill="none" height="0.699998" id="connector148pin" stroke-width="0" connectorName="A5"/>
  <rect  width="0" x="0" y="107.65" fill="none" height="0.699998" id="connector148terminal" stroke-width="0"/>
  <rect  width="14.4" x="122.4" y="64.45" fill="none" connectorname="AOUT1" height="0.699998" id="connector87pin" stroke-width="0"/>
  <rect  width="0" x="136.8" y="64.45" fill="none" height="0.699998" id="connector87terminal" stroke-width="0"/>
  <rect  width="14.4" x="122.4" y="71.65" fill="none" connectorname="AOUT2" height="0.699998" id="connector86pin" stroke-width="0"/>
  <rect  width="0" x="136.8" y="71.65" fill="none" height="0.699998" id="connector86terminal" stroke-width="0"/>
  <rect  width="14.4" x="122.4" y="78.8501" fill="none" connectorname="BOUT1" height="0.699998" id="connector85pin" stroke-width="0"/>
  <rect  width="0" x="136.8" y="78.8501" fill="none" height="0.699998" id="connector85terminal" stroke-width="0"/>
  <rect  width="14.4" x="122.4" y="86.0501" fill="none" connectorname="BOUT2" height="0.699998" id="connector84pin" stroke-width="0"/>
  <rect  width="0" x="136.8" y="86.0501" fill="none" height="0.699998" id="connector84terminal" stroke-width="0"/>
  <rect  width="14.4" x="122.4" y="165.25" fill="none" connectorname="D2" height="0.699998" id="connector150pin" stroke-width="0"/>
  <rect  width="0" x="136.8" y="165.25" fill="none" height="0.699998" id="connector150terminal" stroke-width="0"/>
  <rect  width="14.4" x="122.4" y="150.85" fill="none" connectorname="PWMA" height="0.699998" id="connector151pin" stroke-width="0"/>
  <rect  width="0" x="136.8" y="150.85" fill="none" height="0.699998" id="connector151terminal" stroke-width="0"/>
  <rect  width="14.4" x="0" y="114.85" fill="none" height="0.699998" id="connector152pin" stroke-width="0" connectorName="AIN1"/>
  <rect  width="0" x="0" y="114.85" fill="none" height="0.699998" id="connector152terminal" stroke-width="0"/>
  <rect  width="14.4" x="0" y="122.05" fill="none" height="0.699998" id="connector153pin" stroke-width="0" connectorName="AIN2"/>
  <rect  width="0" x="0" y="122.05" fill="none" height="0.699998" id="connector153terminal" stroke-width="0"/>
  <rect  width="14.4" x="122.4" y="143.65" fill="none" connectorname="PWMB" height="0.699998" id="connector154pin" stroke-width="0"/>
  <rect  width="0" x="136.8" y="143.65" fill="none" height="0.699998" id="connector154terminal" stroke-width="0"/>
  <rect  width="14.4" x="0" y="129.25" fill="none" height="0.699998" id="connector155pin" stroke-width="0" connectorName="BIN1"/>
  <rect  width="0" x="0" y="129.25" fill="none" height="0.699998" id="connector155terminal" stroke-width="0"/>
  <rect  width="14.4" x="0" y="136.45" fill="none" height="0.699998" id="connector156pin" stroke-width="0" connectorName="BIN2"/>
  <rect  width="0" x="0" y="136.45" fill="none" height="0.699998" id="connector156terminal" stroke-width="0"/>
  <rect  width="14.4" x="122.4" y="158.05" fill="none" connectorname="D9" height="0.699998" id="connector157pin" stroke-width="0"/>
  <rect  width="0" x="136.8" y="158.05" fill="none" height="0.699998" id="connector157terminal" stroke-width="0"/>
  <rect  width="14.4" x="122.4" y="194.05" fill="none" connectorname="D10" height="0.699998" id="connector158pin" stroke-width="0"/>
  <rect  width="0" x="136.8" y="194.05" fill="none" height="0.699998" id="connector158terminal" stroke-width="0"/>
  <rect  width="14.4" x="122.4" y="186.85" fill="none" connectorname="D11" height="0.699998" id="connector159pin" stroke-width="0"/>
  <rect  width="0" x="136.8" y="186.85" fill="none" height="0.699998" id="connector159terminal" stroke-width="0"/>
  <rect  width="14.4" x="122.4" y="179.65" fill="none" connectorname="D12" height="0.699998" id="connector160pin" stroke-width="0"/>
  <rect  width="0" x="136.8" y="179.65" fill="none" height="0.699998" id="connector160terminal" stroke-width="0"/>
  <rect  width="14.4" x="122.4" y="172.45" fill="none" connectorname="D13" height="0.699998" id="connector161pin" stroke-width="0"/>
  <rect  width="0" x="136.8" y="172.45" fill="none" height="0.699998" id="connector161terminal" stroke-width="0"/>
  <rect  width="14.4" x="122.4" y="93.2501" fill="none" connectorname="D0" height="0.699998" id="connector168pin" stroke-width="0"/>
  <rect  width="0" x="136.8" y="93.2501" fill="none" height="0.699998" id="connector168terminal" stroke-width="0"/>
  <rect  width="14.4" x="122.4" y="100.45" fill="none" connectorname="D1" height="0.699998" id="connector171pin" stroke-width="0"/>
  <rect  width="0" x="136.8" y="100.45" fill="none" height="0.699998" id="connector171terminal" stroke-width="0"/>
  <rect  width="14.4" x="122.4" y="122.05" fill="none" connectorname="SDA_I2C_PORT" height="0.699998" id="connector82pin" stroke-width="0"/>
  <rect  width="0" x="136.8" y="122.05" fill="none" height="0.699998" id="connector82terminal" stroke-width="0"/>
  <rect  width="14.4" x="122.4" y="129.25" fill="none" connectorname="SCL_I2C_PORT" height="0.699998" id="connector83pin" stroke-width="0"/>
  <rect  width="0" x="136.8" y="129.25" fill="none" height="0.699998" id="connector83terminal" stroke-width="0"/>
  <rect  width="14.4" x="122.4" y="136.45" fill="none" connectorname="PWR_RAIL" height="0.699998" id="connector37pin" stroke-width="0"/>
  <rect  width="0" x="136.8" y="136.45" fill="none" height="0.699998" id="connector37terminal" stroke-width="0"/>
  <rect  width="14.4" x="122.4" y="136.45" fill="none" connectorname="PWR_RAIL" height="0.699998" id="connector49pin" stroke-width="0"/>
  <rect  width="0" x="136.8" y="136.45" fill="none" height="0.699998" id="connector49terminal" stroke-width="0"/>
  <rect  width="14.4" x="122.4" y="136.45" fill="none" connectorname="PWR_RAIL" height="0.699998" id="connector40pin" stroke-width="0"/>
  <rect  width="0" x="136.8" y="136.45" fill="none" height="0.699998" id="connector40terminal" stroke-width="0"/>
  <rect  width="14.4" x="122.4" y="136.45" fill="none" connectorname="PWR_RAIL" height="0.699998" id="connector43pin" stroke-width="0"/>
  <rect  width="0" x="136.8" y="136.45" fill="none" height="0.699998" id="connector43terminal" stroke-width="0"/>
  <rect  width="14.4" x="122.4" y="136.45" fill="none" connectorname="PWR_RAIL" height="0.699998" id="connector46pin" stroke-width="0"/>
  <rect  width="0" x="136.8" y="136.45" fill="none" height="0.699998" id="connector46terminal" stroke-width="0"/>
  <rect  width="14.4" x="122.4" y="136.45" fill="none" connectorname="PWR_RAIL" height="0.699998" id="connector31pin" stroke-width="0"/>
  <rect  width="0" x="136.8" y="136.45" fill="none" height="0.699998" id="connector31terminal" stroke-width="0"/>
  <rect  width="14.4" x="122.4" y="136.45" fill="none" connectorname="PWR_RAIL" height="0.699998" id="connector22pin" stroke-width="0"/>
  <rect  width="0" x="136.8" y="136.45" fill="none" height="0.699998" id="connector22terminal" stroke-width="0"/>
  <rect  width="14.4" x="122.4" y="136.45" fill="none" connectorname="PWR_RAIL" height="0.699998" id="connector16pin" stroke-width="0"/>
  <rect  width="0" x="136.8" y="136.45" fill="none" height="0.699998" id="connector16terminal" stroke-width="0"/>
  <rect  width="14.4" x="122.4" y="136.45" fill="none" connectorname="PWR_RAIL" height="0.699998" id="connector19pin" stroke-width="0"/>
  <rect  width="0" x="136.8" y="136.45" fill="none" height="0.699998" id="connector19terminal" stroke-width="0"/>
  <rect  width="14.4" x="122.4" y="136.45" fill="none" connectorname="PWR_RAIL" height="0.699998" id="connector25pin" stroke-width="0"/>
  <rect  width="0" x="136.8" y="136.45" fill="none" height="0.699998" id="connector25terminal" stroke-width="0"/>
  <rect  width="14.4" x="122.4" y="136.45" fill="none" connectorname="PWR_RAIL" height="0.699998" id="connector34pin" stroke-width="0"/>
  <rect  width="0" x="136.8" y="136.45" fill="none" height="0.699998" id="connector34terminal" stroke-width="0"/>
  <rect  width="14.4" x="122.4" y="136.45" fill="none" connectorname="PWR_RAIL" height="0.699998" id="connector28pin" stroke-width="0"/>
  <rect  width="0" x="136.8" y="136.45" fill="none" height="0.699998" id="connector28terminal" stroke-width="0"/>
  <rect  width="14.4" x="122.4" y="136.45" fill="none" connectorname="PWR_RAIL" height="0.699998" id="connector52pin" stroke-width="0"/>
  <rect  width="0" x="136.8" y="136.45" fill="none" height="0.699998" id="connector52terminal" stroke-width="0"/>
 </g>
</svg>
