<?xml version='1.0' encoding='UTF-8' standalone='no'?>
<!-- Created with Fritzing (http://www.fritzing.org/) -->
<svg xmlns="http://www.w3.org/2000/svg"  width="1.6in" x="0in" version="1.2" y="0in" height="1.1in" viewBox="0 0 115.2 79.2" baseProfile="tiny">
 <desc >Fritzing schematic generated by brd2svg</desc>
 <g  id="schematic">
  <rect  width="85.95" x="14.4" y="14.4" fill="none" height="50.4" stroke="#000000" stroke-linejoin="round" stroke-linecap="round" stroke-width="0.9"/>
  <text  x="57.6" y="29" font-family="'Droid Sans'" fill="#000000" text-anchor="middle" stroke="none" id="label" font-size="3.5">SparkFun</text>
  <text  x="57.6" y="32.5" font-family="'Droid Sans'" fill="#000000" text-anchor="middle" stroke="none" id="label" font-size="3.5">Load</text>
  <text  x="57.6" y="36" font-family="'Droid Sans'" fill="#000000" text-anchor="middle" stroke="none" id="label" font-size="3.5">Sensor</text>
  <text  x="57.6" y="39.5" font-family="'Droid Sans'" fill="#000000" text-anchor="middle" stroke="none" id="label" font-size="3.5">Combinator</text>
  <line  fill="none" stroke="#787878" stroke-linejoin="round" stroke-linecap="round" y1="21.6" stroke-width="0.699998" x1="0.349999" y2="21.6" x2="14.4"/>
  <rect  width="14.4" x="0" y="21.25" fill="none" height="0.699998" id="connector0pin" stroke-width="0" connectorName="1"/>
  <rect  width="0" x="0" y="21.25" fill="none" height="0.699998" id="connector0terminal" stroke-width="0"/>
  <text  x="15.8" y="22.3" font-family="'Droid Sans'" fill="#8c8c8c" text-anchor="start" stroke="none" id="label0" font-size="3.5">1</text>
  <text  x="7.2" y="20.55" class="text" font-family="Droid Sans" fill="#8c8c8c" text-anchor="middle" stroke="none" stroke-width="0" font-size="2.5">1</text>
  <line  fill="none" stroke="#787878" stroke-linejoin="round" stroke-linecap="round" y1="28.8" stroke-width="0.699998" x1="0.349999" y2="28.8" x2="14.4"/>
  <rect  width="14.4" x="0" y="28.45" fill="none" height="0.699998" id="connector7pin" stroke-width="0" connectorName="2"/>
  <rect  width="0" x="0" y="28.45" fill="none" height="0.699998" id="connector7terminal" stroke-width="0"/>
  <text  x="15.8" y="29.5" font-family="'Droid Sans'" fill="#8c8c8c" text-anchor="start" stroke="none" id="label7" font-size="3.5">2</text>
  <text  x="7.2" y="27.75" class="text" font-family="Droid Sans" fill="#8c8c8c" text-anchor="middle" stroke="none" stroke-width="0" font-size="2.5">8</text>
  <line  fill="none" stroke="#787878" stroke-linejoin="round" stroke-linecap="round" y1="36" stroke-width="0.699998" x1="0.349999" y2="36" x2="14.4"/>
  <rect  width="14.4" x="0" y="35.65" fill="none" height="0.699998" id="connector1pin" stroke-width="0" connectorName="2"/>
  <rect  width="0" x="0" y="35.65" fill="none" height="0.699998" id="connector1terminal" stroke-width="0"/>
  <text  x="15.8" y="36.7" font-family="'Droid Sans'" fill="#8c8c8c" text-anchor="start" stroke="none" id="label1" font-size="3.5">2</text>
  <text  x="7.2" y="34.95" class="text" font-family="Droid Sans" fill="#8c8c8c" text-anchor="middle" stroke="none" stroke-width="0" font-size="2.5">2</text>
  <line  fill="none" stroke="#787878" stroke-linejoin="round" stroke-linecap="round" y1="43.2" stroke-width="0.699998" x1="0.349999" y2="43.2" x2="14.4"/>
  <rect  width="14.4" x="0" y="42.85" fill="none" height="0.699998" id="connector16pin" stroke-width="0" connectorName="5"/>
  <rect  width="0" x="0" y="42.85" fill="none" height="0.699998" id="connector16terminal" stroke-width="0"/>
  <text  x="15.8" y="43.9" font-family="'Droid Sans'" fill="#8c8c8c" text-anchor="start" stroke="none" id="label16" font-size="3.5">5</text>
  <text  x="7.2" y="42.15" class="text" font-family="Droid Sans" fill="#8c8c8c" text-anchor="middle" stroke="none" stroke-width="0" font-size="2.5">17</text>
  <line  fill="none" stroke="#787878" stroke-linejoin="round" stroke-linecap="round" y1="50.4" stroke-width="0.699998" x1="0.349999" y2="50.4" x2="14.4"/>
  <rect  width="14.4" x="0" y="50.05" fill="none" height="0.699998" id="connector8pin" stroke-width="0" connectorName="A+"/>
  <rect  width="0" x="0" y="50.05" fill="none" height="0.699998" id="connector8terminal" stroke-width="0"/>
  <text  x="15.8" y="51.1" font-family="'Droid Sans'" fill="#8c8c8c" text-anchor="start" stroke="none" id="label8" font-size="3.5">A+</text>
  <text  x="7.2" y="49.35" class="text" font-family="Droid Sans" fill="#8c8c8c" text-anchor="middle" stroke="none" stroke-width="0" font-size="2.5">9</text>
  <line  fill="none" stroke="#787878" stroke-linejoin="round" stroke-linecap="round" y1="21.6" stroke-width="0.699998" x1="100.45" y2="21.6" x2="114.85"/>
  <rect  width="14.4" x="100.8" y="21.25" fill="none" connectorname="TEMP_DAT" height="0.699998" id="connector26pin" stroke-width="0"/>
  <rect  width="0" x="115.2" y="21.25" fill="none" height="0.699998" id="connector26terminal" stroke-width="0"/>
  <text  x="99.4003" y="22.3" font-family="'Droid Sans'" fill="#8c8c8c" text-anchor="end" stroke="none" id="label26" font-size="3.5">TEMP_DAT</text>
  <text  x="108" y="20.55" class="text" font-family="Droid Sans" fill="#8c8c8c" text-anchor="middle" stroke="none" stroke-width="0" font-size="2.5">27</text>
  <line  fill="none" stroke="#787878" stroke-linejoin="round" stroke-linecap="round" y1="28.8" stroke-width="0.699998" x1="100.45" y2="28.8" x2="114.85"/>
  <rect  width="14.4" x="100.8" y="28.45" fill="none" connectorname="N$1" height="0.699998" id="connector3pin" stroke-width="0"/>
  <rect  width="0" x="115.2" y="28.45" fill="none" height="0.699998" id="connector3terminal" stroke-width="0"/>
  <text  x="99.4003" y="29.5" font-family="'Droid Sans'" fill="#8c8c8c" text-anchor="end" stroke="none" id="label3" font-size="3.5">N$1</text>
  <text  x="108" y="27.75" class="text" font-family="Droid Sans" fill="#8c8c8c" text-anchor="middle" stroke="none" stroke-width="0" font-size="2.5">4</text>
  <line  fill="none" stroke="#787878" stroke-linejoin="round" stroke-linecap="round" y1="36" stroke-width="0.699998" x1="100.45" y2="36" x2="114.85"/>
  <rect  width="14.4" x="100.8" y="35.65" fill="none" connectorname="E-" height="0.699998" id="connector2pin" stroke-width="0"/>
  <rect  width="0" x="115.2" y="35.65" fill="none" height="0.699998" id="connector2terminal" stroke-width="0"/>
  <text  x="99.4003" y="36.7" font-family="'Droid Sans'" fill="#8c8c8c" text-anchor="end" stroke="none" id="label2" font-size="3.5">E-</text>
  <text  x="108" y="34.95" class="text" font-family="Droid Sans" fill="#8c8c8c" text-anchor="middle" stroke="none" stroke-width="0" font-size="2.5">3</text>
  <line  fill="none" stroke="#787878" stroke-linejoin="round" stroke-linecap="round" y1="43.2" stroke-width="0.699998" x1="100.45" y2="43.2" x2="114.85"/>
  <rect  width="14.4" x="100.8" y="42.85" fill="none" connectorname="E+" height="0.699998" id="connector11pin" stroke-width="0"/>
  <rect  width="0" x="115.2" y="42.85" fill="none" height="0.699998" id="connector11terminal" stroke-width="0"/>
  <text  x="99.4003" y="43.9" font-family="'Droid Sans'" fill="#8c8c8c" text-anchor="end" stroke="none" id="label11" font-size="3.5">E+</text>
  <text  x="108" y="42.15" class="text" font-family="Droid Sans" fill="#8c8c8c" text-anchor="middle" stroke="none" stroke-width="0" font-size="2.5">12</text>
  <line  fill="none" stroke="#787878" stroke-linejoin="round" stroke-linecap="round" y1="50.4" stroke-width="0.699998" x1="100.45" y2="50.4" x2="114.85"/>
  <rect  width="14.4" x="100.8" y="50.05" fill="none" connectorname="A-" height="0.699998" id="connector5pin" stroke-width="0"/>
  <rect  width="0" x="115.2" y="50.05" fill="none" height="0.699998" id="connector5terminal" stroke-width="0"/>
  <text  x="99.4003" y="51.1" font-family="'Droid Sans'" fill="#8c8c8c" text-anchor="end" stroke="none" id="label5" font-size="3.5">A-</text>
  <text  x="108" y="49.35" class="text" font-family="Droid Sans" fill="#8c8c8c" text-anchor="middle" stroke="none" stroke-width="0" font-size="2.5">6</text>
  <line  fill="none" stroke="#787878" stroke-linejoin="round" stroke-linecap="round" y1="0.349999" stroke-width="0.699998" x1="57.6" y2="14.4" x2="57.6"/>
  <rect  width="0.699998" x="57.25" y="0" fill="none" connectorname="5V" height="14.4" id="connector27pin" stroke-width="0"/>
  <rect  width="0.699998" x="57.25" y="0" fill="none" height="0" id="connector27terminal" stroke-width="0"/>
  <g  transform="matrix(1, 0, 0, 1, 59, 16)">
   <g  transform="rotate(270)">
    <text  x="0" y="0" font-family="'Droid Sans'" fill="#8c8c8c" text-anchor="end" stroke="none" id="label27" font-size="3.5">5V</text>
   </g>
  </g>
  <g  transform="matrix(1, 0, 0, 1, 56.55, 7.2)">
   <g  transform="rotate(270)">
    <text  x="0" y="0" class="text" font-family="Droid Sans" fill="#8c8c8c" text-anchor="middle" stroke="none" stroke-width="0" font-size="2.5">28</text>
   </g>
  </g>
  <line  fill="none" stroke="#787878" stroke-linejoin="round" stroke-linecap="round" y1="64.8" stroke-width="0.699998" x1="57.6" y2="78.8501" x2="57.6"/>
  <rect  width="0.699998" x="57.25" y="64.8" fill="none" connectorname="GND" height="14.4" id="connector25pin" stroke-width="0"/>
  <rect  width="0.699998" x="57.25" y="79.2" fill="none" height="0" id="connector25terminal" stroke-width="0"/>
  <g  transform="matrix(1, 0, 0, 1, 59, 63.2)">
   <g  transform="rotate(270)">
    <text  x="0" y="0" font-family="'Droid Sans'" fill="#8c8c8c" text-anchor="start" stroke="none" id="label25" font-size="3.5">GND</text>
   </g>
  </g>
  <g  transform="matrix(1, 0, 0, 1, 56.55, 72)">
   <g  transform="rotate(270)">
    <text  x="0" y="0" class="text" font-family="Droid Sans" fill="#8c8c8c" text-anchor="middle" stroke="none" stroke-width="0" font-size="2.5">26</text>
   </g>
  </g>
  <rect  width="14.4" x="0" y="21.25" fill="none" height="0.699998" id="connector6pin" stroke-width="0" connectorName="1"/>
  <rect  width="0" x="0" y="21.25" fill="none" height="0.699998" id="connector6terminal" stroke-width="0"/>
  <rect  width="14.4" x="0" y="35.65" fill="none" height="0.699998" id="connector4pin" stroke-width="0" connectorName="2"/>
  <rect  width="0" x="0" y="35.65" fill="none" height="0.699998" id="connector4terminal" stroke-width="0"/>
  <rect  width="14.4" x="0" y="28.45" fill="none" height="0.699998" id="connector10pin" stroke-width="0" connectorName="2"/>
  <rect  width="0" x="0" y="28.45" fill="none" height="0.699998" id="connector10terminal" stroke-width="0"/>
  <rect  width="14.4" x="0" y="50.05" fill="none" height="0.699998" id="connector15pin" stroke-width="0" connectorName="A+"/>
  <rect  width="0" x="0" y="50.05" fill="none" height="0.699998" id="connector15terminal" stroke-width="0"/>
  <rect  width="14.4" x="100.8" y="28.45" fill="none" connectorname="N$1" height="0.699998" id="connector9pin" stroke-width="0"/>
  <rect  width="0" x="115.2" y="28.45" fill="none" height="0.699998" id="connector9terminal" stroke-width="0"/>
  <rect  width="14.4" x="100.8" y="35.65" fill="none" connectorname="E-" height="0.699998" id="connector13pin" stroke-width="0"/>
  <rect  width="0" x="115.2" y="35.65" fill="none" height="0.699998" id="connector13terminal" stroke-width="0"/>
  <rect  width="14.4" x="100.8" y="42.85" fill="none" connectorname="E+" height="0.699998" id="connector12pin" stroke-width="0"/>
  <rect  width="0" x="115.2" y="42.85" fill="none" height="0.699998" id="connector12terminal" stroke-width="0"/>
  <rect  width="14.4" x="100.8" y="50.05" fill="none" connectorname="A-" height="0.699998" id="connector14pin" stroke-width="0"/>
  <rect  width="0" x="115.2" y="50.05" fill="none" height="0.699998" id="connector14terminal" stroke-width="0"/>
 </g>
</svg>
